<svg xmlns="http://www.w3.org/2000/svg" viewBox="0 0 519.39 129.83"><defs><style>.cls-1{fill:#8b0601;}</style></defs><g id="Layer_2" data-name="Layer 2"><g id="Layer_1-2" data-name="Layer 1"><g id="Fish"><path class="cls-1" d="M311.13,110.54c-7.74,4.84-16.44,11-21.92,14.89-3.7-1.42-9.54-6.5-14.19-11.11C288.37,113.14,300.29,111.84,311.13,110.54Z"/><path class="cls-1" d="M220.56,118.34c-5.13,4.6-13,11-14.78,11.49-1.79-.35-9.54-4.88-18-9.84,3.22-.12,6.56-.24,9.78-.47C205.54,119.16,213.17,118.81,220.56,118.34Z"/><path class="cls-1" d="M292.54,37.39a18.77,18.77,0,0,1-4.29,4.37c-22.4-3.07-44.57-5.67-68.05-6.5,6.32-9.21,22.7-24.51,34.14-35.26C259.11,9.81,273.12,34.2,292.54,37.39Z"/><path class="cls-1" d="M479.11,80.05A2.92,2.92,0,0,1,477.8,77a3,3,0,0,1,2.62-2.25c11.2-1.42,21.33-13.59,27.53-22.8-11.44,4.72-39.59,9.68-82.62,8.74-41.24-1-85.19-5.79-119-10.52-5.84-.82-11.56-1.53-17.4-2.36a2.62,2.62,0,0,1-1.67-.24c-23.71-3.19-47.07-5.91-72-6.61h-.48c-7.27-.24-14.66-.24-22.16-.12C118.94,42.35,17.88,64,0,81.59c16,18,52,28.71,107.38,32C111.2,98.37,101,75.32,86.05,66.7a2.9,2.9,0,0,1-1.07-4,3,3,0,0,1,4-1.07C106,71.42,117.15,96.24,113.34,114c19.19,1.07,40.64,1.19,64.12.48h.36c6.31-.24,12.75-.48,19.42-.83,74.37-3.43,119.3-9.57,152.2-13.94,24.79-3.43,52.17-5.91,72.08-5.91h3.93c38.38.59,79.88,15,93.94,21.27C513.43,105.69,493.89,90.09,479.11,80.05Zm-432,4.37a7,7,0,1,1,6.91-7A7,7,0,0,1,47.1,84.42Z"/></g></g></g></svg>