<svg xmlns="http://www.w3.org/2000/svg" viewBox="0 0 254.95 63.71"><defs><style>.cls-1{fill:#941b0c;}</style></defs><g id="Layer_2" data-name="Layer 2"><g id="Minimum_Size" data-name="Minimum Size"><path class="cls-1" d="M17.66,63.71a37.68,37.68,0,0,1-8.66-1,15.64,15.64,0,0,1-6.53-3A6.37,6.37,0,0,1,0,54.62a6.73,6.73,0,0,1,2.42-5.19A16.07,16.07,0,0,1,9,46.14l.52,1.38a5.47,5.47,0,0,0-3,2.43A7.57,7.57,0,0,0,5.37,54a6.67,6.67,0,0,0,3.68,6.1,18.94,18.94,0,0,0,9.56,2.12,29.5,29.5,0,0,0,7.62-1,13.9,13.9,0,0,0,6.15-3.34,8.1,8.1,0,0,0,2.42-6.14,7.94,7.94,0,0,0-2.14-5.49c-1.36-1.24-4-1.87-8-1.87h-6.4A32.44,32.44,0,0,1,12.88,44a8.58,8.58,0,0,1-4.24-1.82A5.21,5.21,0,0,1,7,37.92a8.47,8.47,0,0,1,2.43-5.67q2.41-2.73,8.91-5.58l1,.78a39.76,39.76,0,0,0-5.11,3.16,4.61,4.61,0,0,0-2.16,3.76c0,1.85,1.38,2.77,4.16,2.77H27.08a20.93,20.93,0,0,1,6.71,1,10.94,10.94,0,0,1,5,3.29,8.85,8.85,0,0,1,1.9,5.89,14.87,14.87,0,0,1-2.49,8.39,18.25,18.25,0,0,1-7.75,5.76A32.5,32.5,0,0,1,17.66,63.71ZM18,28.22a20.09,20.09,0,0,1-7.71-1.42,11.69,11.69,0,0,1-5.45-4.46,13.92,13.92,0,0,1-2-7.79,13.93,13.93,0,0,1,2-7.8,11.69,11.69,0,0,1,5.45-4.46A20.09,20.09,0,0,1,18,.87a20,20,0,0,1,7.75,1.42,11.84,11.84,0,0,1,5.41,4.46,14,14,0,0,1,2,7.8,14,14,0,0,1-2,7.79,11.84,11.84,0,0,1-5.41,4.46A20,20,0,0,1,18,28.22Zm0-1.55a6,6,0,0,0,5.15-2.6C24.38,22.34,25,19.16,25,14.55S24.38,6.75,23.14,5A6,6,0,0,0,18,2.42,6,6,0,0,0,12.88,5Q11,7.62,11,14.55c0,4.61.64,7.79,1.91,9.52A6,6,0,0,0,18,26.67ZM30.45,8.05l-1.55-.6a12.5,12.5,0,0,1,4.15-5.2A10,10,0,0,1,39.2,0a5.17,5.17,0,0,1,3.63,1.26A4.79,4.79,0,0,1,44.22,5c0,1.79-.48,3.05-1.43,3.77a4.77,4.77,0,0,1-2.9,1.08A3.77,3.77,0,0,1,37.47,9a4,4,0,0,1-1.3-2.9A10.91,10.91,0,0,1,37.38,1l1.13.26a15.62,15.62,0,0,0-5.2,2.9A16.16,16.16,0,0,0,30.45,8.05Z"/><path class="cls-1" d="M59.63,47.27a13.31,13.31,0,0,1-6.15-1.34,9.21,9.21,0,0,1-3.94-3.77,11.45,11.45,0,0,1-1.34-5.62A10.27,10.27,0,0,1,50,30.3a13.29,13.29,0,0,1,4.54-3.89,36.14,36.14,0,0,1,5.85-2.47c2.05-.66,4-1.3,5.84-1.91a17.89,17.89,0,0,0,4.55-2.12,3.7,3.7,0,0,0,1.77-3.2V11.34A11.44,11.44,0,0,0,71.45,5.8a5.38,5.38,0,0,0-2.9-2.55,11.86,11.86,0,0,0-4.07-.65,19.62,19.62,0,0,0-4.63.6,6.9,6.9,0,0,0-3.94,2.51A5.21,5.21,0,0,1,60,11a4.37,4.37,0,0,1-1.39,3.42A5.11,5.11,0,0,1,55,15.67a4.25,4.25,0,0,1-3.68-1.6,6,6,0,0,1-1.17-3.59,5.6,5.6,0,0,1,1.13-3.64,14,14,0,0,1,2.86-2.6,19.2,19.2,0,0,1,5.15-2.38,23.83,23.83,0,0,1,7.14-1,19.52,19.52,0,0,1,6.06.82,10.85,10.85,0,0,1,4.16,2.38,9.69,9.69,0,0,1,2.94,5.06,32.26,32.26,0,0,1,.69,7.15V40.35A5.69,5.69,0,0,0,81,43.46a2.29,2.29,0,0,0,2,.95A4,4,0,0,0,84.83,44,13.62,13.62,0,0,0,86.9,42.6l1,1.47a28.63,28.63,0,0,1-3.47,2.29,9.07,9.07,0,0,1-4.41.91,9,9,0,0,1-4.16-.86,5.57,5.57,0,0,1-2.47-2.56,9.86,9.86,0,0,1-.82-4.28A16.24,16.24,0,0,1,67,45.37,14.22,14.22,0,0,1,59.63,47.27Zm3.12-3.46a9.38,9.38,0,0,0,5.32-1.65,15.22,15.22,0,0,0,4.46-4.93v-17a8,8,0,0,1-3,2.47q-2,1-4.33,2a30.52,30.52,0,0,0-4.46,2.34,11.24,11.24,0,0,0-3.5,3.5,10.25,10.25,0,0,0-1.39,5.63,8,8,0,0,0,1.86,5.54A6.45,6.45,0,0,0,62.75,43.81Z"/><path class="cls-1" d="M118.24.87a8.55,8.55,0,0,1,4.12,1,7.48,7.48,0,0,1,2.77,2.47,6.11,6.11,0,0,1,1,3.42,5.79,5.79,0,0,1-1.34,3.8,4.38,4.38,0,0,1-3.59,1.65A4.85,4.85,0,0,1,118,12a4.12,4.12,0,0,1-1.38-3.33,4.44,4.44,0,0,1,.91-2.82,7.55,7.55,0,0,1,2-1.86,2.08,2.08,0,0,0-1.82-.86,8.32,8.32,0,0,0-4.93,1.6A14.18,14.18,0,0,0,109,8.83a22.46,22.46,0,0,0-2.42,5.33,17.75,17.75,0,0,0-.87,5.23V37.75q0,4.24,2.47,5.67a13.41,13.41,0,0,0,6.71,1.43v1.82l-5.63-.22q-3.63-.14-7.71-.13c-2,0-3.91,0-5.84.13s-3.39.16-4.37.22V44.85c2.36,0,4.05-.44,5.06-1.3S97.9,41,97.9,38.61V11.51q0-3.88-1.39-5.75T91.32,3.9V2.08c1.84.17,3.63.26,5.37.26a35.31,35.31,0,0,0,4.8-.31,24.61,24.61,0,0,0,4.2-.9V12a23.14,23.14,0,0,1,2.73-5.07A16.74,16.74,0,0,1,112.7,2.6,9.52,9.52,0,0,1,118.24.87Z"/><path class="cls-1" d="M170,1.13V37.32c0,2.59.47,4.51,1.43,5.75s2.66,1.86,5.15,1.86v1.82c-1.79-.17-3.58-.26-5.37-.26a43.5,43.5,0,0,0-4.81.26,18.53,18.53,0,0,0-4.19,1V37.49q-2.17,5.63-6.11,8A15.52,15.52,0,0,1,148,47.88a14.66,14.66,0,0,1-5.29-.87A9.81,9.81,0,0,1,139,44.59a9.23,9.23,0,0,1-2.25-4.5,33,33,0,0,1-.6-6.84V11.51c0-2.59-.47-4.51-1.39-5.75s-2.66-1.86-5.19-1.86V2.08c1.84.17,3.63.26,5.36.26A35.35,35.35,0,0,0,139.76,2a24.61,24.61,0,0,0,4.2-.9v34a32.77,32.77,0,0,0,.34,4.94A6.33,6.33,0,0,0,146,43.72c.93.93,2.43,1.39,4.51,1.39a9.48,9.48,0,0,0,6-2.08,14,14,0,0,0,4.16-5.63,20.07,20.07,0,0,0,1.52-8V11.51c0-2.59-.47-4.51-1.39-5.75s-2.66-1.86-5.19-1.86V2.08c1.84.17,3.63.26,5.36.26A35.35,35.35,0,0,0,165.82,2,24.61,24.61,0,0,0,170,1.13Z"/><path class="cls-1" d="M210.45.87a14.83,14.83,0,0,1,5.28.86,10,10,0,0,1,3.72,2.43,9.14,9.14,0,0,1,2.25,4.5,32.26,32.26,0,0,1,.61,6.84V38.61c0,2.43.5,4.07,1.52,4.94s2.69,1.3,5.06,1.3v1.82c-1-.06-2.48-.13-4.5-.22s-4-.13-5.89-.13-3.76,0-5.58.13-3.19.16-4.12.22V44.85c2.08,0,3.55-.44,4.42-1.3s1.3-2.51,1.3-4.94v-25a32.57,32.57,0,0,0-.35-4.93A6.39,6.39,0,0,0,212.44,5q-1.38-1.38-4.5-1.38a9.5,9.5,0,0,0-6,2.07,13.88,13.88,0,0,0-4.15,5.67,20.28,20.28,0,0,0-1.52,8V38.61c0,2.43.43,4.07,1.3,4.94s2.34,1.3,4.41,1.3v1.82c-.92-.06-2.29-.13-4.11-.22s-3.68-.13-5.58-.13-3.87,0-5.89.13-3.52.16-4.5.22V44.85c2.36,0,4.05-.44,5.06-1.3s1.52-2.51,1.52-4.94V11.51q0-3.88-1.39-5.75T181.88,3.9V2.08c1.84.17,3.63.26,5.37.26a35.31,35.31,0,0,0,4.8-.31,24.61,24.61,0,0,0,4.2-.9V11.34q2.25-5.62,6.15-8A15,15,0,0,1,210.45.87Zm26.06,0a14.83,14.83,0,0,1,5.28.86,10,10,0,0,1,3.72,2.43,9.14,9.14,0,0,1,2.25,4.5,32.26,32.26,0,0,1,.61,6.84V38.61c0,2.43.5,4.07,1.52,4.94s2.69,1.3,5.06,1.3v1.82c-1-.06-2.48-.13-4.5-.22s-4-.13-5.89-.13-3.76,0-5.58.13-3.19.16-4.12.22V44.85c2.08,0,3.55-.44,4.42-1.3s1.3-2.51,1.3-4.94v-25a32.57,32.57,0,0,0-.35-4.93A6.39,6.39,0,0,0,238.5,5q-1.38-1.38-4.5-1.38a9.5,9.5,0,0,0-6,2.07,13.94,13.94,0,0,0-4.15,5.63,19.94,19.94,0,0,0-1.52,8l-.26-8.06q2.34-6,6.32-8.18A16.63,16.63,0,0,1,236.51.87Z"/></g></g></svg>