<svg xmlns="http://www.w3.org/2000/svg" viewBox="0 0 202.11 50.55"><defs><style>.cls-1{fill:#941b0c;}</style></defs><g id="Layer_2" data-name="Layer 2"><g id="Minimum_Size" data-name="Minimum Size"><path class="cls-1" d="M4.82,49.16a6.05,6.05,0,0,0,2.3-1.39c1.06-1.05,1.22-2.17.55-2.92s-1.45-.69-2.9,0C3,45.76,1.62,46,.64,45s-.8-3.08.88-4.72a5.8,5.8,0,0,1,2.24-1.46c.15.43.23.64.39,1.08A5,5,0,0,0,2.2,41.14c-1.17,1.14-1,2.18-.57,2.68.64.68,1.46.49,3-.24,1.86-.89,3.12-.94,4.09.16s1,3-.92,4.88A6.58,6.58,0,0,1,5.31,50.2C5.11,49.78,5,49.58,4.82,49.16Z"/><path class="cls-1" d="M20.26,25.05l5.48,8.42c-.46.32-.69.48-1.14.81L19,25.91Z"/><path class="cls-1" d="M41.42,24.12,37.09,15l1.43-.72c2.16,1.22,3.22,1.84,5.31,3.13a23.53,23.53,0,0,1,3,2.23l0,0a40.83,40.83,0,0,1-1.75-3.77c-.65-1.56-1-2.34-1.63-3.9l1.26-.55c1.52,3.75,2.29,5.62,3.81,9.36l-1.26.55c-2-1.34-3-2-5.13-3.27a36.17,36.17,0,0,1-3.26-2.17l0,0c.61,1.12,1.15,2.2,1.86,3.73s1.09,2.34,1.81,3.91Z"/><path class="cls-1" d="M72.36,12.74a7.25,7.25,0,0,1-2.56,1.09c-2.84.68-5.42-.44-6.28-3.65s.9-5.81,4.26-6.62a6,6,0,0,1,2.66-.14c0,.44-.07.67-.11,1.11a5.54,5.54,0,0,0-2.26.09,3.92,3.92,0,0,0-3.15,5.12,3.76,3.76,0,0,0,4.9,2.95,5.78,5.78,0,0,0,2.06-.91C72.07,12.17,72.17,12.36,72.36,12.74Z"/><path class="cls-1" d="M94.32,5.4c-1.66.07-2.48.12-4.13.25.1,1.46.15,2.19.26,3.65,1.79-.14,2.69-.19,4.49-.27,0,.44,0,.66,0,1.1-2.31.1-3.47.17-5.78.37-.33-4-.49-6.07-.83-10.11C90.75.18,92,.11,94.33,0l0,1.1c-1.8.08-2.71.13-4.5.27.09,1.28.14,1.92.23,3.2,1.66-.13,2.5-.18,4.16-.26Z"/><path class="cls-1" d="M134.66,5.72h0l-2,.45,0-1c1-.24,1.5-.35,2.52-.56l1.19.31c-.94,3.79-1.41,5.69-2.36,9.48L132.67,14C133.47,10.7,133.87,9,134.66,5.72Z"/><path class="cls-1" d="M153.11,20a5.77,5.77,0,0,0,1,.41,3.94,3.94,0,0,0,2.33,0,4.17,4.17,0,0,0,2.29-1.78l0,0a3.16,3.16,0,0,1-2.65-.08,3,3,0,0,1-1.7-4,3.37,3.37,0,0,1,4.69-1.71c2,.93,2.58,3,1.54,5.28a6,6,0,0,1-3.51,3.38,5.49,5.49,0,0,1-3.21-.05,7.26,7.26,0,0,1-1.18-.44Zm2.61-5a2,2,0,0,0,1.05,2.74,2.36,2.36,0,0,0,2.28-.05.81.81,0,0,0,.32-.39c.68-1.51.59-3-.8-3.61A2.09,2.09,0,0,0,155.72,15.05Z"/><path class="cls-1" d="M182.82,28.07a5.59,5.59,0,0,0-.95-.62,3.94,3.94,0,0,0-5,.71l0,0a3.24,3.24,0,0,1,2.77.56,3.11,3.11,0,0,1,.89,4.5,3.3,3.3,0,0,1-4.76.78c-1.83-1.29-2.19-3.45-.86-5.59a5.45,5.45,0,0,1,3.85-2.68,6.21,6.21,0,0,1,3.7.84c.39.22.71.43.94.59Zm-3.49,4.37a2.12,2.12,0,0,0-.57-3.14,2.31,2.31,0,0,0-2.37-.18,1,1,0,0,0-.45.4c-.83,1.34-.8,2.79.41,3.65A2,2,0,0,0,179.33,32.44Z"/><path class="cls-1" d="M200.2,43.43l0,0-2-.74.46-.95c1,.37,1.53.57,2.56,1l.94,1-6.71,6.92-1-1Z"/></g></g></svg>