<svg xmlns="http://www.w3.org/2000/svg" viewBox="0 0 255.37 193.82"><defs><style>.cls-1{fill:#941b0c;}.cls-2{fill:none;stroke:#000;stroke-miterlimit:10;stroke-width:0.25px;}.cls-3{font-size:20.05px;font-family:PublicSans-ExtraLight, Public Sans;font-weight:200;}.cls-4{letter-spacing:-0.02em;}.cls-5{letter-spacing:-0.01em;}</style></defs><g id="Layer_2" data-name="Layer 2"><g id="Minimum_Size" data-name="Minimum Size"><path class="cls-1" d="M18,193.82a38.09,38.09,0,0,1-8.65-.95,15.75,15.75,0,0,1-6.54-3,6.37,6.37,0,0,1-2.47-5.15,6.71,6.71,0,0,1,2.43-5.19,15.89,15.89,0,0,1,6.58-3.29l.52,1.38a5.43,5.43,0,0,0-3,2.43,7.47,7.47,0,0,0-1.13,4.07,6.7,6.7,0,0,0,3.68,6.1,19.05,19.05,0,0,0,9.57,2.12,29.62,29.62,0,0,0,7.62-1A13.81,13.81,0,0,0,32.67,188a8.15,8.15,0,0,0,2.43-6.15A8,8,0,0,0,33,176.38q-2-1.86-8-1.86H18.54a32.44,32.44,0,0,1-5.37-.43,8.58,8.58,0,0,1-4.24-1.82A5.22,5.22,0,0,1,7.28,168a8.47,8.47,0,0,1,2.43-5.67q2.41-2.73,8.92-5.59l1,.78a41.18,41.18,0,0,0-5.1,3.16,4.63,4.63,0,0,0-2.17,3.77q0,2.78,4.16,2.77H27.37a20.93,20.93,0,0,1,6.71,1,10.94,10.94,0,0,1,5,3.29,8.8,8.8,0,0,1,1.9,5.89,14.79,14.79,0,0,1-2.49,8.39,18.16,18.16,0,0,1-7.75,5.75A32.31,32.31,0,0,1,18,193.82Zm.33-35.49a19.91,19.91,0,0,1-7.71-1.43,11.62,11.62,0,0,1-5.45-4.46,16.24,16.24,0,0,1,0-15.58,11.68,11.68,0,0,1,5.45-4.46A20.09,20.09,0,0,1,18.28,131,20,20,0,0,1,26,132.4a11.73,11.73,0,0,1,5.41,4.46,16.24,16.24,0,0,1,0,15.58A11.67,11.67,0,0,1,26,156.9,19.83,19.83,0,0,1,18.28,158.33Zm0-1.56a6,6,0,0,0,5.15-2.59c1.24-1.74,1.86-4.91,1.86-9.53s-.62-7.79-1.86-9.52a6,6,0,0,0-5.15-2.6,6,6,0,0,0-5.11,2.6c-1.27,1.73-1.9,4.91-1.9,9.52s.63,7.79,1.9,9.53A6,6,0,0,0,18.28,156.77Zm12.47-18.61-1.56-.61a12.62,12.62,0,0,1,4.15-5.19,10,10,0,0,1,6.15-2.25,5.26,5.26,0,0,1,3.64,1.25,4.86,4.86,0,0,1,1.38,3.77c0,1.79-.47,3-1.43,3.77a4.77,4.77,0,0,1-2.9,1.08,3.82,3.82,0,0,1-2.42-.91,4,4,0,0,1-1.3-2.9,10.91,10.91,0,0,1,1.21-5.11l1.13.26a15.45,15.45,0,0,0-5.2,2.9A15.7,15.7,0,0,0,30.75,138.16Z"/><path class="cls-1" d="M59.92,177.38A13.27,13.27,0,0,1,53.78,176a9.21,9.21,0,0,1-3.94-3.77,11.35,11.35,0,0,1-1.34-5.63,10.3,10.3,0,0,1,1.77-6.23,13.37,13.37,0,0,1,4.55-3.9,35.63,35.63,0,0,1,5.84-2.46l5.84-1.91A17.73,17.73,0,0,0,71.05,150a3.71,3.71,0,0,0,1.77-3.2v-5.37a11.44,11.44,0,0,0-1.08-5.54,5.44,5.44,0,0,0-2.9-2.56,12.11,12.11,0,0,0-4.07-.65,19.73,19.73,0,0,0-4.63.61,6.94,6.94,0,0,0-3.94,2.51,5.18,5.18,0,0,1,4.07,5.28,4.35,4.35,0,0,1-1.39,3.42,5,5,0,0,1-3.54,1.26,4.22,4.22,0,0,1-3.68-1.6,6,6,0,0,1-1.17-3.6A5.56,5.56,0,0,1,51.61,137a13.7,13.7,0,0,1,2.86-2.6A19,19,0,0,1,59.62,132a23.87,23.87,0,0,1,7.14-1,19.5,19.5,0,0,1,6.06.83A10.85,10.85,0,0,1,77,134.18a9.69,9.69,0,0,1,2.94,5.06,32,32,0,0,1,.7,7.14v24.07a5.62,5.62,0,0,0,.65,3.12,2.27,2.27,0,0,0,2,1,4,4,0,0,0,1.82-.43,13.08,13.08,0,0,0,2.08-1.39l1,1.48a29.81,29.81,0,0,1-3.46,2.29,9.12,9.12,0,0,1-4.42.91,8.85,8.85,0,0,1-4.16-.87A5.48,5.48,0,0,1,73.65,174a9.76,9.76,0,0,1-.83-4.29,16.11,16.11,0,0,1-5.58,5.81A14.17,14.17,0,0,1,59.92,177.38ZM63,173.92a9.41,9.41,0,0,0,5.33-1.65,15.2,15.2,0,0,0,4.45-4.93v-17a7.89,7.89,0,0,1-3,2.46c-1.32.67-2.77,1.33-4.33,2A31.35,31.35,0,0,0,61,157.16a11.31,11.31,0,0,0-3.51,3.51,10.32,10.32,0,0,0-1.39,5.63A8,8,0,0,0,58,171.84,6.46,6.46,0,0,0,63,173.92Z"/><path class="cls-1" d="M118.54,131a8.51,8.51,0,0,1,4.11,1,7.38,7.38,0,0,1,2.77,2.46,6.12,6.12,0,0,1,1,3.42,5.8,5.8,0,0,1-1.35,3.81,4.38,4.38,0,0,1-3.59,1.65,4.81,4.81,0,0,1-3.2-1.17,4.1,4.1,0,0,1-1.39-3.33,4.44,4.44,0,0,1,.91-2.82,7.58,7.58,0,0,1,2-1.86,2.09,2.09,0,0,0-1.82-.87,8.33,8.33,0,0,0-4.94,1.61,14.18,14.18,0,0,0-3.81,4.11,22.39,22.39,0,0,0-2.42,5.32,17.87,17.87,0,0,0-.87,5.24v18.36c0,2.82.83,4.71,2.47,5.67a13.43,13.43,0,0,0,6.71,1.43v1.81c-1.33-.05-3.2-.13-5.63-.21s-5-.13-7.7-.13c-2,0-3.91,0-5.85.13s-3.39.16-4.37.21V175c2.37,0,4-.44,5.07-1.3s1.51-2.51,1.51-4.94v-27.1q0-3.88-1.38-5.75T91.61,134v-1.81c1.85.17,3.64.26,5.37.26a35.31,35.31,0,0,0,4.8-.31,23.67,23.67,0,0,0,4.2-.91v10.83a23.78,23.78,0,0,1,2.73-5.07A16.82,16.82,0,0,1,113,132.7,9.57,9.57,0,0,1,118.54,131Z"/><path class="cls-1" d="M170.31,131.23v36.19q0,3.9,1.43,5.76t5.15,1.86v1.82c-1.79-.17-3.58-.26-5.37-.26a43.45,43.45,0,0,0-4.8.26,18.21,18.21,0,0,0-4.2.95V167.6q-2.18,5.63-6.11,8a15.5,15.5,0,0,1-8.09,2.38,14.61,14.61,0,0,1-5.28-.87,10,10,0,0,1-3.73-2.42,9.39,9.39,0,0,1-2.25-4.51,32.87,32.87,0,0,1-.6-6.84V141.62c0-2.59-.47-4.51-1.39-5.75s-2.65-1.87-5.19-1.87v-1.81c1.84.17,3.63.26,5.37.26a35.31,35.31,0,0,0,4.8-.31,23.67,23.67,0,0,0,4.2-.91v34a31.32,31.32,0,0,0,.35,4.93,6.27,6.27,0,0,0,1.73,3.64c.92.92,2.42,1.39,4.5,1.39a9.51,9.51,0,0,0,6-2.08,14,14,0,0,0,4.15-5.63,20.12,20.12,0,0,0,1.52-8V141.62c0-2.59-.47-4.51-1.39-5.75s-2.65-1.87-5.19-1.87v-1.81c1.84.17,3.63.26,5.37.26a35.31,35.31,0,0,0,4.8-.31A23.67,23.67,0,0,0,170.31,131.23Z"/><path class="cls-1" d="M210.74,131a14.61,14.61,0,0,1,5.28.87,10,10,0,0,1,3.73,2.42,9.39,9.39,0,0,1,2.25,4.51,32.87,32.87,0,0,1,.6,6.84v23.11c0,2.43.51,4.07,1.52,4.94s2.7,1.3,5.06,1.3v1.81c-1-.05-2.48-.13-4.5-.21s-4-.13-5.89-.13-3.76,0-5.58.13-3.19.16-4.11.21V175c2.07,0,3.55-.44,4.41-1.3s1.3-2.51,1.3-4.94v-25a32.57,32.57,0,0,0-.35-4.93,6.3,6.3,0,0,0-1.73-3.64c-.92-.92-2.42-1.39-4.5-1.39a9.51,9.51,0,0,0-6,2.08,14,14,0,0,0-4.15,5.67,20.46,20.46,0,0,0-1.52,8v19.22c0,2.43.44,4.07,1.3,4.94s2.34,1.3,4.42,1.3v1.81c-.93-.05-2.3-.13-4.12-.21s-3.68-.13-5.58-.13-3.87,0-5.89.13-3.52.16-4.5.21V175c2.37,0,4.05-.44,5.07-1.3s1.51-2.51,1.51-4.94v-27.1q0-3.88-1.38-5.75t-5.2-1.87v-1.81c1.85.17,3.64.26,5.37.26a35.31,35.31,0,0,0,4.8-.31,23.67,23.67,0,0,0,4.2-.91v10.22q2.25-5.62,6.15-8A15,15,0,0,1,210.74,131Zm26.06,0a14.61,14.61,0,0,1,5.28.87,10,10,0,0,1,3.73,2.42,9.39,9.39,0,0,1,2.25,4.51,32.87,32.87,0,0,1,.6,6.84v23.11c0,2.43.51,4.07,1.52,4.94s2.7,1.3,5.06,1.3v1.81c-1-.05-2.48-.13-4.5-.21s-4-.13-5.89-.13-3.76,0-5.58.13-3.19.16-4.11.21V175c2.07,0,3.55-.44,4.41-1.3s1.3-2.51,1.3-4.94v-25a32.57,32.57,0,0,0-.35-4.93,6.3,6.3,0,0,0-1.73-3.64c-.92-.92-2.42-1.39-4.5-1.39a9.51,9.51,0,0,0-6,2.08,14,14,0,0,0-4.15,5.63,20.12,20.12,0,0,0-1.52,8l-.26-8.06q2.34-6,6.32-8.18A16.65,16.65,0,0,1,236.8,131Z"/><path class="cls-1" d="M31.62,90.37A5.91,5.91,0,0,0,33.92,89c1.06-1,1.23-2.17.55-2.92s-1.45-.69-2.89,0c-1.73.87-3.15,1.15-4.13.14s-.8-3.08.87-4.72a5.89,5.89,0,0,1,2.25-1.46c.15.43.23.64.39,1.08A5,5,0,0,0,29,82.35c-1.17,1.14-1,2.18-.58,2.68.65.68,1.47.49,3-.24,1.85-.89,3.12-.94,4.09.16s1,3-.92,4.88a6.58,6.58,0,0,1-2.46,1.58Z"/><path class="cls-1" d="M47.07,66.26c2.19,3.37,3.28,5,5.48,8.42l-1.15.81-5.56-8.37Z"/><path class="cls-1" d="M68.23,65.33c-1.74-3.64-2.6-5.47-4.34-9.11l1.44-.72c2.16,1.22,3.22,1.84,5.3,3.13a23,23,0,0,1,3.05,2.23l0,0c-.63-1.19-1.13-2.31-1.74-3.77l-1.63-3.9,1.26-.55c1.52,3.75,2.28,5.62,3.81,9.36l-1.26.55c-2-1.34-3-2-5.13-3.27a36.37,36.37,0,0,1-3.27-2.17l0,0c.61,1.12,1.15,2.2,1.85,3.73l1.82,3.91Z"/><path class="cls-1" d="M99.17,54A7.23,7.23,0,0,1,96.6,55c-2.83.68-5.42-.44-6.27-3.65s.9-5.81,4.25-6.62a6,6,0,0,1,2.67-.14c0,.44-.07.67-.12,1.11a5.55,5.55,0,0,0-2.26.09A3.92,3.92,0,0,0,91.73,51a3.76,3.76,0,0,0,4.9,2.95A5.64,5.64,0,0,0,98.68,53Z"/><path class="cls-1" d="M121.13,46.61c-1.66.07-2.49.12-4.14.25l.27,3.65c1.79-.14,2.69-.19,4.49-.27,0,.44,0,.66,0,1.1-2.31.1-3.47.17-5.78.37-.33-4-.5-6.07-.83-10.11,2.38-.21,3.57-.28,6-.39l0,1.1c-1.8.08-2.7.13-4.5.27.1,1.28.14,1.92.23,3.2,1.67-.13,2.5-.18,4.17-.26Z"/><path class="cls-1" d="M161.47,46.93h0l-2,.45-.05-1c1-.24,1.51-.35,2.52-.56l1.2.31c-1,3.79-1.42,5.69-2.36,9.48l-1.27-.33C160.28,51.91,160.67,50.25,161.47,46.93Z"/><path class="cls-1" d="M179.92,61.24a5.48,5.48,0,0,0,1,.41,3.94,3.94,0,0,0,2.33,0,4.2,4.2,0,0,0,2.29-1.78l0,0a3.18,3.18,0,0,1-2.66-.08,3,3,0,0,1-1.69-4,3.37,3.37,0,0,1,4.69-1.71c2,.93,2.58,3,1.54,5.28a6,6,0,0,1-3.51,3.38,5.57,5.57,0,0,1-3.21,0,7.42,7.42,0,0,1-1.19-.44C179.68,61.84,179.76,61.64,179.92,61.24Zm2.61-5a2,2,0,0,0,1,2.74,2.38,2.38,0,0,0,2.29,0,.86.86,0,0,0,.32-.39c.68-1.51.58-3-.81-3.61A2.08,2.08,0,0,0,182.53,56.26Z"/><path class="cls-1" d="M209.63,69.28a5.59,5.59,0,0,0-.95-.62,3.94,3.94,0,0,0-5,.71l0,0a3.24,3.24,0,0,1,2.77.56,3.11,3.11,0,0,1,.89,4.5,3.31,3.31,0,0,1-4.77.78c-1.82-1.29-2.19-3.45-.86-5.59A5.48,5.48,0,0,1,205.6,67a6.24,6.24,0,0,1,3.7.84c.39.22.71.43.94.59C210,68.74,209.87,68.92,209.63,69.28Zm-3.49,4.37a2.13,2.13,0,0,0-.57-3.14,2.31,2.31,0,0,0-2.37-.18.9.9,0,0,0-.45.4c-.83,1.34-.81,2.79.41,3.65A2,2,0,0,0,206.14,73.65Z"/><path class="cls-1" d="M227,84.64l0,0-2-.74c.18-.38.27-.57.46-1,1,.37,1.53.57,2.55,1l.94,1-6.71,6.92c-.39-.41-.59-.61-1-1Z"/><g id="Fish"><path class="cls-1" d="M137.81,100.84c-1.52,1-3.23,2.15-4.3,2.92a11,11,0,0,1-2.79-2.18C133.34,101.35,135.68,101.09,137.81,100.84Z"/><path class="cls-1" d="M120,102.37a18.3,18.3,0,0,1-2.9,2.25,29,29,0,0,1-3.53-1.93c.63,0,1.28,0,1.92-.09C117.08,102.53,118.58,102.46,120,102.37Z"/><path class="cls-1" d="M134.16,86.48a3.57,3.57,0,0,1-.84.85A131.18,131.18,0,0,0,120,86.06c1.24-1.81,4.46-4.81,6.7-6.92C127.6,81.06,130.35,85.85,134.16,86.48Z"/><path class="cls-1" d="M170.78,94.85a.56.56,0,0,1-.25-.6.59.59,0,0,1,.51-.44c2.2-.28,4.19-2.67,5.41-4.48-2.25.93-7.78,1.9-16.22,1.72A211.86,211.86,0,0,1,136.86,89l-3.41-.46a.52.52,0,0,1-.33,0A131.94,131.94,0,0,0,119,87.17h-.1c-1.42,0-2.87,0-4.35,0-14.46.3-34.3,4.55-37.81,8,3.14,3.53,10.21,5.64,21.08,6.29.75-3-1.26-7.52-4.18-9.21a.57.57,0,0,1-.21-.79.57.57,0,0,1,.79-.21c3.32,1.93,5.52,6.8,4.77,10.28,3.77.21,8,.23,12.59.09h.07c1.24,0,2.5-.09,3.81-.16,14.6-.67,23.42-1.88,29.88-2.74a113.8,113.8,0,0,1,14.15-1.16h.77a54.49,54.49,0,0,1,18.44,4.18C177.52,99.88,173.69,96.82,170.78,94.85ZM86,95.71a1.37,1.37,0,1,1,1.36-1.37A1.38,1.38,0,0,1,86,95.71Z"/></g><rect class="cls-2" x="0.13" y="40.41" width="255.12" height="153.01"/><line class="cls-2" x1="1.89" y1="28.84" x2="253.48" y2="28.84"/><polygon points="0.13 28.84 2.61 29.86 2.02 28.84 2.61 27.82 0.13 28.84"/><polygon points="255.24 28.84 252.76 29.86 253.35 28.84 252.76 27.82 255.24 28.84"/><text class="cls-3" transform="translate(105.18 17.27)">3<tspan class="cls-4" x="12.24" y="0"> </tspan><tspan class="cls-5" x="16.96" y="0">c</tspan><tspan x="27.64" y="0">m</tspan></text></g></g></svg>