<svg xmlns="http://www.w3.org/2000/svg" viewBox="0 0 582.11 349.16"><defs><style>.cls-1{fill:#f4eada;stroke:#f3e9d8;stroke-miterlimit:10;}</style></defs><g id="Layer_2" data-name="Layer 2"><g id="Layer_1-2" data-name="Layer 1"><path class="cls-1" d="M40.76,348.66A86.29,86.29,0,0,1,21,346.49q-9.27-2.17-14.9-6.81A14.56,14.56,0,0,1,.5,327.94,15.31,15.31,0,0,1,6,316.1q5.52-4.94,15-7.5l1.19,3.16a12.36,12.36,0,0,0-6.91,5.52,17.3,17.3,0,0,0-2.56,9.28q0,9.07,8.38,13.91t21.81,4.84A67,67,0,0,0,60.29,343a31.51,31.51,0,0,0,14-7.6q5.53-5.32,5.53-14c0-4.34-1.79-9.69-4.88-12.52s-9.18-4.24-18.26-4.24H42.09a74.17,74.17,0,0,1-12.24-1,19.73,19.73,0,0,1-9.67-4.15q-3.75-3.15-3.74-9.67,0-6.71,5.52-12.92t20.33-12.73L44.65,266A91.65,91.65,0,0,0,33,273.2q-4.93,3.65-4.93,8.58,0,6.32,9.47,6.32H62.22a47.45,47.45,0,0,1,15.29,2.36A25,25,0,0,1,88.86,298q4.33,5.15,4.34,13.42c0,6.18-1.73,13.73-5.67,19.13s-9.84,9.76-17.67,13.12S52.33,348.66,40.76,348.66Zm.74-80.89a45.68,45.68,0,0,1-17.57-3.26A26.65,26.65,0,0,1,11.5,254.35Q7,247.45,7,236.59t4.54-17.76a26.71,26.71,0,0,1,12.43-10.16,45.68,45.68,0,0,1,17.57-3.26,45.5,45.5,0,0,1,17.66,3.26,26.8,26.8,0,0,1,12.33,10.16Q76,225.75,76,236.59t-4.54,17.76a26.74,26.74,0,0,1-12.33,10.16A45.5,45.5,0,0,1,41.5,267.77Zm0-3.55a13.66,13.66,0,0,0,11.74-5.92q4.24-5.93,4.24-21.71t-4.24-21.71A13.66,13.66,0,0,0,41.5,209a13.75,13.75,0,0,0-11.65,5.92q-4.34,5.93-4.34,21.71t4.34,21.71A13.75,13.75,0,0,0,41.5,264.22Zm28.41-42.43-3.55-1.38a28.74,28.74,0,0,1,9.47-11.84,22.77,22.77,0,0,1,14-5.13,11.85,11.85,0,0,1,8.29,2.86q3.16,2.87,3.16,8.58c0,4.08-1.08,6.94-3.26,8.59a10.88,10.88,0,0,1-6.61,2.46,8.63,8.63,0,0,1-5.52-2.07q-2.57-2.07-3-6.61c-.27-3,.65-6.91,2.76-11.64l2.57.59q-8.3,3.17-11.84,6.61A36.53,36.53,0,0,0,69.91,221.79Z"/><path class="cls-1" d="M136.42,311.18a30.22,30.22,0,0,1-14-3.05,21,21,0,0,1-9-8.59,26,26,0,0,1-3.06-12.83q0-8.67,4-14.2a30.07,30.07,0,0,1,10.36-8.88A82,82,0,0,1,138.09,258q7-2.26,13.32-4.34a41.07,41.07,0,0,0,10.36-4.83,8.48,8.48,0,0,0,4-7.31V229.29q0-8.29-2.47-12.63a12.25,12.25,0,0,0-6.61-5.82,27.32,27.32,0,0,0-9.27-1.48,44.43,44.43,0,0,0-10.56,1.38,15.74,15.74,0,0,0-9,5.72,11.86,11.86,0,0,1,9.28,12,10,10,0,0,1-3.16,7.79,11.59,11.59,0,0,1-8.09,2.87q-5.73,0-8.39-3.66a13.57,13.57,0,0,1-2.66-8.18,12.73,12.73,0,0,1,2.56-8.29,31.43,31.43,0,0,1,6.52-5.92,43,43,0,0,1,11.74-5.43A54.14,54.14,0,0,1,152,205.41a44.67,44.67,0,0,1,13.81,1.88,24.72,24.72,0,0,1,9.47,5.42A22.2,22.2,0,0,1,182,224.26a73.08,73.08,0,0,1,1.58,16.28V295.4q0,4.94,1.48,7.1a5.21,5.21,0,0,0,4.64,2.17,9.1,9.1,0,0,0,4.14-1,29,29,0,0,0,4.74-3.16l2.17,3.35a65,65,0,0,1-7.89,5.23q-3.75,2.07-10.07,2.07a20.27,20.27,0,0,1-9.47-2,12.7,12.7,0,0,1-5.63-5.82,22.3,22.3,0,0,1-1.87-9.77,36.68,36.68,0,0,1-12.73,13.22A32.26,32.26,0,0,1,136.42,311.18Zm7.1-7.89a21.48,21.48,0,0,0,12.14-3.75,34.92,34.92,0,0,0,10.16-11.25V249.61a18.09,18.09,0,0,1-6.91,5.63q-4.53,2.26-9.86,4.54a70.7,70.7,0,0,0-10.17,5.33,25.71,25.71,0,0,0-8,8q-3.15,4.93-3.16,12.82T132,298.55Q136.21,303.29,143.52,303.29Z"/><path class="cls-1" d="M270,205.41a19.65,19.65,0,0,1,9.38,2.17,17,17,0,0,1,6.31,5.63A13.89,13.89,0,0,1,288,221a13.3,13.3,0,0,1-3.06,8.68,10,10,0,0,1-8.19,3.75,11,11,0,0,1-7.3-2.66,9.38,9.38,0,0,1-3.16-7.6,10.06,10.06,0,0,1,2.08-6.41,17.6,17.6,0,0,1,4.63-4.25,4.73,4.73,0,0,0-4.14-2,19,19,0,0,0-11.25,3.65,32.19,32.19,0,0,0-8.68,9.38,51.9,51.9,0,0,0-5.53,12.13,40.65,40.65,0,0,0-2,11.94v41.84q0,9.66,5.62,12.92t15.3,3.26v4.14q-4.54-.19-12.83-.49t-17.56-.3q-6.72,0-13.32.3t-10,.49v-4.14q8.09,0,11.54-3t3.46-11.25V229.68q0-8.88-3.16-13.12t-11.84-4.24v-4.15q6.31.6,12.24.59a82.08,82.08,0,0,0,11-.69A54,54,0,0,0,241.4,206v24.67a53.75,53.75,0,0,1,6.21-11.54,38.44,38.44,0,0,1,9.77-9.77A21.8,21.8,0,0,1,270,205.41Z"/><path class="cls-1" d="M388,206v82.49q0,8.88,3.25,13.12T403,305.86V310q-6.12-.6-12.24-.59a96,96,0,0,0-10.95.59,41.44,41.44,0,0,0-9.57,2.17V288.88q-4.93,12.84-13.92,18.26a35.19,35.19,0,0,1-18.44,5.43,33.35,33.35,0,0,1-12-2,22.5,22.5,0,0,1-8.49-5.52,21,21,0,0,1-5.13-10.27,74.37,74.37,0,0,1-1.38-15.59V229.68q0-8.88-3.16-13.12t-11.84-4.24v-4.15q6.31.6,12.24.59a82.08,82.08,0,0,0,10.95-.69,53.85,53.85,0,0,0,9.57-2.07v77.56a73.59,73.59,0,0,0,.79,11.24,14.35,14.35,0,0,0,3.95,8.29q3.15,3.17,10.26,3.16a21.55,21.55,0,0,0,13.71-4.74,31.75,31.75,0,0,0,9.47-12.82,45.9,45.9,0,0,0,3.46-18.16V229.68q0-8.88-3.16-13.12t-11.84-4.24v-4.15q6.32.6,12.23.59a82.13,82.13,0,0,0,11-.69A54,54,0,0,0,388,206Z"/><path class="cls-1" d="M480.17,205.41a33.57,33.57,0,0,1,12,2,22.72,22.72,0,0,1,8.49,5.53,21.13,21.13,0,0,1,5.13,10.26,74.5,74.5,0,0,1,1.38,15.59v52.69q0,8.3,3.45,11.25t11.55,3v4.14q-3.36-.19-10.26-.49t-13.42-.3q-6.51,0-12.73.3t-9.38.49v-4.14q7.11,0,10.07-3t3-11.25v-57a75,75,0,0,0-.79-11.25,14.48,14.48,0,0,0-4-8.29q-3.15-3.15-10.26-3.15a21.54,21.54,0,0,0-13.71,4.73,31.75,31.75,0,0,0-9.48,12.93,46.56,46.56,0,0,0-3.45,18.25v43.81q0,8.3,3,11.25t10.06,3v4.14q-3.15-.19-9.37-.49t-12.73-.3q-6.51,0-13.42.3t-10.26.49v-4.14c5.4,0,9.24-1,11.55-3s3.45-5.72,3.45-11.25V229.68q0-8.88-3.16-13.12t-11.84-4.24v-4.15q6.31.6,12.24.59a82.08,82.08,0,0,0,10.95-.69,53.66,53.66,0,0,0,9.57-2.07v23.29q5.13-12.82,14-18.35A34.33,34.33,0,0,1,480.17,205.41Zm59.4,0a33.57,33.57,0,0,1,12,2,22.72,22.72,0,0,1,8.49,5.53,21.13,21.13,0,0,1,5.13,10.26,74.5,74.5,0,0,1,1.38,15.59v52.69q0,8.3,3.45,11.25t11.55,3v4.14q-3.36-.19-10.26-.49t-13.42-.3q-6.52,0-12.73.3c-4.15.2-7.27.36-9.38.49v-4.14q7.11,0,10.07-3t3-11.25v-57a75,75,0,0,0-.79-11.25,14.54,14.54,0,0,0-3.95-8.29q-3.15-3.15-10.26-3.15a21.54,21.54,0,0,0-13.71,4.73,31.79,31.79,0,0,0-9.48,12.83,45.85,45.85,0,0,0-3.45,18.15l-.59-18.35q5.33-13.62,14.4-18.65A37.9,37.9,0,0,1,539.57,205.41Z"/><path class="cls-1" d="M83.93,109.05a17,17,0,0,1-2.88,2.24,11.68,11.68,0,0,1-3,1.34,7.6,7.6,0,0,1-3,.22,5.71,5.71,0,0,1-2.74-1.15c1-1,1.5-1.55,2.51-2.57a4.2,4.2,0,0,0,2.43.65,6.08,6.08,0,0,0,2.64-.75,11,11,0,0,0,2.57-1.89,10.44,10.44,0,0,0,1.92-2.47,5.92,5.92,0,0,0,.77-2.56,3,3,0,0,0-.77-2.17,2.56,2.56,0,0,0-2.19-1,7.59,7.59,0,0,0-3.22,1.2c-1.93,1.16-2.89,1.76-4.81,3A14.47,14.47,0,0,1,71,104.71,5.71,5.71,0,0,1,68,105a4.83,4.83,0,0,1-2.62-1.51A5,5,0,0,1,64,100.09a8.74,8.74,0,0,1,1-4.18,15,15,0,0,1,3.11-4.17,13.71,13.71,0,0,1,4.64-3.13,7.49,7.49,0,0,1,4.09-.45,5.09,5.09,0,0,1,3,1.7c-1.06,1-1.59,1.45-2.65,2.43a3.84,3.84,0,0,0-2.44-1.1,5.09,5.09,0,0,0-2.57.61,10.74,10.74,0,0,0-2.47,1.82,7.55,7.55,0,0,0-2.47,4,3.33,3.33,0,0,0,.73,3,2.52,2.52,0,0,0,2.28.84,8,8,0,0,0,3.12-1.32c1.88-1.18,2.83-1.76,4.72-2.9a10.58,10.58,0,0,1,3.71-1.58,5.21,5.21,0,0,1,2.87.21A5.54,5.54,0,0,1,88,100.82a8.6,8.6,0,0,1-1,4.07A15.39,15.39,0,0,1,83.93,109.05Z"/><path class="cls-1" d="M122.65,76.85c-5-7.72-7.5-11.58-12.51-19.29l2.86-2L125.31,75Z"/><path class="cls-1" d="M160.76,54.43c-3.88-8.38-5.82-12.57-9.71-20.94,1.17-.58,1.75-.86,2.92-1.42,8,4.11,11.88,6.3,19.41,10.89-2.69-6.66-4-10-6.71-16.66l3.1-1.31,8.42,21.53c-1,.43-1.55.64-2.57,1.08-7.56-4.69-11.47-6.93-19.51-11.14l7.49,16.59C162.46,53.6,161.89,53.87,160.76,54.43Z"/><path class="cls-1" d="M224.87,31.8a10.68,10.68,0,0,1-5.74-.07,9.23,9.23,0,0,1-4.41-3.09,15.33,15.33,0,0,1-2.79-5.94,14.55,14.55,0,0,1-.35-6.54,8.91,8.91,0,0,1,2.65-4.85,11.83,11.83,0,0,1,5.5-2.77,10.56,10.56,0,0,1,5-.07,8.67,8.67,0,0,1,3.84,2,7.25,7.25,0,0,1,2.18,3.37c-1.35.27-2,.41-3.38.7a6.27,6.27,0,0,0-1.55-2.2,5.5,5.5,0,0,0-2.4-1.27,6.61,6.61,0,0,0-3.18.05A7.35,7.35,0,0,0,216.58,13a6.08,6.08,0,0,0-1.65,3.54,14.2,14.2,0,0,0,.45,5.31c.76,3.14,1.9,5.29,3.39,6.47a6,6,0,0,0,5.46,1A6.13,6.13,0,0,0,227,28a5.92,5.92,0,0,0,1.57-2.24,7.21,7.21,0,0,0,.52-2.67c1.32-.28,2-.42,3.3-.68a9.58,9.58,0,0,1-.29,3,8.49,8.49,0,0,1-3.63,5A11.2,11.2,0,0,1,224.87,31.8Z"/><path class="cls-1" d="M271.64,24.4,270.09,1.25c6.49-.46,9.75-.61,16.26-.74,0,1.05,0,1.57,0,2.61-5.14.11-7.7.21-12.83.52.17,3,.26,4.54.43,7.56,4.52-.27,6.77-.37,11.29-.47,0,1,0,1.56.06,2.6-4.49.1-6.73.2-11.22.47l.44,7.72c5-.29,7.5-.38,12.5-.46l.05,2.65C280.91,23.82,277.81,24,271.64,24.4Z"/><path class="cls-1" d="M369.15,33.63c1.8-7.16,2.69-10.74,4.48-17.9-1.91-.5-2.87-.75-4.79-1.23l.45-1.88a17.5,17.5,0,0,0,3.56.59,3.52,3.52,0,0,0,2-.43,2.5,2.5,0,0,0,1-1.36l2.29.63c-2.34,9-3.51,13.45-5.86,22.41Z"/><path class="cls-1" d="M417,51.17a10.35,10.35,0,0,1-3.18-2.23,8.4,8.4,0,0,1-1.91-3.1,6.32,6.32,0,0,1-.15-3.56l2.86,1.24a4.75,4.75,0,0,0,.65,3.09,5.66,5.66,0,0,0,2.61,2.26,6.58,6.58,0,0,0,3.85.61,6.3,6.3,0,0,0,3.49-2,15.09,15.09,0,0,0,2.91-5,5.55,5.55,0,0,1-2.14,1.34,6.81,6.81,0,0,1-2.65.33,8,8,0,0,1-2.87-.75,11,11,0,0,1-3.67-2.63,7.73,7.73,0,0,1,1.28-11,7,7,0,0,1,3.91-1.33,10.41,10.41,0,0,1,4.81,1.07A9.84,9.84,0,0,1,431,33.05a9.12,9.12,0,0,1,1.45,5.11,14.58,14.58,0,0,1-1.54,6.14,16.88,16.88,0,0,1-3.84,5.47,9,9,0,0,1-4.74,2.33A9.44,9.44,0,0,1,417,51.17Zm4.78-9.88a6.34,6.34,0,0,0,2.67.59,5.74,5.74,0,0,0,2.51-.54,3.3,3.3,0,0,0,1.62-1.61,6.85,6.85,0,0,0,.69-3.17,5.3,5.3,0,0,0-.94-2.81,5.89,5.89,0,0,0-2.45-2A5.53,5.53,0,0,0,423,31.2a4.69,4.69,0,0,0-2.47.94,5.35,5.35,0,0,0-1.7,2.29,5.17,5.17,0,0,0-.17,4A5.49,5.49,0,0,0,421.73,41.29Z"/><path class="cls-1" d="M466.05,79.61a9.69,9.69,0,0,1-3.42-4.08,9.59,9.59,0,0,1-.65-5.22,14.82,14.82,0,0,1,2.26-5.88,15.54,15.54,0,0,1,4.42-4.8,8.72,8.72,0,0,1,5.21-1.58,10,10,0,0,1,5.56,2.06,11.76,11.76,0,0,1,3,3,8.47,8.47,0,0,1,1.37,3.56,6.11,6.11,0,0,1-.63,3.57c-1-.78-1.54-1.17-2.58-1.93a5,5,0,0,0-.1-3.29,7.12,7.12,0,0,0-6.24-4.21,6.1,6.1,0,0,0-3.72,1.53,14.43,14.43,0,0,0-3.35,4.31,5.28,5.28,0,0,1,2.34-.88,7,7,0,0,1,2.68.2,8.28,8.28,0,0,1,2.66,1.29,10.86,10.86,0,0,1,3.21,3.42,7.29,7.29,0,0,1,1,3.88,7,7,0,0,1-1.38,3.83,7.45,7.45,0,0,1-3.23,2.66,7.31,7.31,0,0,1-4.06.44A10.46,10.46,0,0,1,466.05,79.61Zm1.32-2A5.76,5.76,0,0,0,470,78.64a4.75,4.75,0,0,0,2.6-.4,5.1,5.1,0,0,0,2.13-1.84,5.41,5.41,0,0,0,1-2.6,4.28,4.28,0,0,0-.55-2.54A7.06,7.06,0,0,0,473.06,69a6.46,6.46,0,0,0-2.57-1.1,5.65,5.65,0,0,0-2.6.09,3.22,3.22,0,0,0-1.84,1.35,6.82,6.82,0,0,0-1.12,3,5.57,5.57,0,0,0,.46,2.91A5.8,5.8,0,0,0,467.37,77.57Z"/><path class="cls-1" d="M506.49,113.57,519,100.36c-1.51-1.52-2.27-2.28-3.8-3.77l1.29-1.41a20.84,20.84,0,0,0,3,2.52,3.72,3.72,0,0,0,2,.74A2.26,2.26,0,0,0,523,97.8c.73.73,1.09,1.1,1.81,1.84l-15.91,16.41Z"/><g id="Fish"><path class="cls-1" d="M314,136.72c-3.47,2.16-7.36,4.91-9.82,6.66-1.65-.64-4.26-2.91-6.34-5C303.76,137.88,309.09,137.3,314,136.72Z"/><path class="cls-1" d="M273.42,140.21c-2.29,2.06-5.81,4.93-6.61,5.14-.8-.16-4.27-2.18-8.06-4.4,1.44-.06,2.94-.11,4.38-.22C266.7,140.58,270.11,140.42,273.42,140.21Z"/><path class="cls-1" d="M305.63,104a8.48,8.48,0,0,1-1.92,2,300,300,0,0,0-30.45-2.9c2.82-4.13,10.15-11,15.27-15.78C290.67,91.65,296.93,102.56,305.63,104Z"/><path class="cls-1" d="M389.1,123.08a1.33,1.33,0,0,1-.59-1.38,1.36,1.36,0,0,1,1.18-1c5-.64,9.54-6.08,12.32-10.21-5.12,2.12-17.72,4.34-37,3.91a482.06,482.06,0,0,1-53.26-4.7c-2.61-.37-5.17-.69-7.79-1.06a1.22,1.22,0,0,1-.74-.1,302.42,302.42,0,0,0-32.21-3h-.21c-3.26-.1-6.56-.1-9.92,0-33,.69-78.18,10.36-86.18,18.24,7.15,8,23.25,12.85,48.05,14.33,1.71-6.82-2.88-17.13-9.54-21a1.29,1.29,0,0,1-.48-1.8,1.32,1.32,0,0,1,1.81-.47c7.57,4.39,12.58,15.49,10.88,23.42,8.58.48,18.18.53,28.69.21h.16c2.82-.1,5.7-.21,8.69-.37,33.27-1.53,53.37-4.28,68.09-6.24a258.76,258.76,0,0,1,32.25-2.64h1.76c17.17.26,35.74,6.71,42,9.52C404.46,134.55,395.71,127.57,389.1,123.08Zm-193.29,2a3.12,3.12,0,1,1,3.09-3.12A3.14,3.14,0,0,1,195.81,125Z"/></g></g></g></svg>