<svg xmlns="http://www.w3.org/2000/svg" viewBox="0 0 428.47 347.6"><defs><style>.cls-1{fill:none;stroke:#000;stroke-miterlimit:10;stroke-width:0.25px;}.cls-2{fill:#941b0c;}</style></defs><g id="Layer_2" data-name="Layer 2"><g id="Safe_Distance" data-name="Safe Distance"><rect class="cls-1" x="51" y="59.56" width="326.4" height="228.48"/><line class="cls-1" x1="0.25" y1="347.47" x2="428.34" y2="347.47"/><line class="cls-1" x1="0.25" y1="288.04" x2="428.34" y2="288.04"/><line class="cls-1" x1="0.25" y1="59.56" x2="428.34" y2="59.56"/><line class="cls-1" x1="0.25" y1="0.13" x2="428.34" y2="0.13"/><line class="cls-1" x1="428.34" y1="0.13" x2="428.34" y2="347.47"/><line class="cls-1" x1="377.4" y1="0.13" x2="377.4" y2="347.47"/><line class="cls-1" x1="51.26" y1="0.13" x2="51.13" y2="347.47"/><line class="cls-1" x1="0.25" y1="0.13" x2="0.12" y2="347.47"/><path class="cls-2" d="M73.66,271.72a48.7,48.7,0,0,1-11.09-1.22,20.06,20.06,0,0,1-8.37-3.83A8.16,8.16,0,0,1,51,260.08a8.63,8.63,0,0,1,3.1-6.66,20.47,20.47,0,0,1,8.43-4.21l.66,1.77a7,7,0,0,0-3.88,3.11,9.7,9.7,0,0,0-1.44,5.21,8.57,8.57,0,0,0,4.71,7.82q4.73,2.72,12.26,2.71a37.53,37.53,0,0,0,9.75-1.27,17.65,17.65,0,0,0,7.88-4.27,10.44,10.44,0,0,0,3.1-7.87,10.22,10.22,0,0,0-2.74-7Q90.26,247,82.61,247h-8.2a41.77,41.77,0,0,1-6.88-.55,11.07,11.07,0,0,1-5.43-2.33c-1.41-1.18-2.11-3-2.11-5.43a10.87,10.87,0,0,1,3.11-7.27q3.09-3.49,11.42-7.15l1.33,1a51.09,51.09,0,0,0-6.55,4,5.92,5.92,0,0,0-2.77,4.82q0,3.56,5.33,3.55H85.72A26.63,26.63,0,0,1,94.31,239a14,14,0,0,1,6.37,4.21,11.28,11.28,0,0,1,2.44,7.54,19.06,19.06,0,0,1-3.18,10.75A23.26,23.26,0,0,1,90,268.89Q83.41,271.72,73.66,271.72Zm.41-45.45a25.67,25.67,0,0,1-9.87-1.83,15,15,0,0,1-7-5.71,20.8,20.8,0,0,1,0-20,15,15,0,0,1,7-5.71,25.67,25.67,0,0,1,9.87-1.83A25.55,25.55,0,0,1,84,193.06a15,15,0,0,1,6.93,5.71,20.8,20.8,0,0,1,0,20A15,15,0,0,1,84,224.44,25.55,25.55,0,0,1,74.07,226.27Zm0-2a7.67,7.67,0,0,0,6.6-3.33q2.39-3.31,2.38-12.19t-2.38-12.2a8.15,8.15,0,0,0-13.14,0q-2.44,3.33-2.44,12.2t2.44,12.19A7.71,7.71,0,0,0,74.07,224.27Zm16-23.84-2-.78A16.15,16.15,0,0,1,93.37,193a12.77,12.77,0,0,1,7.87-2.88,6.7,6.7,0,0,1,4.66,1.61,6.19,6.19,0,0,1,1.77,4.82q0,3.44-1.83,4.82a6.08,6.08,0,0,1-3.71,1.39A4.89,4.89,0,0,1,99,201.6a5.13,5.13,0,0,1-1.66-3.72,14,14,0,0,1,1.55-6.54l1.44.33a19.74,19.74,0,0,0-6.65,3.72A20.37,20.37,0,0,0,90,200.43Z"/><path class="cls-2" d="M127.41,250.66a16.86,16.86,0,0,1-7.87-1.72,11.77,11.77,0,0,1-5.05-4.82,14.59,14.59,0,0,1-1.72-7.21,13.14,13.14,0,0,1,2.28-8,16.9,16.9,0,0,1,5.82-5,46,46,0,0,1,7.48-3.16l7.49-2.44a23.25,23.25,0,0,0,5.82-2.72,4.76,4.76,0,0,0,2.27-4.1v-6.88a14.51,14.51,0,0,0-1.39-7.09,6.87,6.87,0,0,0-3.71-3.27,15.27,15.27,0,0,0-5.21-.84,25.26,25.26,0,0,0-5.93.78,8.84,8.84,0,0,0-5,3.22,6.6,6.6,0,0,1,3.66,2.21,6.69,6.69,0,0,1,1.55,4.55,5.62,5.62,0,0,1-1.77,4.38,6.54,6.54,0,0,1-4.55,1.61,5.44,5.44,0,0,1-4.71-2.05,7.61,7.61,0,0,1-1.5-4.6,7.15,7.15,0,0,1,1.44-4.66,18,18,0,0,1,3.66-3.33,24.49,24.49,0,0,1,6.6-3.05,30.43,30.43,0,0,1,9.15-1.27,25.15,25.15,0,0,1,7.76,1.05,13.86,13.86,0,0,1,5.32,3.05,12.47,12.47,0,0,1,3.77,6.49,41,41,0,0,1,.89,9.14v30.83a7.32,7.32,0,0,0,.83,4,2.92,2.92,0,0,0,2.61,1.22,5.15,5.15,0,0,0,2.33-.55,16.74,16.74,0,0,0,2.66-1.78l1.22,1.89a38.5,38.5,0,0,1-4.44,2.94,11.77,11.77,0,0,1-5.65,1.16,11.38,11.38,0,0,1-5.33-1.11,7.15,7.15,0,0,1-3.16-3.27,12.55,12.55,0,0,1-1-5.49,20.64,20.64,0,0,1-7.15,7.43A18.14,18.14,0,0,1,127.41,250.66Zm4-4.43a12.11,12.11,0,0,0,6.82-2.11,19.5,19.5,0,0,0,5.71-6.32V216.06a10.21,10.21,0,0,1-3.88,3.17q-2.55,1.28-5.54,2.55a39.31,39.31,0,0,0-5.72,3,14.57,14.57,0,0,0-4.49,4.49,13.21,13.21,0,0,0-1.77,7.21,10.2,10.2,0,0,0,2.38,7.09A8.26,8.26,0,0,0,131.4,246.23Z"/><path class="cls-2" d="M202.47,191.23a10.88,10.88,0,0,1,5.27,1.22,9.42,9.42,0,0,1,3.55,3.16,7.79,7.79,0,0,1,1.28,4.38,7.54,7.54,0,0,1-1.72,4.88,5.65,5.65,0,0,1-4.6,2.1,6.21,6.21,0,0,1-4.11-1.49,5.28,5.28,0,0,1-1.77-4.27,5.74,5.74,0,0,1,1.16-3.61,10,10,0,0,1,2.61-2.38,2.66,2.66,0,0,0-2.33-1.11,10.65,10.65,0,0,0-6.32,2,18.16,18.16,0,0,0-4.88,5.27,28.74,28.74,0,0,0-3.1,6.82A22.87,22.87,0,0,0,186.4,215v23.5q0,5.44,3.16,7.27a17.13,17.13,0,0,0,8.59,1.83v2.32l-7.21-.27q-4.65-.17-9.87-.17-3.76,0-7.48.17l-5.6.27v-2.32q4.55,0,6.49-1.67c1.29-1.11,1.94-3.21,1.94-6.32v-34.7c0-3.33-.6-5.79-1.78-7.38s-3.4-2.38-6.65-2.38v-2.33q3.56.33,6.88.33a46.76,46.76,0,0,0,6.15-.39,30.3,30.3,0,0,0,5.38-1.16v13.86a30.15,30.15,0,0,1,3.49-6.49,21.38,21.38,0,0,1,5.49-5.49A12.27,12.27,0,0,1,202.47,191.23Z"/><path class="cls-2" d="M268.78,191.56v46.35c0,3.33.61,5.78,1.83,7.37s3.42,2.39,6.6,2.39V250c-2.29-.23-4.59-.34-6.88-.34a52.81,52.81,0,0,0-6.15.34,23.44,23.44,0,0,0-5.38,1.21V238.13Q256,245.35,251,248.39a19.79,19.79,0,0,1-10.36,3.05,18.84,18.84,0,0,1-6.77-1.11,12.67,12.67,0,0,1-4.76-3.11,11.79,11.79,0,0,1-2.89-5.76,41.74,41.74,0,0,1-.77-8.76V204.87c0-3.33-.6-5.79-1.78-7.38s-3.4-2.38-6.65-2.38v-2.33c2.36.22,4.66.33,6.87.33a46.81,46.81,0,0,0,6.16-.39,30.3,30.3,0,0,0,5.38-1.16v43.58a41.16,41.16,0,0,0,.44,6.32,8,8,0,0,0,2.22,4.65q1.77,1.78,5.76,1.78a12.15,12.15,0,0,0,7.71-2.66,17.93,17.93,0,0,0,5.32-7.21,25.8,25.8,0,0,0,1.94-10.2V204.87q0-5-1.77-7.38t-6.65-2.38v-2.33q3.54.33,6.87.33a46.76,46.76,0,0,0,6.15-.39A30.11,30.11,0,0,0,268.78,191.56Z"/><path class="cls-2" d="M320.56,191.23a18.84,18.84,0,0,1,6.77,1.11,12.78,12.78,0,0,1,4.77,3.1,11.9,11.9,0,0,1,2.88,5.77,42.21,42.21,0,0,1,.78,8.76v29.6c0,3.11.64,5.21,1.94,6.32s3.45,1.67,6.48,1.67v2.32q-1.89-.1-5.76-.27t-7.54-.17q-3.66,0-7.16.17l-5.26.27v-2.32q4,0,5.65-1.67c1.11-1.11,1.67-3.21,1.67-6.32v-32a41.1,41.1,0,0,0-.45-6.32,8.05,8.05,0,0,0-2.22-4.66q-1.77-1.77-5.76-1.77a12.12,12.12,0,0,0-7.71,2.66,17.77,17.77,0,0,0-5.32,7.26A26.24,26.24,0,0,0,302.38,215v24.61c0,3.11.55,5.21,1.66,6.32s3,1.67,5.66,1.67v2.32l-5.27-.27q-3.49-.17-7.15-.17t-7.54.17q-3.89.16-5.77.27v-2.32c3,0,5.2-.56,6.49-1.67s1.94-3.21,1.94-6.32v-34.7q0-5-1.77-7.38T284,195.11v-2.33q3.55.33,6.88.33a46.76,46.76,0,0,0,6.15-.39,30.3,30.3,0,0,0,5.38-1.16v13.08q2.88-7.2,7.87-10.31A19.28,19.28,0,0,1,320.56,191.23Zm33.38,0a18.74,18.74,0,0,1,6.76,1.11,12.7,12.7,0,0,1,4.77,3.1,11.81,11.81,0,0,1,2.88,5.77,41.54,41.54,0,0,1,.78,8.76v29.6c0,3.11.65,5.21,1.94,6.32s3.46,1.67,6.49,1.67v2.32q-1.89-.1-5.77-.27t-7.54-.17q-3.66,0-7.15.17l-5.27.27v-2.32q4,0,5.66-1.67c1.11-1.11,1.66-3.21,1.66-6.32v-32a42.46,42.46,0,0,0-.44-6.32,8.18,8.18,0,0,0-2.22-4.66q-1.77-1.77-5.77-1.77a12.07,12.07,0,0,0-7.7,2.66,17.74,17.74,0,0,0-5.32,7.2,25.71,25.71,0,0,0-1.94,10.21l-.34-10.32q3-7.65,8.1-10.47A21.19,21.19,0,0,1,353.94,191.23Z"/><path class="cls-2" d="M91.16,139.22a7.47,7.47,0,0,0,3-1.78c1.36-1.34,1.57-2.77.7-3.73s-1.85-.88-3.7,0c-2.22,1.11-4,1.47-5.29.18-1.39-1.44-1-3.95,1.12-6A7.78,7.78,0,0,1,89.81,126l.5,1.39a6.67,6.67,0,0,0-2.5,1.55c-1.49,1.46-1.33,2.8-.73,3.43.82.87,1.87.64,3.81-.3,2.37-1.14,4-1.21,5.23.21s1.24,3.86-1.17,6.24a8.45,8.45,0,0,1-3.15,2Z"/><path class="cls-2" d="M110.94,108.34l7,10.8c-.59.4-.88.61-1.46,1l-7.13-10.71Z"/><path class="cls-2" d="M138,107.16l-5.55-11.67,1.84-.92c2.77,1.56,4.13,2.36,6.79,4a29.4,29.4,0,0,1,3.91,2.85l0,0a52.39,52.39,0,0,1-2.24-4.82l-2.08-5,1.61-.71c2,4.79,2.92,7.19,4.87,12l-1.61.7c-2.58-1.72-3.89-2.56-6.57-4.2a49.65,49.65,0,0,1-4.18-2.76l-.05,0c.79,1.43,1.48,2.82,2.38,4.77s1.4,3,2.33,5Z"/><path class="cls-2" d="M177.67,92.58A9.23,9.23,0,0,1,174.38,94c-3.63.88-6.94-.56-8-4.67-1-3.92,1.15-7.44,5.45-8.47a7.9,7.9,0,0,1,3.41-.19l-.15,1.43a6.75,6.75,0,0,0-2.89.12c-3.23.77-4.87,3.25-4,6.55a4.82,4.82,0,0,0,6.28,3.78,7.54,7.54,0,0,0,2.63-1.16Z"/><path class="cls-2" d="M205.79,83.18c-2.12.09-3.18.16-5.29.32.13,1.87.2,2.8.34,4.67,2.29-.17,3.44-.24,5.75-.34l0,1.41c-3,.12-4.44.22-7.4.47-.42-5.18-.64-7.77-1.06-12.95,3-.26,4.57-.36,7.63-.49l.06,1.4c-2.31.1-3.46.17-5.77.35l.3,4.09c2.13-.16,3.2-.22,5.33-.32C205.75,82.34,205.77,82.62,205.79,83.18Z"/><path class="cls-2" d="M257.46,83.59h0c-1,.22-1.54.34-2.56.58,0-.54,0-.81-.06-1.34,1.29-.3,1.93-.44,3.23-.71l1.53.39c-1.21,4.86-1.81,7.29-3,12.14l-1.63-.42Z"/><path class="cls-2" d="M281.09,101.92a6.58,6.58,0,0,0,1.33.52,5,5,0,0,0,3,0,5.38,5.38,0,0,0,2.94-2.28l-.06,0a4,4,0,0,1-3.39-.1,3.9,3.9,0,0,1-2.18-5.13,4.32,4.32,0,0,1,6-2.19c2.59,1.19,3.3,3.86,2,6.75a7.58,7.58,0,0,1-4.49,4.33,7.14,7.14,0,0,1-4.12,0,10.6,10.6,0,0,1-1.51-.57Zm3.34-6.38a2.57,2.57,0,0,0,1.34,3.51A3,3,0,0,0,288.7,99a1,1,0,0,0,.4-.49c.87-1.94.75-3.81-1-4.63A2.67,2.67,0,0,0,284.43,95.54Z"/><path class="cls-2" d="M319.14,112.21a7.84,7.84,0,0,0-1.22-.79,5,5,0,0,0-6.41.91l.05,0a4.12,4.12,0,0,1,3.54.71,4,4,0,0,1,1.14,5.77,4.23,4.23,0,0,1-6.1,1c-2.33-1.64-2.8-4.41-1.1-7.15a6.94,6.94,0,0,1,4.94-3.43,7.71,7.71,0,0,1,4.74,1.07,9.79,9.79,0,0,1,1.19.75Zm-4.47,5.6a2.72,2.72,0,0,0-.74-4,3,3,0,0,0-3-.24,1.27,1.27,0,0,0-.57.52c-1.07,1.72-1,3.58.53,4.67C312.14,119.65,313.67,119.28,314.67,117.81Z"/><path class="cls-2" d="M341.4,131.88l0,0-2.6-.95c.24-.49.35-.73.59-1.21,1.31.47,2,.72,3.27,1.23.49.49.73.73,1.21,1.23-3.44,3.54-5.16,5.31-8.59,8.86l-1.28-1.3Z"/><g id="Fish"><path class="cls-2" d="M227.16,152.63c-1.95,1.22-4.13,2.76-5.51,3.74a13.87,13.87,0,0,1-3.57-2.79C221.44,153.28,224.43,153,227.16,152.63Z"/><path class="cls-2" d="M204.39,154.59a23.2,23.2,0,0,1-3.72,2.89,38.77,38.77,0,0,1-4.52-2.48c.81,0,1.65-.05,2.46-.11C200.61,154.8,202.53,154.71,204.39,154.59Z"/><path class="cls-2" d="M222.49,134.24a4.91,4.91,0,0,1-1.08,1.1,169.23,169.23,0,0,0-17.11-1.64c1.59-2.31,5.71-6.16,8.58-8.86C214.08,127.3,217.6,133.44,222.49,134.24Z"/><path class="cls-2" d="M269.39,145a.73.73,0,0,1-.33-.77.76.76,0,0,1,.66-.56c2.82-.36,5.36-3.42,6.92-5.74-2.88,1.19-9.95,2.44-20.77,2.2a270.84,270.84,0,0,1-29.93-2.64l-4.37-.6a.66.66,0,0,1-.42-.06,170.89,170.89,0,0,0-18.1-1.66h-.12c-1.83-.06-3.68-.06-5.57,0-18.52.39-43.93,5.82-48.42,10.25,4,4.52,13.06,7.22,27,8.05.95-3.83-1.62-9.62-5.37-11.79a.73.73,0,0,1-.27-1,.74.74,0,0,1,1-.27c4.26,2.46,7.07,8.7,6.11,13.16,4.83.27,10.22.3,16.12.12h.09c1.59-.06,3.21-.12,4.89-.21,18.69-.86,30-2.41,38.26-3.5a143.53,143.53,0,0,1,18.12-1.49h1c9.65.15,20.08,3.77,23.62,5.35C278,151.41,273.11,147.49,269.39,145Zm-108.61,1.1a1.75,1.75,0,1,1,1.74-1.75A1.76,1.76,0,0,1,160.78,146.06Z"/></g><path class="cls-2" d="M14.87,347.47A16.89,16.89,0,0,1,7,345.75a11.77,11.77,0,0,1-5-4.82,14.7,14.7,0,0,1-1.72-7.21,13.14,13.14,0,0,1,2.28-8,16.9,16.9,0,0,1,5.82-5,46,46,0,0,1,7.48-3.16l7.49-2.44a23.25,23.25,0,0,0,5.82-2.72,4.76,4.76,0,0,0,2.27-4.1v-6.87a14.68,14.68,0,0,0-1.38-7.1,6.92,6.92,0,0,0-3.72-3.27,15.27,15.27,0,0,0-5.21-.83,25.29,25.29,0,0,0-5.93.77,8.84,8.84,0,0,0-5.05,3.22,6.5,6.5,0,0,1,3.66,2.22A6.62,6.62,0,0,1,15.31,301a5.62,5.62,0,0,1-1.77,4.38A6.48,6.48,0,0,1,9,307,5.44,5.44,0,0,1,4.28,305a7.6,7.6,0,0,1-1.49-4.6,7.11,7.11,0,0,1,1.44-4.66,18,18,0,0,1,3.66-3.33,24.72,24.72,0,0,1,6.59-3.05A30.75,30.75,0,0,1,23.63,288a25.15,25.15,0,0,1,7.76,1,14,14,0,0,1,5.33,3.05,12.57,12.57,0,0,1,3.77,6.49,41.12,41.12,0,0,1,.88,9.15V338.6a7.32,7.32,0,0,0,.83,4,2.93,2.93,0,0,0,2.61,1.22,5.15,5.15,0,0,0,2.33-.55,16.81,16.81,0,0,0,2.66-1.77L51,343.37a36.86,36.86,0,0,1-4.44,2.94,11.77,11.77,0,0,1-5.65,1.16,11.31,11.31,0,0,1-5.32-1.11,7.05,7.05,0,0,1-3.16-3.27,12.41,12.41,0,0,1-1.06-5.49A20.56,20.56,0,0,1,24.24,345,18.11,18.11,0,0,1,14.87,347.47Zm4-4.43a12,12,0,0,0,6.82-2.11,19.5,19.5,0,0,0,5.71-6.32V312.88A10.2,10.2,0,0,1,27.51,316Q25,317.31,22,318.59a40.2,40.2,0,0,0-5.71,3,14.57,14.57,0,0,0-4.49,4.49A13.12,13.12,0,0,0,10,333.28a10.25,10.25,0,0,0,2.39,7.1A8.28,8.28,0,0,0,18.86,343Z"/><path class="cls-2" d="M392.21,347.47a16.89,16.89,0,0,1-7.87-1.72,11.77,11.77,0,0,1-5-4.82,14.7,14.7,0,0,1-1.71-7.21,13.14,13.14,0,0,1,2.27-8,16.9,16.9,0,0,1,5.82-5,46.09,46.09,0,0,1,7.49-3.16l7.48-2.44a23.08,23.08,0,0,0,5.82-2.72,4.73,4.73,0,0,0,2.27-4.1v-6.87a14.68,14.68,0,0,0-1.38-7.1,6.89,6.89,0,0,0-3.72-3.27,15.27,15.27,0,0,0-5.21-.83,25.29,25.29,0,0,0-5.93.77,8.84,8.84,0,0,0-5.05,3.22,6.5,6.5,0,0,1,3.66,2.22,6.62,6.62,0,0,1,1.56,4.54,5.62,5.62,0,0,1-1.78,4.38,6.47,6.47,0,0,1-4.54,1.61,5.44,5.44,0,0,1-4.72-2.05,7.66,7.66,0,0,1-1.49-4.6,7.17,7.17,0,0,1,1.44-4.66,18,18,0,0,1,3.66-3.33,24.87,24.87,0,0,1,6.59-3.05A30.75,30.75,0,0,1,401,288a25.15,25.15,0,0,1,7.76,1,14,14,0,0,1,5.33,3.05,12.57,12.57,0,0,1,3.77,6.49,41.12,41.12,0,0,1,.88,9.15V338.6a7.22,7.22,0,0,0,.84,4,2.9,2.9,0,0,0,2.6,1.22,5.15,5.15,0,0,0,2.33-.55,16.81,16.81,0,0,0,2.66-1.77l1.22,1.88a37.6,37.6,0,0,1-4.43,2.94,11.81,11.81,0,0,1-5.66,1.16,11.34,11.34,0,0,1-5.32-1.11,7.05,7.05,0,0,1-3.16-3.27,12.41,12.41,0,0,1-1.06-5.49,20.56,20.56,0,0,1-7.15,7.43A18.11,18.11,0,0,1,392.21,347.47Zm4-4.43a12,12,0,0,0,6.82-2.11,19.5,19.5,0,0,0,5.71-6.32V312.88a10.2,10.2,0,0,1-3.88,3.16c-1.7.85-3.54,1.7-5.54,2.55a40.2,40.2,0,0,0-5.71,3,14.57,14.57,0,0,0-4.49,4.49,13.12,13.12,0,0,0-1.78,7.21,10.25,10.25,0,0,0,2.39,7.1A8.28,8.28,0,0,0,396.2,343Z"/><path class="cls-2" d="M392.21,59.56a17,17,0,0,1-7.87-1.72,11.83,11.83,0,0,1-5-4.82,14.72,14.72,0,0,1-1.71-7.21,13.14,13.14,0,0,1,2.27-8,16.79,16.79,0,0,1,5.82-5,46.09,46.09,0,0,1,7.49-3.16l7.48-2.44a23.08,23.08,0,0,0,5.82-2.72,4.75,4.75,0,0,0,2.27-4.1V13.54a14.64,14.64,0,0,0-1.38-7.09,7,7,0,0,0-3.72-3.28,15.52,15.52,0,0,0-5.21-.83,24.81,24.81,0,0,0-5.93.78,8.88,8.88,0,0,0-5.05,3.21,6.67,6.67,0,0,1,5.22,6.77,5.62,5.62,0,0,1-1.78,4.38,6.51,6.51,0,0,1-4.54,1.61A5.45,5.45,0,0,1,381.62,17a7.64,7.64,0,0,1-1.49-4.6,7.14,7.14,0,0,1,1.44-4.65,17.76,17.76,0,0,1,3.66-3.33,24.56,24.56,0,0,1,6.59-3.05A30.43,30.43,0,0,1,401,.13a25.15,25.15,0,0,1,7.76,1,13.9,13.9,0,0,1,5.33,3.05,12.51,12.51,0,0,1,3.77,6.48,41.12,41.12,0,0,1,.88,9.15V50.69a7.22,7.22,0,0,0,.84,4,2.93,2.93,0,0,0,2.6,1.22,5,5,0,0,0,2.33-.56,16.14,16.14,0,0,0,2.66-1.77l1.22,1.89a36.23,36.23,0,0,1-4.43,2.93,11.68,11.68,0,0,1-5.66,1.17A11.34,11.34,0,0,1,413,58.45a7.1,7.1,0,0,1-3.16-3.27,12.41,12.41,0,0,1-1.06-5.49,20.64,20.64,0,0,1-7.15,7.43A18.11,18.11,0,0,1,392.21,59.56Zm4-4.44A12.07,12.07,0,0,0,403,53a19.61,19.61,0,0,0,5.71-6.32V25a10.11,10.11,0,0,1-3.88,3.16c-1.7.85-3.54,1.7-5.54,2.55a39.25,39.25,0,0,0-5.71,3,14.36,14.36,0,0,0-4.49,4.49,13.12,13.12,0,0,0-1.78,7.21,10.23,10.23,0,0,0,2.39,7.09A8.24,8.24,0,0,0,396.2,55.12Z"/><path class="cls-2" d="M14.87,59.56A17,17,0,0,1,7,57.84,11.83,11.83,0,0,1,2,53,14.73,14.73,0,0,1,.23,45.81a13.14,13.14,0,0,1,2.28-8,16.79,16.79,0,0,1,5.82-5,46,46,0,0,1,7.48-3.16l7.49-2.44a23.25,23.25,0,0,0,5.82-2.72,4.77,4.77,0,0,0,2.27-4.1V13.54A14.64,14.64,0,0,0,30,6.45a7,7,0,0,0-3.72-3.28,15.52,15.52,0,0,0-5.21-.83,24.81,24.81,0,0,0-5.93.78A8.88,8.88,0,0,0,10.1,6.33a6.65,6.65,0,0,1,5.21,6.77,5.62,5.62,0,0,1-1.77,4.38A6.52,6.52,0,0,1,9,19.09,5.44,5.44,0,0,1,4.28,17a7.58,7.58,0,0,1-1.49-4.6A7.08,7.08,0,0,1,4.23,7.78,17.76,17.76,0,0,1,7.89,4.45,24.41,24.41,0,0,1,14.48,1.4,30.43,30.43,0,0,1,23.63.13a25.15,25.15,0,0,1,7.76,1,13.9,13.9,0,0,1,5.33,3.05,12.51,12.51,0,0,1,3.77,6.48,41.12,41.12,0,0,1,.88,9.15V50.69a7.32,7.32,0,0,0,.83,4,3,3,0,0,0,2.61,1.22,5,5,0,0,0,2.33-.56,16.14,16.14,0,0,0,2.66-1.77L51,55.46a35.55,35.55,0,0,1-4.44,2.93,11.64,11.64,0,0,1-5.65,1.17,11.31,11.31,0,0,1-5.32-1.11,7.1,7.1,0,0,1-3.16-3.27,12.41,12.41,0,0,1-1.06-5.49,20.64,20.64,0,0,1-7.15,7.43A18.11,18.11,0,0,1,14.87,59.56Zm4-4.44A12.07,12.07,0,0,0,25.68,53a19.61,19.61,0,0,0,5.71-6.32V25a10.11,10.11,0,0,1-3.88,3.16Q25,29.39,22,30.67a39.25,39.25,0,0,0-5.71,3,14.36,14.36,0,0,0-4.49,4.49A13.12,13.12,0,0,0,10,45.37a10.23,10.23,0,0,0,2.39,7.09A8.24,8.24,0,0,0,18.86,55.12Z"/></g></g></svg>