<svg xmlns="http://www.w3.org/2000/svg" viewBox="0 0 222.24 146.31"><defs><style>.cls-1{fill:#606060;stroke:#000;stroke-miterlimit:10;}.cls-2{fill:#941b0c;}</style></defs><g id="Layer_2" data-name="Layer 2"><g id="Wrong_Use_Cases" data-name="Wrong Use Cases"><rect class="cls-1" x="0.5" y="0.5" width="221.24" height="145.31"/><path class="cls-2" d="M45.57,56.74a4,4,0,0,0,1.57-1c.73-.71.84-1.48.38-2s-1-.47-2,0c-1.19.6-2.16.79-2.83.1s-.55-2.11.6-3.23a4,4,0,0,1,1.53-1c.11.29.16.44.27.74a3.49,3.49,0,0,0-1.33.83c-.8.78-.72,1.49-.4,1.83s1,.34,2-.16c1.27-.61,2.14-.65,2.8.11s.66,2.06-.63,3.34a4.49,4.49,0,0,1-1.69,1.08C45.77,57.16,45.7,57,45.57,56.74Z"/><path class="cls-2" d="M56.13,40.24c1.51,2.3,2.26,3.46,3.76,5.76l-.79.55-3.8-5.73Z"/><path class="cls-2" d="M70.62,39.6l-3-6.23,1-.49c1.48.83,2.21,1.26,3.63,2.14a15.75,15.75,0,0,1,2.09,1.52l0,0a27.43,27.43,0,0,1-1.2-2.58c-.44-1.06-.67-1.6-1.11-2.67l.86-.37,2.6,6.4-.86.38c-1.37-.92-2.08-1.37-3.51-2.24-.78-.48-1.57-1-2.23-1.48l0,0c.42.77.79,1.51,1.27,2.55l1.25,2.68Z"/><path class="cls-2" d="M91.79,31.81a4.89,4.89,0,0,1-1.75.75,3.33,3.33,0,0,1-4.3-2.5,3.59,3.59,0,0,1,2.91-4.53,4.3,4.3,0,0,1,1.83-.1c0,.31,0,.46-.08.77a3.62,3.62,0,0,0-1.55.06,2.68,2.68,0,0,0-2.15,3.5,2.58,2.58,0,0,0,3.36,2,4,4,0,0,0,1.4-.62Z"/><path class="cls-2" d="M106.82,26.79c-1.13.05-1.7.08-2.83.17l.18,2.5c1.23-.1,1.84-.13,3.07-.19,0,.3,0,.46,0,.76-1.58.06-2.37.11-4,.25-.23-2.77-.34-4.15-.57-6.92,1.63-.14,2.45-.19,4.08-.27l0,.76c-1.23,0-1.85.09-3.08.18.06.88.09,1.31.16,2.19,1.14-.09,1.71-.12,2.85-.17Z"/><path class="cls-2" d="M134.43,27h0l-1.37.31c0-.28,0-.43,0-.71l1.72-.39.82.22c-.65,2.59-1,3.89-1.62,6.48l-.86-.22C133.61,30.42,133.88,29.28,134.43,27Z"/><path class="cls-2" d="M147.06,36.8a3.37,3.37,0,0,0,.71.28,2.69,2.69,0,0,0,1.59,0,2.94,2.94,0,0,0,1.57-1.22l0,0a2.19,2.19,0,0,1-1.82,0,2.09,2.09,0,0,1-1.16-2.74,2.31,2.31,0,0,1,3.21-1.17c1.39.63,1.77,2.06,1.06,3.61a4.1,4.1,0,0,1-2.4,2.31,3.83,3.83,0,0,1-2.2,0,5.46,5.46,0,0,1-.81-.3C146.89,37.21,146.94,37.08,147.06,36.8Zm1.78-3.4a1.37,1.37,0,0,0,.72,1.87,1.61,1.61,0,0,0,1.56,0,.53.53,0,0,0,.22-.26c.46-1,.4-2-.55-2.47A1.42,1.42,0,0,0,148.84,33.4Z"/><path class="cls-2" d="M167.39,42.3a4.91,4.91,0,0,0-.65-.42,2.71,2.71,0,0,0-3.43.48l0,0a2.21,2.21,0,0,1,1.89.38,2.13,2.13,0,0,1,.61,3.08,2.26,2.26,0,0,1-3.26.53,2.65,2.65,0,0,1-.59-3.82,3.72,3.72,0,0,1,2.64-1.83,4.19,4.19,0,0,1,2.53.57,6.31,6.31,0,0,1,.64.4Zm-2.39,3a1.45,1.45,0,0,0-.39-2.14A1.6,1.6,0,0,0,163,43a.7.7,0,0,0-.3.27,1.74,1.74,0,0,0,.28,2.5A1.39,1.39,0,0,0,165,45.29Z"/><path class="cls-2" d="M179.28,52.81h0c-.56-.21-.84-.32-1.39-.51l.31-.65c.7.25,1.05.39,1.75.66l.64.65c-1.83,1.9-2.75,2.85-4.59,4.74-.27-.28-.4-.42-.68-.69C176.9,55.32,177.7,54.49,179.28,52.81Z"/><g id="Fish"><path class="cls-2" d="M118,63.9c-1,.65-2.21,1.48-2.94,2a7.33,7.33,0,0,1-1.91-1.49C114.91,64.25,116.51,64.07,118,63.9Z"/><path class="cls-2" d="M105.8,65a12.13,12.13,0,0,1-2,1.54,20.42,20.42,0,0,1-2.42-1.32c.43,0,.88,0,1.31-.06Z"/><path class="cls-2" d="M115.47,54.07a2.47,2.47,0,0,1-.57.59,90.14,90.14,0,0,0-9.14-.87,39.6,39.6,0,0,1,4.58-4.74C111,50.37,112.86,53.64,115.47,54.07Z"/><path class="cls-2" d="M140.54,59.8a.38.38,0,0,1-.18-.41.42.42,0,0,1,.35-.3c1.51-.19,2.87-1.83,3.7-3.06-1.54.63-5.32,1.3-11.1,1.17a146.64,146.64,0,0,1-16-1.41L115,55.47a.32.32,0,0,1-.22,0,89,89,0,0,0-9.67-.89H105c-1,0-2,0-3,0-9.9.21-23.48,3.11-25.88,5.48,2.15,2.41,7,3.86,14.43,4.3A6.52,6.52,0,0,0,87.73,58a.39.39,0,1,1,.4-.68,7.28,7.28,0,0,1,3.27,7c2.58.14,5.46.16,8.61.06h0c.85,0,1.71-.06,2.61-.11,10-.46,16-1.28,20.45-1.87a77.53,77.53,0,0,1,9.68-.79h.53A37.11,37.11,0,0,1,146,64.5C145.15,63.25,142.52,61.15,140.54,59.8Zm-58,.59a.94.94,0,1,1,.93-.94A.94.94,0,0,1,82.5,60.39Z"/></g><path class="cls-2" d="M36,127.54a25.66,25.66,0,0,1-5.93-.66,10.65,10.65,0,0,1-4.47-2,4.37,4.37,0,0,1-1.69-3.53,4.59,4.59,0,0,1,1.66-3.55,10.81,10.81,0,0,1,4.5-2.25l.36.95a3.72,3.72,0,0,0-2.08,1.66,5.19,5.19,0,0,0-.77,2.78,4.58,4.58,0,0,0,2.52,4.18,13,13,0,0,0,6.55,1.45,20.24,20.24,0,0,0,5.21-.68A9.59,9.59,0,0,0,46,123.57a5.61,5.61,0,0,0,1.66-4.21,5.47,5.47,0,0,0-1.47-3.76c-.93-.85-2.75-1.27-5.48-1.27H36.37a22.11,22.11,0,0,1-3.68-.3,5.87,5.87,0,0,1-2.9-1.24,3.59,3.59,0,0,1-1.13-2.91A5.85,5.85,0,0,1,30.32,106a18.33,18.33,0,0,1,6.11-3.82l.71.54a27.32,27.32,0,0,0-3.5,2.16,3.16,3.16,0,0,0-1.48,2.58c0,1.26,1,1.89,2.84,1.89h7.41a14.34,14.34,0,0,1,4.59.71,7.63,7.63,0,0,1,3.41,2.25,6,6,0,0,1,1.3,4,10.21,10.21,0,0,1-1.7,5.75,12.56,12.56,0,0,1-5.3,3.94A22.38,22.38,0,0,1,36,127.54Zm.22-24.29a13.76,13.76,0,0,1-5.28-1,8,8,0,0,1-3.73-3,11.14,11.14,0,0,1,0-10.67,8,8,0,0,1,3.73-3,13.76,13.76,0,0,1,5.28-1,13.68,13.68,0,0,1,5.3,1,8,8,0,0,1,3.7,3,11.07,11.07,0,0,1,0,10.67,8,8,0,0,1-3.7,3A13.68,13.68,0,0,1,36.19,103.25Zm0-1.07a4.08,4.08,0,0,0,3.52-1.78Q41,98.63,41,93.89c0-3.16-.43-5.34-1.28-6.52a4.35,4.35,0,0,0-7,0c-.87,1.18-1.3,3.36-1.3,6.52s.43,5.33,1.3,6.51A4.12,4.12,0,0,0,36.19,102.18Zm8.53-12.74L43.65,89a8.69,8.69,0,0,1,2.85-3.56,6.85,6.85,0,0,1,4.2-1.54,3.57,3.57,0,0,1,2.49.86,3.31,3.31,0,0,1,1,2.58,3,3,0,0,1-1,2.58,3.27,3.27,0,0,1-2,.74,2.62,2.62,0,0,1-1.66-.62,2.76,2.76,0,0,1-.89-2,7.52,7.52,0,0,1,.83-3.5l.77.18a10.55,10.55,0,0,0-3.55,2A10.69,10.69,0,0,0,44.72,89.44Z"/><path class="cls-2" d="M64.69,116.28a9.11,9.11,0,0,1-4.21-.91,6.39,6.39,0,0,1-2.69-2.58,7.75,7.75,0,0,1-.92-3.85,7.05,7.05,0,0,1,1.21-4.27A9.27,9.27,0,0,1,61.19,102a24.83,24.83,0,0,1,4-1.68l4-1.31a12.2,12.2,0,0,0,3.11-1.45,2.54,2.54,0,0,0,1.22-2.19V91.69a7.87,7.87,0,0,0-.74-3.79,3.74,3.74,0,0,0-2-1.75A8.4,8.4,0,0,0,68,85.71a13.11,13.11,0,0,0-3.17.42,4.66,4.66,0,0,0-2.7,1.71,3.56,3.56,0,0,1,2.79,3.62,3,3,0,0,1-1,2.34,3.5,3.5,0,0,1-2.43.86A2.91,2.91,0,0,1,59,93.56a4.09,4.09,0,0,1-.8-2.46A3.88,3.88,0,0,1,59,88.61a9.19,9.19,0,0,1,2-1.77,12.56,12.56,0,0,1,3.52-1.63,16.05,16.05,0,0,1,4.89-.68,13.31,13.31,0,0,1,4.15.56,7.39,7.39,0,0,1,2.84,1.63,6.68,6.68,0,0,1,2,3.46,22.39,22.39,0,0,1,.47,4.89v16.47a4,4,0,0,0,.44,2.14,1.58,1.58,0,0,0,1.4.65,2.7,2.7,0,0,0,1.24-.3,8.09,8.09,0,0,0,1.42-1l.65,1a19.33,19.33,0,0,1-2.37,1.57,6.17,6.17,0,0,1-3,.62,6,6,0,0,1-2.84-.59,3.77,3.77,0,0,1-1.69-1.75,6.6,6.6,0,0,1-.56-2.93,11.07,11.07,0,0,1-3.82,4A9.75,9.75,0,0,1,64.69,116.28Zm2.13-2.37a6.48,6.48,0,0,0,3.65-1.12,10.57,10.57,0,0,0,3-3.38V97.8a5.58,5.58,0,0,1-2.08,1.69c-.91.45-1.89.9-3,1.36a21.05,21.05,0,0,0-3,1.6,7.64,7.64,0,0,0-2.4,2.4,7.06,7.06,0,0,0-1,3.85,5.47,5.47,0,0,0,1.28,3.79A4.39,4.39,0,0,0,66.82,113.91Z"/><path class="cls-2" d="M104.8,84.53a5.84,5.84,0,0,1,2.82.65,5,5,0,0,1,1.89,1.69,4.19,4.19,0,0,1,.68,2.34,4,4,0,0,1-.92,2.6,3,3,0,0,1-2.45,1.13,3.33,3.33,0,0,1-2.2-.8,2.82,2.82,0,0,1-1-2.28,3,3,0,0,1,.63-1.93,5.18,5.18,0,0,1,1.39-1.27,1.4,1.4,0,0,0-1.24-.59,5.68,5.68,0,0,0-3.38,1.09A9.56,9.56,0,0,0,98.46,90a15.75,15.75,0,0,0-1.66,3.64,12.38,12.38,0,0,0-.59,3.58v12.57c0,1.93.56,3.23,1.69,3.88a9.16,9.16,0,0,0,4.59,1v1.25l-3.85-.15c-1.66-.06-3.42-.09-5.27-.09-1.35,0-2.68,0-4,.09l-3,.15v-1.25a5.36,5.36,0,0,0,3.47-.88c.69-.6,1-1.72,1-3.38V91.81a6.65,6.65,0,0,0-.95-3.94c-.63-.85-1.82-1.27-3.56-1.27V85.35c1.27.12,2.49.18,3.68.18a24.93,24.93,0,0,0,3.29-.21,15.76,15.76,0,0,0,2.87-.62v7.41a16,16,0,0,1,1.87-3.47A11.34,11.34,0,0,1,101,85.71,6.52,6.52,0,0,1,104.8,84.53Z"/><path class="cls-2" d="M140.23,84.7v24.77a6.47,6.47,0,0,0,1,3.94c.65.85,1.83,1.27,3.53,1.27v1.25c-1.23-.12-2.45-.18-3.68-.18a29,29,0,0,0-3.29.18,12.44,12.44,0,0,0-2.87.65v-7a10.18,10.18,0,0,1-9.72,7.11,10.12,10.12,0,0,1-3.61-.59,6.84,6.84,0,0,1-2.55-1.66,6.37,6.37,0,0,1-1.54-3.08,22.25,22.25,0,0,1-.41-4.69V91.81a6.65,6.65,0,0,0-.95-3.94c-.64-.85-1.82-1.27-3.56-1.27V85.35c1.27.12,2.49.18,3.68.18a24.66,24.66,0,0,0,3.28-.21,15.69,15.69,0,0,0,2.88-.62V108a23.53,23.53,0,0,0,.23,3.38,4.36,4.36,0,0,0,1.19,2.48,4.19,4.19,0,0,0,3.08,1,6.48,6.48,0,0,0,4.12-1.42,9.58,9.58,0,0,0,2.84-3.85,13.79,13.79,0,0,0,1-5.45V91.81a6.65,6.65,0,0,0-1-3.94c-.63-.85-1.82-1.27-3.55-1.27V85.35c1.26.12,2.49.18,3.67.18a24.82,24.82,0,0,0,3.29-.21A15.76,15.76,0,0,0,140.23,84.7Z"/><path class="cls-2" d="M167.9,84.53a10,10,0,0,1,3.62.59,6.76,6.76,0,0,1,2.54,1.66,6.25,6.25,0,0,1,1.54,3.08,22,22,0,0,1,.42,4.68v15.82c0,1.66.34,2.78,1,3.38a5.33,5.33,0,0,0,3.46.88v1.25l-3.08-.15c-1.38-.06-2.72-.09-4-.09s-2.57,0-3.82.09l-2.81.15v-1.25a4.19,4.19,0,0,0,3-.88c.59-.6.89-1.72.89-3.38V93.24a22,22,0,0,0-.24-3.38,4.35,4.35,0,0,0-1.18-2.49,4.26,4.26,0,0,0-3.09-1,6.49,6.49,0,0,0-4.11,1.42,9.54,9.54,0,0,0-2.85,3.88,14,14,0,0,0-1,5.48v13.16c0,1.66.29,2.78.88,3.38a4.22,4.22,0,0,0,3,.88v1.25l-2.82-.15c-1.24-.06-2.52-.09-3.82-.09s-2.65,0-4,.09l-3.08.15v-1.25a5.38,5.38,0,0,0,3.47-.88c.69-.6,1-1.72,1-3.38V91.81a6.57,6.57,0,0,0-.95-3.94c-.63-.85-1.81-1.27-3.55-1.27V85.35c1.26.12,2.49.18,3.67.18a24.82,24.82,0,0,0,3.29-.21,15.69,15.69,0,0,0,2.88-.62v7a11,11,0,0,1,4.2-5.51A10.36,10.36,0,0,1,167.9,84.53Zm17.84,0a9.94,9.94,0,0,1,3.61.59,6.72,6.72,0,0,1,2.55,1.66,6.33,6.33,0,0,1,1.54,3.08,22.08,22.08,0,0,1,.41,4.68v15.82c0,1.66.35,2.78,1,3.38a5.36,5.36,0,0,0,3.47.88v1.25l-3.08-.15c-1.39-.06-2.73-.09-4-.09s-2.58,0-3.82.09l-2.82.15v-1.25a4.19,4.19,0,0,0,3-.88c.6-.6.89-1.72.89-3.38V93.24a22,22,0,0,0-.24-3.38,4.29,4.29,0,0,0-1.18-2.49,4.24,4.24,0,0,0-3.08-1,6.54,6.54,0,0,0-4.12,1.42,9.65,9.65,0,0,0-2.84,3.85,13.63,13.63,0,0,0-1,5.46l-.18-5.51q1.6-4.1,4.33-5.6A11.3,11.3,0,0,1,185.74,84.53Z"/></g></g></svg>