<svg xmlns="http://www.w3.org/2000/svg" viewBox="0 0 149.87 118.88"><defs><style>.cls-1,.cls-2{fill:#941b0c;}.cls-2{font-size:58.51px;font-family:Anton-Regular, Anton;letter-spacing:-0.01em;}</style></defs><g id="Layer_2" data-name="Layer 2"><g id="Wrong_Use_Cases" data-name="Wrong Use Cases"><path class="cls-1" d="M11,33.8a1.57,1.57,0,0,1-1.25-.55L9.46,33l.93-.94.32.34c.3.33.62.32,1,0a.74.74,0,0,0,.27-.49.71.71,0,0,0-.22-.51A1.19,1.19,0,0,0,11,31a3.57,3.57,0,0,0-1.2.08,4.66,4.66,0,0,1-1.6.1,1.76,1.76,0,0,1-1-.51,1.57,1.57,0,0,1-.48-1.31,2.61,2.61,0,0,1,.84-1.47A2.29,2.29,0,0,1,9,27.09a1.51,1.51,0,0,1,1.24.58l.19.22c-.39.37-.59.55-1,.93l-.24-.26a.63.63,0,0,0-.48-.25.79.79,0,0,0-.5.26.63.63,0,0,0-.06,1,1.09,1.09,0,0,0,.66.32,4.6,4.6,0,0,0,1.22-.11,4.16,4.16,0,0,1,1.59-.05,1.89,1.89,0,0,1,1,.62,1.68,1.68,0,0,1,.48,1.32,2.46,2.46,0,0,1-.79,1.4A2.21,2.21,0,0,1,11,33.8Z"/><path class="cls-1" d="M19.87,17.66,21,16.85l3.74,5.78-1.08.75Z"/><path class="cls-1" d="M32.8,9.89l1.56-.76c1.16,1.29,1.73,1.93,2.85,3.24h0l-1.64-3.8c.44-.21.67-.31,1.11-.5l2.67,6.38-1.2.54C36.81,13.39,36.12,12.6,34.7,11h0l2.08,4.6-1,.5C34.56,13.65,34,12.4,32.8,9.89Z"/><path class="cls-1" d="M51.38,9.75a1.59,1.59,0,0,1-.79-1.09l-1-3.59a1.58,1.58,0,0,1,.16-1.36,2.18,2.18,0,0,1,1.31-.82A2.08,2.08,0,0,1,52.63,3a1.53,1.53,0,0,1,.77,1.1l.17.72-1.21.3-.19-.78a.57.57,0,0,0-.8-.46.59.59,0,0,0-.49.8l1,3.76a.56.56,0,0,0,.77.45.58.58,0,0,0,.47-.78l-.25-1L54,6.74l.21,1A1.68,1.68,0,0,1,54.05,9a2,2,0,0,1-1.23.78A2,2,0,0,1,51.38,9.75Z"/><path class="cls-1" d="M65.89.3C67.35.15,68.08.09,69.54,0l.06,1c-.92.06-1.38.09-2.29.17L67.46,3c.71-.06,1.07-.09,1.79-.13l.06,1c-.71,0-1.06.07-1.77.13.07.85.11,1.28.18,2.13C68.59,6,69,6,69.89,6l.06,1c-1.36.08-2,.14-3.39.28C66.29,4.45,66.16,3.07,65.89.3Z"/><path class="cls-1" d="M98,4.15l-1.35-.32.16-.75a5.71,5.71,0,0,0,.92.13,1.2,1.2,0,0,0,.59-.13,1.45,1.45,0,0,0,.48-.43l.88.23L98,9.62l-1.22-.31C97.26,7.25,97.5,6.22,98,4.15Z"/><path class="cls-1" d="M110.85,13.64a1.73,1.73,0,0,1,0-1.39l.05-.12,1.13.48-.08.19a.61.61,0,0,0,.35.9.73.73,0,0,0,.57.05,1,1,0,0,0,.42-.54l.52-1.22h0a1.24,1.24,0,0,1-1.33.07,1.46,1.46,0,0,1-.84-.81,1.71,1.71,0,0,1,.09-1.24l.46-1.15a1.53,1.53,0,0,1,1-1,2.22,2.22,0,0,1,1.59.2A2.29,2.29,0,0,1,116,9.13a1.6,1.6,0,0,1,0,1.4l-1.46,3.26c-.48,1.1-1.31,1.36-2.5.83A2.15,2.15,0,0,1,110.85,13.64ZM114.26,11c.19-.45.29-.67.48-1.13a.61.61,0,0,0-.37-.9.59.59,0,0,0-.9.33L113,10.45a.63.63,0,0,0,.37.91A.59.59,0,0,0,114.26,11Z"/><path class="cls-1" d="M125.37,21.5a1.71,1.71,0,0,1,.25-1.38l1.87-3c.63-1,1.54-1.14,2.72-.32a2.28,2.28,0,0,1,1,1.27,1.6,1.6,0,0,1-.28,1.37l-.07.11-1.07-.76.11-.17a.64.64,0,0,0-.22-1,.79.79,0,0,0-.58-.17.9.9,0,0,0-.51.45L127.91,19l0,0a1.26,1.26,0,0,1,1.35.2,1.53,1.53,0,0,1,.7,1,1.67,1.67,0,0,1-.34,1.2l-.69,1a1.57,1.57,0,0,1-1.13.76,2.22,2.22,0,0,1-1.47-.47A2.37,2.37,0,0,1,125.37,21.5Zm2.45.21.67-1a.64.64,0,0,0-.21-1,.59.59,0,0,0-.94.18l-.66,1a.62.62,0,0,0,.21.95A.58.58,0,0,0,127.82,21.71Z"/><path class="cls-1" d="M142.94,29.64c-.42-.43-.64-.64-1.07-1.05l.52-.57a5.14,5.14,0,0,0,.76.64,1.4,1.4,0,0,0,.6.24,1.7,1.7,0,0,0,.64-.1l.7.7-4.77,4.92c-.38-.39-.57-.59-1-1Z"/><g id="Fish"><path class="cls-1" d="M82.74,40.6c-1,.65-2.2,1.47-2.93,2a7.54,7.54,0,0,1-1.9-1.49C79.7,41,81.29,40.77,82.74,40.6Z"/><path class="cls-1" d="M70.61,41.65a12.07,12.07,0,0,1-2,1.53,19.16,19.16,0,0,1-2.41-1.31c.43,0,.88,0,1.31-.07C68.6,41.76,69.62,41.71,70.61,41.65Z"/><path class="cls-1" d="M80.25,30.8a2.47,2.47,0,0,1-.57.59,89.47,89.47,0,0,0-9.12-.87,40.39,40.39,0,0,1,4.58-4.73C75.78,27.11,77.65,30.38,80.25,30.8Z"/><path class="cls-1" d="M105.24,36.52a.41.41,0,0,1-.17-.41.42.42,0,0,1,.35-.31c1.5-.19,2.86-1.82,3.69-3-1.54.63-5.31,1.3-11.07,1.17A143.23,143.23,0,0,1,82.1,32.51l-2.33-.31a.37.37,0,0,1-.23,0,91.07,91.07,0,0,0-9.64-.88h-.06c-1,0-2,0-3,0-9.87.21-23.41,3.1-25.8,5.46,2.14,2.41,7,3.85,14.38,4.29a6.48,6.48,0,0,0-2.86-6.28.39.39,0,0,1,.4-.68,7.27,7.27,0,0,1,3.26,7c2.57.14,5.44.16,8.59.06h0c.84,0,1.7-.06,2.6-.11,10-.46,16-1.28,20.38-1.87a79.18,79.18,0,0,1,9.66-.79h.53a37.07,37.07,0,0,1,12.58,2.85C109.84,40,107.22,37.86,105.24,36.52Zm-57.86.58a.94.94,0,1,1,.92-.93A.93.93,0,0,1,47.38,37.1Z"/></g></g><g id="Layer_5" data-name="Layer 5"><text class="cls-2" transform="translate(0 99.83)">garum</text></g></g></svg>