<svg xmlns="http://www.w3.org/2000/svg" viewBox="0 0 112.49 79"><defs><style>.cls-1{fill:#941b0c;}</style></defs><g id="Layer_2" data-name="Layer 2"><g id="Wrong_Use_Cases" data-name="Wrong Use Cases"><path class="cls-1" d="M4.72,18.81a1.77,1.77,0,0,0,1-.48c.37-.4.18-.89-.43-1.27a1.85,1.85,0,0,0-1.78-.14A2.88,2.88,0,0,1,1,16.78c-1-.55-1.32-1.43-.66-2.11a1.87,1.87,0,0,1,1-.57l.51.52a1.65,1.65,0,0,0-.92.47c-.45.46-.1.94.32,1.19a1.94,1.94,0,0,0,1.81,0,2.72,2.72,0,0,1,2.57.3c.92.59,1.35,1.41.7,2.12a1.93,1.93,0,0,1-1.07.56Z"/><path class="cls-1" d="M8.86,8.24c1.93,1.94,2.91,2.88,4.87,4.71l-.53.31c-2-1.81-3-2.74-4.95-4.65Z"/><path class="cls-1" d="M21.56,9.51C20,7.4,19.28,6.31,17.83,4l.8-.29c1.44.91,2.16,1.37,3.55,2.31a22.07,22.07,0,0,1,2.08,1.55h0c-.51-.73-.94-1.42-1.45-2.32S22,3.8,21.46,2.8l.72-.21C23.42,5,24.07,6.16,25.4,8.38l-.68.18c-1.35-.94-2-1.41-3.45-2.33-.77-.5-1.55-1-2.22-1.54l0,0c.5.7.95,1.37,1.56,2.29s.94,1.4,1.58,2.31Z"/><path class="cls-1" d="M38.8,6.29a3.18,3.18,0,0,1-1.45.36,3.92,3.92,0,0,1-4-2.89c-.67-2,.25-3.59,2.25-3.74a3.39,3.39,0,0,1,1.6.19c0,.29,0,.44,0,.72A3.11,3.11,0,0,0,35.85.74C34.36.85,33.67,2,34.21,3.64A3,3,0,0,0,37.3,6a2.58,2.58,0,0,0,1.16-.32Z"/><path class="cls-1" d="M51.59,4.26c-1-.14-1.48-.21-2.46-.32.09.95.13,1.42.23,2.34,1.06.13,1.59.2,2.65.37,0,.27,0,.41,0,.68-1.36-.21-2-.3-3.4-.45C48.35,4.36,48.21,3,48,.24c1.43.14,2.15.22,3.58.43,0,.3,0,.45,0,.75-1.08-.15-1.62-.22-2.7-.34.07.87.11,1.3.19,2.15,1,.11,1.48.18,2.48.32C51.56,3.84,51.57,4,51.59,4.26Z"/><path class="cls-1" d="M75.69,9.15h0l-1.21.07V8.53L76,8.44l.71.33c-.7,2.38-1.06,3.5-1.77,5.65l-.73-.33C74.8,12.19,75.1,11.21,75.69,9.15Z"/><path class="cls-1" d="M86,19.73a3.58,3.58,0,0,0,.59.34,2.54,2.54,0,0,0,1.38.23,2.48,2.48,0,0,0,1.53-.79l0,0a2,2,0,0,1-1.58-.29,1.83,1.83,0,0,1-.73-2.51,2,2,0,0,1,3-.57,2.16,2.16,0,0,1,.52,3.25A3.44,3.44,0,0,1,88.22,21a3.58,3.58,0,0,1-1.9-.34,5.54,5.54,0,0,1-.67-.36Zm1.94-2.62a1.19,1.19,0,0,0,.42,1.7,1.52,1.52,0,0,0,1.39.18.43.43,0,0,0,.22-.19c.53-.81.59-1.69-.21-2.21A1.26,1.26,0,0,0,87.91,17.11Z"/><path class="cls-1" d="M103.09,26.66a3.37,3.37,0,0,0-.51-.39,2.84,2.84,0,0,0-3.17,0l0,0a2.11,2.11,0,0,1,1.62.5,1.44,1.44,0,0,1-.1,2.39,2.34,2.34,0,0,1-3,0c-.91-.78-.84-1.92.24-2.94a3.75,3.75,0,0,1,4.88-.42,4.82,4.82,0,0,1,.5.38Zm-2.77,2a1,1,0,0,0,.1-1.66A1.58,1.58,0,0,0,99,26.74a.72.72,0,0,0-.33.18c-.68.63-.86,1.38-.25,1.91A1.44,1.44,0,0,0,100.32,28.68Z"/><path class="cls-1" d="M111.33,35.36h0l-1.13-.46.48-.42c.57.22.86.34,1.43.58l.4.49c-2.27,1.2-3.4,1.77-5.61,2.88l-.4-.51C108.39,36.92,109.37,36.41,111.33,35.36Z"/><g id="Fish"><path class="cls-1" d="M61.29,34.13c-.71.22-1.49.52-2,.71A8.79,8.79,0,0,1,58,33.57C59.2,33.8,60.29,34,61.29,34.13Z"/><path class="cls-1" d="M53.06,32.58a4.47,4.47,0,0,1-1.18.59c-.17-.07-.93-.63-1.78-1.25l.89.2Z"/><path class="cls-1" d="M59.37,27.34a1.18,1.18,0,0,1-.41.29c-2.25-.81-4.49-1.58-6.87-2.21A17.43,17.43,0,0,1,55.3,23C55.86,24,57.42,26.59,59.37,27.34Z"/><path class="cls-1" d="M77.63,35.4a.24.24,0,0,1-.07-.29.29.29,0,0,1,.3-.14,5.09,5.09,0,0,0,3.28-1.45,26.35,26.35,0,0,1-8.6-1,115.72,115.72,0,0,1-11.77-3.71L59,28.18a.27.27,0,0,1-.17-.06c-2.36-.85-4.71-1.65-7.21-2.31h0q-1.09-.3-2.22-.54c-7.35-1.62-17.15-1.89-18.34-.77,2.28,1.84,6.21,3.46,11.49,5,0-1.17-1.56-3.36-3.28-4.44-.17-.1-.26-.27-.21-.37s.21-.1.38,0c2,1.23,3.6,3.6,3.68,5,1.82.53,3.81,1,6,1.55h0l1.77.39c6.76,1.49,10.89,2.11,14,2.51,2.34.31,5,.73,6.9,1.18l.38.09a33.06,33.06,0,0,1,8.76,3.85A15.62,15.62,0,0,0,77.63,35.4ZM35.89,25.72A1.4,1.4,0,0,1,35,25c-.12-.33.09-.53.49-.45a1.32,1.32,0,0,1,.9.75C36.48,25.6,36.27,25.8,35.89,25.72Z"/></g><path class="cls-1" d="M21.91,67.17a24.57,24.57,0,0,1-5.15-.88,12.2,12.2,0,0,1-4.28-2.07,4.87,4.87,0,0,1-2-3.29,3.46,3.46,0,0,1,1.08-3.13A7.9,7.9,0,0,1,15.31,56l.51.8a2.41,2.41,0,0,0-1.55,1.36A4.29,4.29,0,0,0,14,60.59a5.42,5.42,0,0,0,2.71,3.94,12.27,12.27,0,0,0,5.7,1.68,12.92,12.92,0,0,0,4-.34A4.9,4.9,0,0,0,29.28,64a4.61,4.61,0,0,0,.57-3.67A6.82,6.82,0,0,0,28.13,57a7,7,0,0,0-4.28-1.48c-1.33-.12-2-.18-3.44-.27a24.73,24.73,0,0,1-3.12-.41,8,8,0,0,1-2.84-1.1,4.47,4.47,0,0,1-1.8-2.29,3,3,0,0,1,.27-2.86,8.17,8.17,0,0,1,3.87-2.47l.77.41a11.29,11.29,0,0,0-2.14,1.37A1.42,1.42,0,0,0,15,49.73c.4.94,1.41,1.45,3,1.54,2.46.14,3.62.23,5.83.46a11.36,11.36,0,0,1,3.52.92,8.65,8.65,0,0,1,2.9,2.08A7.49,7.49,0,0,1,32,58.16,8.63,8.63,0,0,1,31.8,63a6.34,6.34,0,0,1-3.24,3.24A13.39,13.39,0,0,1,21.91,67.17ZM17,46.87A20.49,20.49,0,0,1,12.13,46a16.78,16.78,0,0,1-4.56-2.17A13.43,13.43,0,0,1,4,40.29c-1-1.38-1.37-2.47-1.17-3.3a2.59,2.59,0,0,1,2-1.76,12.33,12.33,0,0,1,4.23-.38,20,20,0,0,1,4.92.9,15.36,15.36,0,0,1,4.29,2.13,11.84,11.84,0,0,1,3.23,3.45,5,5,0,0,1,1,3.38,2.36,2.36,0,0,1-1.7,1.8A10.06,10.06,0,0,1,17,46.87Zm-.39-.75c1.24.08,2-.26,2.2-1s-.25-2.19-1.56-4.2a13.37,13.37,0,0,0-3.85-4.14,8,8,0,0,0-3.8-1.27c-1.26-.07-2,.24-2.23.92s.41,2,1.79,4A17.23,17.23,0,0,0,13,44.74,7.1,7.1,0,0,0,16.59,46.12Zm1.72-7.73-1-.34A1.93,1.93,0,0,1,18,36.12a3.26,3.26,0,0,1,2.57-.54,5.78,5.78,0,0,1,2.21.77A5.12,5.12,0,0,1,24.49,38c.48.75.58,1.24.31,1.48a1.37,1.37,0,0,1-1.13.26,4.37,4.37,0,0,1-1.46-.55,5.05,5.05,0,0,1-1.48-1.31,4.35,4.35,0,0,1-.83-2l.66.18a3.29,3.29,0,0,0-1.88.87A2.51,2.51,0,0,0,18.31,38.39Z"/><path class="cls-1" d="M39.57,59.72a6.47,6.47,0,0,1-2.49-1.34A10.46,10.46,0,0,1,35,55.94a14.58,14.58,0,0,1-1.48-3.11,5.51,5.51,0,0,1-.41-3,2.27,2.27,0,0,1,1.12-1.5,6.09,6.09,0,0,1,1.89-.62L38,47.4a2.87,2.87,0,0,0,1.35-.51q.45-.36.09-1.26c-.39-1-.6-1.43-1-2.36a9.45,9.45,0,0,0-1.53-2.48,6.24,6.24,0,0,0-1.76-1.37,8.59,8.59,0,0,0-1.9-.67,8.34,8.34,0,0,0-1.92-.19c-.64,0-1,.25-1.18.69a6,6,0,0,1,1.69,1,5.2,5.2,0,0,1,1.34,1.63c.32.62.38,1.08.17,1.36s-.62.36-1.25.23a4.31,4.31,0,0,1-2-1,6.8,6.8,0,0,1-1.4-1.66,2,2,0,0,1-.39-1.45,1.81,1.81,0,0,1,.68-.84A3.79,3.79,0,0,1,30.81,38a9.32,9.32,0,0,1,3,.27,12.2,12.2,0,0,1,2.79,1,10.22,10.22,0,0,1,2.19,1.43,9.9,9.9,0,0,1,2.1,2.47,20.89,20.89,0,0,1,1.49,3.2,69.58,69.58,0,0,1,3.4,11.76,7.9,7.9,0,0,0,.54,1.79,1.48,1.48,0,0,0,.72.77.54.54,0,0,0,.5,0,2.08,2.08,0,0,0,.49-.52l.42.93a4.73,4.73,0,0,1-.82.88c-.27.22-.68.22-1.24,0a3.56,3.56,0,0,1-1.38-1,6.75,6.75,0,0,1-1.07-1.72,14.16,14.16,0,0,1-.79-2.43,4.09,4.09,0,0,1-1.18,2.6A2.5,2.5,0,0,1,39.57,59.72Zm.7-1.66a1.58,1.58,0,0,0,1.66-.37,3.92,3.92,0,0,0,.87-2.17,60.94,60.94,0,0,0-2.68-8.28,1.13,1.13,0,0,1-.7.81,10,10,0,0,1-1.29.49,4.48,4.48,0,0,0-1.3.68,2.06,2.06,0,0,0-.73,1.37,6.33,6.33,0,0,0,.44,2.72,10.29,10.29,0,0,0,1.58,3.12A4.18,4.18,0,0,0,40.27,58.06Z"/><path class="cls-1" d="M54.3,44.28a4.57,4.57,0,0,1,1.57.93A5.12,5.12,0,0,1,57,46.61a4.14,4.14,0,0,1,.5,1.6,2.24,2.24,0,0,1-.31,1.48.83.83,0,0,1-1.12.26A2.67,2.67,0,0,1,54.92,49a3.52,3.52,0,0,1-.69-1.63,1.6,1.6,0,0,1,.13-1.09,1.31,1.31,0,0,1,.61-.54,1.42,1.42,0,0,0-.71-.6,2,2,0,0,0-1.67.05,2.3,2.3,0,0,0-1,1.28,6.29,6.29,0,0,0-.34,2,10,10,0,0,0,.2,2.25c.68,3.36,1,5.13,1.5,9a8.53,8.53,0,0,0,1,3.41,4.83,4.83,0,0,0,1.81,1.68c0,.41,0,.62.07,1-.34-.21-.81-.5-1.44-.87s-1.3-.72-2-1.07c-.52-.25-1-.47-1.57-.67l-1.19-.42-.15-1c.67.29,1.11.26,1.32-.1a4.46,4.46,0,0,0,0-2.5,91.11,91.11,0,0,0-2.85-13,7.35,7.35,0,0,0-1.23-2.65,4.5,4.5,0,0,0-2.22-1.41l-.27-.76c.74.29,1.44.54,2.11.75a14.79,14.79,0,0,0,1.79.46,6.75,6.75,0,0,0,1.48.14c.46,1.82.68,2.73,1.11,4.63a5.31,5.31,0,0,1,.47-1.85,2.62,2.62,0,0,1,1.17-1.28A2.39,2.39,0,0,1,54.3,44.28Z"/><path class="cls-1" d="M73.88,50.83a152,152,0,0,0-3.1,17,9.37,9.37,0,0,0,0,3.32,2.24,2.24,0,0,0,1.46,1.65c-.05.42-.07.63-.12,1a13,13,0,0,0-1.61-.77,8.09,8.09,0,0,0-1.42-.43,2.65,2.65,0,0,0-1.23,0c.18-2.39.28-3.53.5-5.71a7.92,7.92,0,0,1-2.08,3.67,2,2,0,0,1-2.21.33,3.68,3.68,0,0,1-1.33-1.2,7.32,7.32,0,0,1-.92-1.88,13.07,13.07,0,0,1-.57-2.79,36.23,36.23,0,0,1-.17-3.69C61.1,57,61.07,55,61,51.17a6,6,0,0,0-.54-2.69A3.22,3.22,0,0,0,58.58,47l0-.77c.68.31,1.33.57,2,.79a12.14,12.14,0,0,0,1.77.49,7.33,7.33,0,0,0,1.56.15c-.22,5.77-.33,8.69-.54,15.78,0,.94,0,1.83,0,2.68a7.74,7.74,0,0,0,.39,2.24,2.31,2.31,0,0,0,1.16,1.37,1.36,1.36,0,0,0,1.69-.41A7.22,7.22,0,0,0,68,66.79a17,17,0,0,0,.9-3.92c.43-3.59.67-5.23,1.17-8.43a5.14,5.14,0,0,0-.11-2.69,2.7,2.7,0,0,0-1.84-1.43l.1-.78a20.43,20.43,0,0,0,2,.76,14,14,0,0,0,1.9.44A8.78,8.78,0,0,0,73.88,50.83Z"/><path class="cls-1" d="M91.92,54.61a7.64,7.64,0,0,1,2.49.75,3.38,3.38,0,0,1,1.41,1.3,2.92,2.92,0,0,1,.2,2.12,16.4,16.4,0,0,1-1.12,3.14,62.8,62.8,0,0,0-4.08,11.5,3.58,3.58,0,0,0,.07,2.83,3.1,3.1,0,0,0,2.37,1c-.09.42-.13.63-.21,1L90.82,78c-1-.17-1.9-.31-2.78-.44s-1.72-.23-2.52-.32L83.75,77c.07-.42.11-.63.19-1a2.28,2.28,0,0,0,2-.4,5.3,5.3,0,0,0,1.21-2.64,67.92,67.92,0,0,1,4.2-12.37,17.76,17.76,0,0,0,.81-2.24,2.19,2.19,0,0,0-.13-1.73,2.58,2.58,0,0,0-1.93-.94,5.74,5.74,0,0,0-3.23.41,7.71,7.71,0,0,0-2.83,2.15,10,10,0,0,0-1.9,3.54,81.86,81.86,0,0,0-2.54,9.66,5.31,5.31,0,0,0,0,2.85,2,2,0,0,0,1.57,1.14c-.08.42-.11.63-.19,1.05l-1.55-.5c-.67-.22-1.35-.42-2-.61S76,75,75.35,74.79l-1.5-.36c.05-.42.08-.63.14-1.05a1.73,1.73,0,0,0,1.8-.19,4.94,4.94,0,0,0,1-2.57,93.88,93.88,0,0,1,3.33-13.26,4.52,4.52,0,0,0,.23-2.68c-.21-.64-.87-1.08-1.92-1.35.09-.32.14-.47.23-.79a22.21,22.21,0,0,0,2.26.67,14.77,14.77,0,0,0,2.15.34,11.58,11.58,0,0,0,2,0c-.69,1.76-1,2.65-1.68,4.48a8.87,8.87,0,0,1,4.14-3A9.73,9.73,0,0,1,91.92,54.61Zm14.15,1.45a10.27,10.27,0,0,1,3,.53,3.54,3.54,0,0,1,1.69,1.15,2.27,2.27,0,0,1,.28,2,15.81,15.81,0,0,1-1.27,3.12,51.66,51.66,0,0,0-4.58,11.53c-.37,1.31-.28,2.25.25,2.75s1.54.77,3.12.78c-.09.41-.13.62-.21,1l-2.91-.15c-1.27-.07-2.48-.13-3.62-.17s-2.23-.07-3.27-.08l-2.31,0c.08-.42.13-.63.22-1A3.83,3.83,0,0,0,99,77a5.14,5.14,0,0,0,1.44-2.7,56.18,56.18,0,0,1,4.93-12.41,16,16,0,0,0,1-2.24,1.73,1.73,0,0,0-.14-1.66,3.18,3.18,0,0,0-2.31-.77,8.53,8.53,0,0,0-3.88.65,10.83,10.83,0,0,0-5.9,5.87c.58-1.52.88-2.26,1.51-3.72a11.64,11.64,0,0,1,5.22-3.29A15.47,15.47,0,0,1,106.07,56.06Z"/></g></g></svg>