<svg xmlns="http://www.w3.org/2000/svg" viewBox="0 0 254.95 152.61"><defs><style>.cls-1{fill:#941b0c;}</style></defs><g id="Layer_2" data-name="Layer 2"><g id="Minimum_Size" data-name="Minimum Size"><path class="cls-1" d="M17.66,152.61a38.24,38.24,0,0,1-8.66-1,15.76,15.76,0,0,1-6.53-3A6.37,6.37,0,0,1,0,143.52a6.73,6.73,0,0,1,2.42-5.19A16,16,0,0,1,9,135l.52,1.38a5.43,5.43,0,0,0-3,2.43,7.55,7.55,0,0,0-1.12,4.07A6.68,6.68,0,0,0,9.05,149a19,19,0,0,0,9.56,2.12,29.08,29.08,0,0,0,7.62-1,13.79,13.79,0,0,0,6.15-3.33,8.14,8.14,0,0,0,2.42-6.15,8,8,0,0,0-2.14-5.49c-1.36-1.24-4-1.86-8-1.86h-6.4a32.44,32.44,0,0,1-5.37-.43,8.58,8.58,0,0,1-4.24-1.82A5.22,5.22,0,0,1,7,126.82a8.47,8.47,0,0,1,2.43-5.67q2.41-2.73,8.91-5.59l1,.78a42.12,42.12,0,0,0-5.11,3.16,4.64,4.64,0,0,0-2.16,3.77c0,1.85,1.38,2.77,4.16,2.77H27.08a20.93,20.93,0,0,1,6.71,1,10.94,10.94,0,0,1,5,3.29,8.85,8.85,0,0,1,1.9,5.89,14.87,14.87,0,0,1-2.49,8.39,18.16,18.16,0,0,1-7.75,5.75A32.31,32.31,0,0,1,17.66,152.61ZM18,117.12a19.91,19.91,0,0,1-7.71-1.43,11.57,11.57,0,0,1-5.45-4.46,13.88,13.88,0,0,1-2-7.79,13.92,13.92,0,0,1,2-7.79,11.63,11.63,0,0,1,5.45-4.46A20.09,20.09,0,0,1,18,89.76a20,20,0,0,1,7.75,1.43,11.78,11.78,0,0,1,5.41,4.46,14,14,0,0,1,2,7.79,14,14,0,0,1-2,7.79,11.72,11.72,0,0,1-5.41,4.46A19.86,19.86,0,0,1,18,117.12Zm0-1.56A6,6,0,0,0,23.14,113c1.24-1.74,1.86-4.91,1.86-9.53s-.62-7.79-1.86-9.52A6,6,0,0,0,18,91.32a6,6,0,0,0-5.11,2.6C11.61,95.65,11,98.83,11,103.44s.64,7.79,1.91,9.53A6,6,0,0,0,18,115.56ZM30.45,97l-1.55-.61a12.54,12.54,0,0,1,4.15-5.19A10,10,0,0,1,39.2,88.9a5.21,5.21,0,0,1,3.63,1.25,4.83,4.83,0,0,1,1.39,3.77,4.47,4.47,0,0,1-1.43,3.77,4.77,4.77,0,0,1-2.9,1.08,3.82,3.82,0,0,1-2.42-.91,4,4,0,0,1-1.3-2.9,10.91,10.91,0,0,1,1.21-5.11l1.13.26a15.45,15.45,0,0,0-5.2,2.9A16,16,0,0,0,30.45,97Z"/><path class="cls-1" d="M59.63,136.17a13.31,13.31,0,0,1-6.15-1.34,9.26,9.26,0,0,1-3.94-3.77,11.46,11.46,0,0,1-1.34-5.63A10.24,10.24,0,0,1,50,119.2a13.43,13.43,0,0,1,4.54-3.9,36.11,36.11,0,0,1,5.85-2.46l5.84-1.91a17.89,17.89,0,0,0,4.55-2.12,3.71,3.71,0,0,0,1.77-3.2v-5.37a11.44,11.44,0,0,0-1.08-5.54,5.44,5.44,0,0,0-2.9-2.56,12.11,12.11,0,0,0-4.07-.65,19.66,19.66,0,0,0-4.63.61,6.9,6.9,0,0,0-3.94,2.51A5.18,5.18,0,0,1,60,99.89a4.35,4.35,0,0,1-1.39,3.42A5.07,5.07,0,0,1,55,104.57a4.25,4.25,0,0,1-3.68-1.6,6,6,0,0,1-1.17-3.6,5.57,5.57,0,0,1,1.13-3.63,13.7,13.7,0,0,1,2.86-2.6,18.89,18.89,0,0,1,5.15-2.38,23.82,23.82,0,0,1,7.14-1,19.5,19.5,0,0,1,6.06.83A10.85,10.85,0,0,1,76.69,93,9.69,9.69,0,0,1,79.63,98a32.1,32.1,0,0,1,.69,7.14v24.07a5.71,5.71,0,0,0,.65,3.12,2.29,2.29,0,0,0,2,.95,4,4,0,0,0,1.82-.43,13.06,13.06,0,0,0,2.07-1.39l1,1.48a29.87,29.87,0,0,1-3.47,2.29,9.07,9.07,0,0,1-4.41.91,8.85,8.85,0,0,1-4.16-.87,5.5,5.5,0,0,1-2.47-2.55,9.91,9.91,0,0,1-.82-4.29A16.19,16.19,0,0,1,67,134.27,14.22,14.22,0,0,1,59.63,136.17Zm3.12-3.46a9.38,9.38,0,0,0,5.32-1.65,15.22,15.22,0,0,0,4.46-4.93v-17a7.89,7.89,0,0,1-3,2.46c-1.33.67-2.77,1.33-4.33,2A31.46,31.46,0,0,0,60.71,116a11.38,11.38,0,0,0-3.5,3.51,10.23,10.23,0,0,0-1.39,5.63,8,8,0,0,0,1.86,5.54A6.48,6.48,0,0,0,62.75,132.71Z"/><path class="cls-1" d="M118.24,89.76a8.56,8.56,0,0,1,4.12,1,7.46,7.46,0,0,1,2.77,2.46,6.11,6.11,0,0,1,1,3.42,5.8,5.8,0,0,1-1.34,3.81,4.38,4.38,0,0,1-3.59,1.65,4.85,4.85,0,0,1-3.21-1.17,4.12,4.12,0,0,1-1.38-3.33,4.44,4.44,0,0,1,.91-2.82,7.55,7.55,0,0,1,2-1.86,2.07,2.07,0,0,0-1.82-.87,8.33,8.33,0,0,0-4.93,1.61A14.06,14.06,0,0,0,109,97.73a22.39,22.39,0,0,0-2.42,5.32,17.87,17.87,0,0,0-.87,5.24v18.36q0,4.23,2.47,5.67a13.41,13.41,0,0,0,6.71,1.43v1.81c-1.33-.05-3.21-.13-5.63-.21s-5-.13-7.71-.13c-2,0-3.91,0-5.84.13s-3.39.16-4.37.21v-1.81c2.36,0,4.05-.44,5.06-1.3s1.52-2.51,1.52-4.94v-27.1q0-3.89-1.39-5.75t-5.19-1.87V91c1.84.17,3.63.26,5.37.26a35.31,35.31,0,0,0,4.8-.31,23.67,23.67,0,0,0,4.2-.91v10.83a22.92,22.92,0,0,1,2.73-5.07,16.94,16.94,0,0,1,4.28-4.29A9.59,9.59,0,0,1,118.24,89.76Z"/><path class="cls-1" d="M170,90v36.19c0,2.6.47,4.52,1.43,5.76s2.66,1.86,5.15,1.86v1.82c-1.79-.17-3.58-.26-5.37-.26a43.5,43.5,0,0,0-4.81.26,18,18,0,0,0-4.19.95V126.39q-2.17,5.62-6.11,8a15.52,15.52,0,0,1-8.09,2.38,14.66,14.66,0,0,1-5.29-.87,9.93,9.93,0,0,1-3.72-2.42,9.22,9.22,0,0,1-2.25-4.51,32.87,32.87,0,0,1-.6-6.84V100.41c0-2.59-.47-4.51-1.39-5.75s-2.66-1.87-5.19-1.87V91c1.84.17,3.63.26,5.36.26a35.35,35.35,0,0,0,4.81-.31A23.67,23.67,0,0,0,144,90v34a32.63,32.63,0,0,0,.34,4.93,6.33,6.33,0,0,0,1.73,3.64c.93.92,2.43,1.39,4.51,1.39a9.48,9.48,0,0,0,6-2.08,14,14,0,0,0,4.16-5.63,20.12,20.12,0,0,0,1.52-8V100.41c0-2.59-.47-4.51-1.39-5.75s-2.66-1.87-5.19-1.87V91c1.84.17,3.63.26,5.36.26a35.35,35.35,0,0,0,4.81-.31A23.67,23.67,0,0,0,170,90Z"/><path class="cls-1" d="M210.45,89.76a14.61,14.61,0,0,1,5.28.87,9.93,9.93,0,0,1,3.72,2.42,9.22,9.22,0,0,1,2.25,4.51,32.13,32.13,0,0,1,.61,6.84v23.11c0,2.43.5,4.07,1.52,4.94s2.69,1.3,5.06,1.3v1.81c-1-.05-2.48-.13-4.5-.21s-4-.13-5.89-.13-3.76,0-5.58.13-3.19.16-4.12.21v-1.81c2.08,0,3.55-.44,4.42-1.3s1.3-2.51,1.3-4.94v-25a32.57,32.57,0,0,0-.35-4.93,6.36,6.36,0,0,0-1.73-3.64c-.92-.92-2.42-1.39-4.5-1.39a9.51,9.51,0,0,0-6,2.08,13.88,13.88,0,0,0-4.15,5.67,20.28,20.28,0,0,0-1.52,8v19.22c0,2.43.43,4.07,1.3,4.94s2.34,1.3,4.41,1.3v1.81c-.92-.05-2.29-.13-4.11-.21s-3.68-.13-5.58-.13-3.87,0-5.89.13-3.52.16-4.5.21v-1.81c2.36,0,4.05-.44,5.06-1.3s1.52-2.51,1.52-4.94v-27.1q0-3.89-1.39-5.75t-5.19-1.87V91c1.84.17,3.63.26,5.37.26a35.31,35.31,0,0,0,4.8-.31,23.67,23.67,0,0,0,4.2-.91v10.22q2.25-5.62,6.15-8A15,15,0,0,1,210.45,89.76Zm26.06,0a14.61,14.61,0,0,1,5.28.87,9.93,9.93,0,0,1,3.72,2.42,9.22,9.22,0,0,1,2.25,4.51,32.13,32.13,0,0,1,.61,6.84v23.11c0,2.43.5,4.07,1.52,4.94s2.69,1.3,5.06,1.3v1.81c-1-.05-2.48-.13-4.5-.21s-4-.13-5.89-.13-3.76,0-5.58.13-3.19.16-4.12.21v-1.81c2.08,0,3.55-.44,4.42-1.3s1.3-2.51,1.3-4.94v-25a32.57,32.57,0,0,0-.35-4.93,6.36,6.36,0,0,0-1.73-3.64c-.92-.92-2.42-1.39-4.5-1.39a9.51,9.51,0,0,0-6,2.08,13.87,13.87,0,0,0-4.15,5.63,19.94,19.94,0,0,0-1.52,8l-.26-8.06q2.34-6,6.32-8.18A16.65,16.65,0,0,1,236.51,89.76Z"/><path class="cls-1" d="M31.33,49.16a5.91,5.91,0,0,0,2.3-1.39c1.06-1.05,1.23-2.17.55-2.92s-1.45-.69-2.89,0c-1.73.87-3.16,1.15-4.13.14s-.8-3.08.87-4.72a5.87,5.87,0,0,1,2.24-1.46c.16.43.24.64.39,1.08a5.07,5.07,0,0,0-1.95,1.21c-1.16,1.14-1,2.18-.57,2.68.64.68,1.47.49,3-.24,1.85-.89,3.12-.94,4.08.16s1,3-.91,4.88a6.61,6.61,0,0,1-2.47,1.58C31.63,49.78,31.53,49.58,31.33,49.16Z"/><path class="cls-1" d="M46.77,25.05l5.49,8.42-1.15.81-5.56-8.37C46,25.56,46.28,25.39,46.77,25.05Z"/><path class="cls-1" d="M67.94,24.12c-1.74-3.64-2.6-5.47-4.34-9.11L65,14.29c2.17,1.22,3.23,1.84,5.31,3.13a23,23,0,0,1,3,2.23l0,0a40.89,40.89,0,0,1-1.74-3.77L70,12l1.26-.55,3.8,9.36-1.25.55c-2-1.34-3-2-5.13-3.27a36.37,36.37,0,0,1-3.27-2.17l0,0c.62,1.12,1.16,2.2,1.86,3.73l1.82,3.91Z"/><path class="cls-1" d="M98.88,12.74a7.32,7.32,0,0,1-2.57,1.09c-2.84.68-5.42-.44-6.28-3.65s.9-5.81,4.26-6.62A6,6,0,0,1,97,3.42c0,.44-.07.67-.12,1.11a5.54,5.54,0,0,0-2.26.09,3.92,3.92,0,0,0-3.14,5.12,3.76,3.76,0,0,0,4.9,2.95,5.72,5.72,0,0,0,2-.91C98.59,12.17,98.68,12.36,98.88,12.74Z"/><path class="cls-1" d="M120.83,5.4c-1.65.07-2.48.12-4.13.25.11,1.46.16,2.19.26,3.65,1.8-.14,2.7-.19,4.49-.27l0,1.1c-2.32.1-3.47.17-5.78.37-.33-4-.5-6.07-.83-10.11,2.38-.21,3.57-.28,6-.39l0,1.1c-1.8.08-2.7.13-4.5.27.09,1.28.14,1.92.23,3.2,1.67-.13,2.5-.18,4.17-.26Z"/><path class="cls-1" d="M161.17,5.72h0l-2,.45-.05-1c1-.24,1.51-.35,2.52-.56l1.2.31c-.95,3.79-1.42,5.69-2.37,9.48L159.19,14Z"/><path class="cls-1" d="M179.63,20a5.22,5.22,0,0,0,1,.41,3.91,3.91,0,0,0,2.32,0,4.22,4.22,0,0,0,2.3-1.78l0,0a3.16,3.16,0,0,1-2.65-.08,3.05,3.05,0,0,1-1.7-4,3.37,3.37,0,0,1,4.69-1.71c2,.93,2.59,3,1.54,5.28a6,6,0,0,1-3.5,3.38,5.61,5.61,0,0,1-3.22-.05,7.26,7.26,0,0,1-1.18-.44Zm2.6-5a2,2,0,0,0,1.05,2.74,2.38,2.38,0,0,0,2.29-.05.79.79,0,0,0,.31-.39c.68-1.51.59-3-.8-3.61A2.1,2.1,0,0,0,182.23,15.05Z"/><path class="cls-1" d="M209.34,28.07a5.59,5.59,0,0,0-1-.62,3.94,3.94,0,0,0-5,.71l0,0a3.24,3.24,0,0,1,2.77.56,3.11,3.11,0,0,1,.88,4.5,3.3,3.3,0,0,1-4.76.78c-1.82-1.29-2.19-3.45-.86-5.59a5.48,5.48,0,0,1,3.85-2.68,6.25,6.25,0,0,1,3.71.84,9.87,9.87,0,0,1,.93.59Zm-3.49,4.37a2.13,2.13,0,0,0-.58-3.14,2.31,2.31,0,0,0-2.37-.18.92.92,0,0,0-.44.4c-.84,1.34-.81,2.79.41,3.65A2,2,0,0,0,205.85,32.44Z"/><path class="cls-1" d="M226.72,43.43l0,0-2-.74c.19-.38.28-.57.46-.95,1,.37,1.54.57,2.56,1l.94,1-6.71,6.92c-.39-.41-.59-.61-1-1Z"/><g id="Fish"><path class="cls-1" d="M137.52,59.63c-1.52.95-3.23,2.15-4.31,2.92a11.15,11.15,0,0,1-2.78-2.18C133.05,60.14,135.39,59.88,137.52,59.63Z"/><path class="cls-1" d="M119.74,61.16a18.3,18.3,0,0,1-2.9,2.25,29.61,29.61,0,0,1-3.54-1.93c.64,0,1.29,0,1.92-.09C116.79,61.32,118.29,61.25,119.74,61.16Z"/><path class="cls-1" d="M133.87,45.27a3.57,3.57,0,0,1-.84.85,131.18,131.18,0,0,0-13.36-1.27c1.24-1.81,4.45-4.81,6.7-6.92C127.31,39.85,130.06,44.64,133.87,45.27Z"/><path class="cls-1" d="M170.49,53.64a.59.59,0,0,1-.26-.6.61.61,0,0,1,.52-.44c2.2-.28,4.19-2.67,5.4-4.48-2.24.93-7.77,1.9-16.21,1.72a211.63,211.63,0,0,1-23.37-2.07l-3.42-.46a.5.5,0,0,1-.32-.05A132.13,132.13,0,0,0,118.69,46h-.09c-1.43,0-2.88,0-4.35,0-14.46.3-34.3,4.55-37.81,8,3.14,3.53,10.2,5.64,21.08,6.29.75-3-1.26-7.52-4.19-9.21a.57.57,0,0,1-.21-.79.59.59,0,0,1,.8-.21c3.32,1.93,5.52,6.8,4.77,10.28,3.77.21,8,.23,12.59.09h.07c1.24,0,2.5-.09,3.81-.16,14.6-.67,23.42-1.88,29.88-2.74a113.65,113.65,0,0,1,14.15-1.16H160a54.49,54.49,0,0,1,18.44,4.18C177.23,58.67,173.39,55.61,170.49,53.64Zm-84.8.86a1.37,1.37,0,1,1,1.36-1.37A1.38,1.38,0,0,1,85.69,54.5Z"/></g></g></g></svg>