<svg xmlns="http://www.w3.org/2000/svg" viewBox="0 0 255.37 74.82"><defs><style>.cls-1{fill:#941b0c;}.cls-2,.cls-6{fill:none;stroke-miterlimit:10;stroke-width:0.25px;}.cls-2{stroke:#000;}.cls-3{font-size:20.05px;font-family:PublicSans-ExtraLight, Public Sans;font-weight:200;}.cls-4{letter-spacing:-0.02em;}.cls-5{letter-spacing:-0.01em;}.cls-6{stroke:#941b0c;}</style></defs><g id="Layer_2" data-name="Layer 2"><g id="Minimum_Size" data-name="Minimum Size"><g id="Fish"><path class="cls-1" d="M62.83,62.83c-1.56,1-3.31,2.22-4.42,3a11.41,11.41,0,0,1-2.86-2.23C58.25,63.36,60.65,63.1,62.83,62.83Z"/><path class="cls-1" d="M44.58,64.41a19,19,0,0,1-3,2.31,30.63,30.63,0,0,1-3.63-2c.65,0,1.32,0,2-.1C41.55,64.57,43.09,64.5,44.58,64.41Z"/><path class="cls-1" d="M59.09,48.09a3.83,3.83,0,0,1-.87.88,134.92,134.92,0,0,0-13.71-1.31c1.27-1.86,4.57-4.94,6.88-7.11C52.35,42.53,55.17,47.45,59.09,48.09Z"/><path class="cls-1" d="M96.69,56.69a.6.6,0,0,1-.27-.62.62.62,0,0,1,.53-.45c2.26-.29,4.3-2.74,5.55-4.6-2.31.95-8,1.95-16.65,1.76a215,215,0,0,1-24-2.12l-3.51-.47a.56.56,0,0,1-.34,0,136,136,0,0,0-14.5-1.33h-.1c-1.47-.05-2.95-.05-4.47,0C24.1,49.09,3.73,53.45.13,57c3.21,3.62,10.47,5.79,21.64,6.45.77-3.07-1.3-7.71-4.3-9.45a.59.59,0,0,1-.22-.81.6.6,0,0,1,.82-.22c3.41,2,5.67,7,4.9,10.55,3.87.22,8.19.24,12.92.1H36c1.28,0,2.57-.1,3.92-.17,15-.69,24-1.93,30.67-2.81a116.51,116.51,0,0,1,14.53-1.19h.79c7.74.12,16.1,3,18.94,4.29C103.61,61.86,99.67,58.71,96.69,56.69Zm-87.07.88a1.41,1.41,0,1,1,0-2.81,1.41,1.41,0,0,1,0,2.81Z"/></g><path class="cls-1" d="M129.2,74.7a20,20,0,0,1-4.6-.51,8.39,8.39,0,0,1-3.47-1.58,3.4,3.4,0,0,1-1.31-2.74,3.57,3.57,0,0,1,1.28-2.76,8.52,8.52,0,0,1,3.5-1.75l.27.74a2.81,2.81,0,0,0-1.6,1.29,4,4,0,0,0-.6,2.16,3.55,3.55,0,0,0,2,3.24,10.11,10.11,0,0,0,5.08,1.13,15.74,15.74,0,0,0,4.05-.53A7.5,7.5,0,0,0,137,71.62a4.37,4.37,0,0,0,1.28-3.27,4.24,4.24,0,0,0-1.13-2.92c-.73-.65-2.14-1-4.26-1h-3.4a17.68,17.68,0,0,1-2.85-.23,4.72,4.72,0,0,1-2.26-1,2.78,2.78,0,0,1-.87-2.25,4.51,4.51,0,0,1,1.29-3,14.12,14.12,0,0,1,4.73-3l.56.41a20.73,20.73,0,0,0-2.72,1.68,2.49,2.49,0,0,0-1.15,2c0,1,.74,1.47,2.21,1.47h5.75a11.26,11.26,0,0,1,3.56.55,5.94,5.94,0,0,1,2.65,1.75,4.71,4.71,0,0,1,1,3.13,7.9,7.9,0,0,1-1.32,4.46,9.66,9.66,0,0,1-4.12,3A17.06,17.06,0,0,1,129.2,74.7Zm.17-18.85a10.72,10.72,0,0,1-4.09-.76,6.22,6.22,0,0,1-2.9-2.37,7.35,7.35,0,0,1-1.06-4.14,7.35,7.35,0,0,1,1.06-4.14,6.22,6.22,0,0,1,2.9-2.37,11.47,11.47,0,0,1,8.21,0,6.3,6.3,0,0,1,2.87,2.37,7.35,7.35,0,0,1,1.06,4.14,7.35,7.35,0,0,1-1.06,4.14,6.3,6.3,0,0,1-2.87,2.37A10.76,10.76,0,0,1,129.37,55.85Zm0-.83a3.19,3.19,0,0,0,2.74-1.38q1-1.38,1-5.06t-1-5.06a3.38,3.38,0,0,0-5.45,0q-1,1.38-1,5.06t1,5.06A3.19,3.19,0,0,0,129.37,55ZM136,45.13l-.83-.32a6.76,6.76,0,0,1,2.21-2.76,5.29,5.29,0,0,1,3.27-1.2,2.8,2.8,0,0,1,1.93.67,2.56,2.56,0,0,1,.73,2,2.37,2.37,0,0,1-.75,2,2.57,2.57,0,0,1-1.54.58,2,2,0,0,1-1.29-.49,2.09,2.09,0,0,1-.69-1.54,5.8,5.8,0,0,1,.64-2.71l.6.14A8.14,8.14,0,0,0,137.51,43,8.36,8.36,0,0,0,136,45.13Z"/><path class="cls-1" d="M151.49,66a6.94,6.94,0,0,1-3.26-.71,4.89,4.89,0,0,1-2.1-2,6.12,6.12,0,0,1-.71-3,5.45,5.45,0,0,1,.94-3.31,7,7,0,0,1,2.42-2.07,19,19,0,0,1,3.1-1.31l3.11-1a9.51,9.51,0,0,0,2.41-1.13,2,2,0,0,0,.94-1.7V46.88a6.14,6.14,0,0,0-.57-3,2.87,2.87,0,0,0-1.54-1.35,6.44,6.44,0,0,0-2.16-.35,10.52,10.52,0,0,0-2.46.32,3.67,3.67,0,0,0-2.1,1.34,2.71,2.71,0,0,1,1.52.92,2.75,2.75,0,0,1,.65,1.88,2.33,2.33,0,0,1-.74,1.82,2.68,2.68,0,0,1-1.89.67,2.26,2.26,0,0,1-2-.85,3.21,3.21,0,0,1-.62-1.91,3,3,0,0,1,.6-1.93,7.26,7.26,0,0,1,1.51-1.38,10.15,10.15,0,0,1,2.74-1.27,12.67,12.67,0,0,1,3.79-.53,10.44,10.44,0,0,1,3.22.44A5.75,5.75,0,0,1,160.55,43a5.23,5.23,0,0,1,1.57,2.7,17.29,17.29,0,0,1,.36,3.79V62.28a3,3,0,0,0,.35,1.66,1.21,1.21,0,0,0,1.08.51,2.12,2.12,0,0,0,1-.23,7.06,7.06,0,0,0,1.11-.74l.5.78a14.24,14.24,0,0,1-1.84,1.22,4.85,4.85,0,0,1-2.34.48,4.67,4.67,0,0,1-2.21-.46,3,3,0,0,1-1.31-1.35,5.23,5.23,0,0,1-.44-2.28,8.45,8.45,0,0,1-3,3.08A7.5,7.5,0,0,1,151.49,66Zm1.66-1.84a5,5,0,0,0,2.83-.87,8.12,8.12,0,0,0,2.36-2.62v-9a4.14,4.14,0,0,1-1.61,1.32c-.7.35-1.47.7-2.3,1a18.26,18.26,0,0,0-2.36,1.24,6,6,0,0,0-1.87,1.87,5.45,5.45,0,0,0-.73,3,4.25,4.25,0,0,0,1,2.94A3.41,3.41,0,0,0,153.15,64.12Z"/><path class="cls-1" d="M182.63,41.31a4.53,4.53,0,0,1,2.18.51,3.91,3.91,0,0,1,1.47,1.31,3.26,3.26,0,0,1,.53,1.82,3.13,3.13,0,0,1-.71,2,2.35,2.35,0,0,1-1.91.87,2.53,2.53,0,0,1-1.7-.62,2.18,2.18,0,0,1-.74-1.77,2.35,2.35,0,0,1,.48-1.49,4,4,0,0,1,1.09-1,1.11,1.11,0,0,0-1-.46,4.41,4.41,0,0,0-2.62.85,7.72,7.72,0,0,0-2,2.18,12,12,0,0,0-1.28,2.83,9.43,9.43,0,0,0-.46,2.78V60.9c0,1.51.43,2.51,1.31,3a7.16,7.16,0,0,0,3.56.76v1l-3-.11c-1.28,0-2.65-.07-4.09-.07-1,0-2.08,0-3.1.07l-2.33.11v-1A4.12,4.12,0,0,0,171,64a3.37,3.37,0,0,0,.81-2.63V47a5.14,5.14,0,0,0-.74-3.06,3.25,3.25,0,0,0-2.76-1V42c1,.09,1.93.13,2.85.13a19.23,19.23,0,0,0,2.56-.16,12,12,0,0,0,2.23-.48V47.2a12,12,0,0,1,1.45-2.69,9,9,0,0,1,2.27-2.28A5.1,5.1,0,0,1,182.63,41.31Z"/><path class="cls-1" d="M210.13,41.45V60.67a5,5,0,0,0,.76,3.06,3.24,3.24,0,0,0,2.73,1v1c-1-.09-1.9-.14-2.85-.14a23.07,23.07,0,0,0-2.55.14,9.86,9.86,0,0,0-2.23.5V60.77A8.18,8.18,0,0,1,202.75,65a8.27,8.27,0,0,1-4.3,1.27,8,8,0,0,1-2.81-.46,5.32,5.32,0,0,1-2-1.29,4.92,4.92,0,0,1-1.19-2.39,17.07,17.07,0,0,1-.32-3.64V47a5.14,5.14,0,0,0-.74-3.06,3.25,3.25,0,0,0-2.76-1V42c1,.09,1.93.13,2.85.13a19,19,0,0,0,2.55-.16,11.66,11.66,0,0,0,2.23-.48V59.53a17.62,17.62,0,0,0,.19,2.62,3.37,3.37,0,0,0,.92,1.93,3.29,3.29,0,0,0,2.39.73,5,5,0,0,0,3.2-1.1,7.4,7.4,0,0,0,2.2-3,10.64,10.64,0,0,0,.81-4.23V47a5.14,5.14,0,0,0-.74-3.06,3.25,3.25,0,0,0-2.76-1V42c1,.09,1.93.13,2.85.13a19.23,19.23,0,0,0,2.56-.16A12,12,0,0,0,210.13,41.45Z"/><path class="cls-1" d="M231.6,41.31a8,8,0,0,1,2.81.46,5.32,5.32,0,0,1,2,1.29,4.87,4.87,0,0,1,1.19,2.39,16.93,16.93,0,0,1,.33,3.64V61.36a3.37,3.37,0,0,0,.8,2.63,4.14,4.14,0,0,0,2.69.69v1L239,65.53c-1.07,0-2.12-.07-3.13-.07s-2,0-3,.07l-2.19.11v-1a3.27,3.27,0,0,0,2.35-.69,3.76,3.76,0,0,0,.69-2.63V48.07a17.62,17.62,0,0,0-.19-2.62,3.37,3.37,0,0,0-.92-1.93,3.29,3.29,0,0,0-2.39-.74,5,5,0,0,0-3.2,1.11,7.33,7.33,0,0,0-2.2,3,10.77,10.77,0,0,0-.81,4.25V61.36a3.76,3.76,0,0,0,.69,2.63,3.25,3.25,0,0,0,2.35.69v1l-2.19-.11c-1,0-1.95-.07-3-.07s-2.06,0-3.13.07l-2.39.11v-1a4.16,4.16,0,0,0,2.69-.69,3.41,3.41,0,0,0,.8-2.63V47a5.15,5.15,0,0,0-.73-3.06,3.25,3.25,0,0,0-2.76-1V42c1,.09,1.93.13,2.85.13a19,19,0,0,0,2.55-.16,11.83,11.83,0,0,0,2.23-.48v5.43a8.6,8.6,0,0,1,3.27-4.28A8,8,0,0,1,231.6,41.31Zm13.85,0a7.94,7.94,0,0,1,2.8.46,5.32,5.32,0,0,1,2,1.29,5,5,0,0,1,1.2,2.39,17.67,17.67,0,0,1,.32,3.64V61.36a3.41,3.41,0,0,0,.8,2.63,4.16,4.16,0,0,0,2.69.69v1l-2.39-.11c-1.07,0-2.11-.07-3.13-.07s-2,0-3,.07l-2.19.11v-1a3.25,3.25,0,0,0,2.35-.69,3.76,3.76,0,0,0,.69-2.63V48.07a16.37,16.37,0,0,0-.19-2.62,3.31,3.31,0,0,0-.92-1.93,3.27,3.27,0,0,0-2.39-.74,5,5,0,0,0-3.19,1.11,7.35,7.35,0,0,0-2.21,3,10.63,10.63,0,0,0-.8,4.23l-.14-4.28a8,8,0,0,1,3.35-4.34A8.77,8.77,0,0,1,245.45,41.31Z"/><line class="cls-2" x1="1.89" y1="28.84" x2="253.48" y2="28.84"/><polygon points="0.13 28.84 2.61 29.86 2.02 28.84 2.61 27.82 0.13 28.84"/><polygon points="255.24 28.84 252.76 29.86 253.35 28.84 252.76 27.82 255.24 28.84"/><text class="cls-3" transform="translate(105.18 17.27)">3<tspan class="cls-4" x="12.24" y="0"> </tspan><tspan class="cls-5" x="16.96" y="0">c</tspan><tspan x="27.64" y="0">m</tspan></text><rect class="cls-6" x="0.13" y="40.08" width="255.12" height="34.62"/></g></g></svg>