<svg xmlns="http://www.w3.org/2000/svg" viewBox="0 0 408.5 327.53"><defs><style>.cls-1{font-size:17px;font-family:PublicSans-ExtraLight, Public Sans;font-weight:200;}.cls-2{fill:none;stroke:#000;stroke-miterlimit:10;stroke-width:0.25px;}.cls-3{fill:#941b0c;}</style></defs><g id="Layer_2" data-name="Layer 2"><g id="Grid"><text class="cls-1" transform="translate(56.63 323.45)">10x</text><text class="cls-1" transform="translate(393.86 281.72) rotate(90)">7x</text><rect class="cls-2" x="56.63" y="73.04" width="326.4" height="228.48"/><line class="cls-2" x1="56.63" y1="268.88" x2="383.04" y2="268.88"/><line class="cls-2" x1="56.63" y1="236.24" x2="383.04" y2="236.24"/><line class="cls-2" x1="56.63" y1="203.6" x2="383.04" y2="203.6"/><line class="cls-2" x1="56.63" y1="170.96" x2="383.04" y2="170.96"/><line class="cls-2" x1="56.63" y1="138.32" x2="383.04" y2="138.32"/><line class="cls-2" x1="56.63" y1="105.68" x2="383.04" y2="105.68"/><line class="cls-2" x1="350.4" y1="73.04" x2="350.4" y2="301.52"/><line class="cls-2" x1="317.76" y1="73.04" x2="317.76" y2="301.52"/><line class="cls-2" x1="285.11" y1="73.04" x2="285.11" y2="301.52"/><line class="cls-2" x1="252.47" y1="73.04" x2="252.47" y2="301.52"/><path class="cls-2" d="M219.83,89.36V301.52m0-228.48V89.36"/><line class="cls-2" x1="187.19" y1="73.04" x2="187.19" y2="301.52"/><line class="cls-2" x1="154.55" y1="73.04" x2="154.55" y2="301.52"/><line class="cls-2" x1="121.91" y1="73.04" x2="121.91" y2="301.52"/><line class="cls-2" x1="89.27" y1="73.04" x2="89.27" y2="301.52"/><path class="cls-3" d="M79.25,285.2A48.12,48.12,0,0,1,68.17,284a20.28,20.28,0,0,1-8.38-3.82,8.22,8.22,0,0,1-3.16-6.6,8.62,8.62,0,0,1,3.11-6.65,20.6,20.6,0,0,1,8.43-4.22l.66,1.78a7,7,0,0,0-3.88,3.1,9.73,9.73,0,0,0-1.44,5.21,8.57,8.57,0,0,0,4.71,7.82q4.71,2.72,12.25,2.72A37.62,37.62,0,0,0,90.23,282a17.62,17.62,0,0,0,7.87-4.27,10.43,10.43,0,0,0,3.11-7.87,10.2,10.2,0,0,0-2.75-7q-2.59-2.39-10.25-2.38H80a41.72,41.72,0,0,1-6.87-.56,11.05,11.05,0,0,1-5.44-2.33q-2.1-1.77-2.1-5.43a10.85,10.85,0,0,1,3.1-7.26q3.11-3.49,11.42-7.16l1.33,1a51.63,51.63,0,0,0-6.54,4.05,5.93,5.93,0,0,0-2.77,4.82q0,3.56,5.32,3.55H91.31a26.92,26.92,0,0,1,8.6,1.33,14,14,0,0,1,6.37,4.22,11.24,11.24,0,0,1,2.44,7.54A19,19,0,0,1,105.53,275a23.26,23.26,0,0,1-9.92,7.38Q89,285.2,79.25,285.2Zm.42-45.45a25.67,25.67,0,0,1-9.87-1.83,14.94,14.94,0,0,1-7-5.71,20.8,20.8,0,0,1,0-20,14.94,14.94,0,0,1,7-5.71,27.67,27.67,0,0,1,19.79,0,15,15,0,0,1,6.93,5.71,20.8,20.8,0,0,1,0,20,15,15,0,0,1-6.93,5.71A25.5,25.5,0,0,1,79.67,239.75Zm0-2a7.66,7.66,0,0,0,6.6-3.32q2.39-3.33,2.38-12.2T86.27,210a8.16,8.16,0,0,0-13.14,0q-2.44,3.33-2.44,12.2t2.44,12.2A7.68,7.68,0,0,0,79.67,237.75Zm16-23.84-2-.77A16.2,16.2,0,0,1,99,206.49a12.77,12.77,0,0,1,7.88-2.89,6.66,6.66,0,0,1,4.65,1.61,6.16,6.16,0,0,1,1.78,4.82c0,2.3-.61,3.9-1.83,4.83a6.14,6.14,0,0,1-3.72,1.38,4.81,4.81,0,0,1-3.1-1.16,5.08,5.08,0,0,1-1.66-3.72,13.85,13.85,0,0,1,1.55-6.54l1.44.34a19.82,19.82,0,0,0-6.65,3.71A20.56,20.56,0,0,0,95.64,213.91Z"/><path class="cls-3" d="M133,264.14a17,17,0,0,1-7.88-1.71,11.83,11.83,0,0,1-5-4.83,14.58,14.58,0,0,1-1.72-7.2,13.22,13.22,0,0,1,2.27-8,17.08,17.08,0,0,1,5.82-5,47,47,0,0,1,7.49-3.16c2.62-.85,5.12-1.66,7.48-2.44a22.92,22.92,0,0,0,5.82-2.71,4.77,4.77,0,0,0,2.28-4.11v-6.87a14.67,14.67,0,0,0-1.39-7.1,7,7,0,0,0-3.71-3.27,15.56,15.56,0,0,0-5.21-.83,24.89,24.89,0,0,0-5.94.78,8.8,8.8,0,0,0-5,3.21,6.65,6.65,0,0,1,5.21,6.76,5.65,5.65,0,0,1-1.77,4.39,6.53,6.53,0,0,1-4.55,1.6,5.41,5.41,0,0,1-4.71-2,7.61,7.61,0,0,1-1.5-4.6,7.19,7.19,0,0,1,1.44-4.66A17.73,17.73,0,0,1,126,209a24.19,24.19,0,0,1,6.6-3,30.33,30.33,0,0,1,9.15-1.28,24.88,24.88,0,0,1,7.76,1.06,13.91,13.91,0,0,1,5.32,3,12.51,12.51,0,0,1,3.77,6.49,41.07,41.07,0,0,1,.89,9.15v30.82a7.29,7.29,0,0,0,.83,4,2.93,2.93,0,0,0,2.6,1.22,5.13,5.13,0,0,0,2.33-.56,16.37,16.37,0,0,0,2.66-1.77l1.22,1.88a35.25,35.25,0,0,1-4.43,2.94,11.69,11.69,0,0,1-5.66,1.16,11.47,11.47,0,0,1-5.32-1.1,7.15,7.15,0,0,1-3.16-3.27,12.61,12.61,0,0,1-1.05-5.49,20.8,20.8,0,0,1-7.15,7.43A18.26,18.26,0,0,1,133,264.14Zm4-4.43a12,12,0,0,0,6.82-2.11,19.61,19.61,0,0,0,5.71-6.32V229.55a10.19,10.19,0,0,1-3.88,3.16q-2.55,1.28-5.55,2.55a40.74,40.74,0,0,0-5.71,3,14.57,14.57,0,0,0-4.49,4.49,13.23,13.23,0,0,0-1.77,7.21,10.25,10.25,0,0,0,2.38,7.1A8.28,8.28,0,0,0,137,259.71Z"/><path class="cls-3" d="M208.07,204.71a11,11,0,0,1,5.27,1.22,9.67,9.67,0,0,1,3.55,3.16,7.82,7.82,0,0,1,1.27,4.38,7.46,7.46,0,0,1-1.72,4.88,5.61,5.61,0,0,1-4.6,2.11,6.16,6.16,0,0,1-4.1-1.5,5.28,5.28,0,0,1-1.77-4.27,5.67,5.67,0,0,1,1.16-3.6,9.93,9.93,0,0,1,2.61-2.39,2.69,2.69,0,0,0-2.33-1.11,10.64,10.64,0,0,0-6.32,2.06,17.86,17.86,0,0,0-4.88,5.26,29.36,29.36,0,0,0-3.11,6.82,22.93,22.93,0,0,0-1.11,6.71V252c0,3.62,1.06,6,3.16,7.26a17.17,17.17,0,0,0,8.6,1.83v2.33c-1.7-.07-4.11-.17-7.21-.28s-6.39-.16-9.87-.16c-2.51,0-5,.05-7.48.16s-4.35.21-5.6.28V261q4.54,0,6.48-1.66c1.3-1.11,1.94-3.22,1.94-6.32V218.35c0-3.33-.59-5.78-1.77-7.37s-3.4-2.39-6.65-2.39v-2.33q3.54.35,6.87.34a46.81,46.81,0,0,0,6.16-.39A31.07,31.07,0,0,0,192,205V218.9a30.36,30.36,0,0,1,3.5-6.48,21.38,21.38,0,0,1,5.49-5.49A12.18,12.18,0,0,1,208.07,204.71Z"/><path class="cls-3" d="M274.38,205v46.35q0,5,1.83,7.38t6.6,2.38v2.33q-3.45-.33-6.88-.33a55.15,55.15,0,0,0-6.15.33,23.32,23.32,0,0,0-5.38,1.22V251.62q-2.77,7.2-7.82,10.25a19.82,19.82,0,0,1-10.36,3.05,18.8,18.8,0,0,1-6.77-1.11,12.78,12.78,0,0,1-4.77-3.1,11.9,11.9,0,0,1-2.88-5.77,41.54,41.54,0,0,1-.78-8.76V218.35c0-3.33-.59-5.78-1.77-7.37s-3.4-2.39-6.65-2.39v-2.33q3.54.35,6.87.34a46.92,46.92,0,0,0,6.16-.39A31.07,31.07,0,0,0,241,205v43.58a41.1,41.1,0,0,0,.45,6.32,8.07,8.07,0,0,0,2.21,4.66q1.78,1.77,5.77,1.77a12.12,12.12,0,0,0,7.71-2.66,17.88,17.88,0,0,0,5.32-7.21,25.8,25.8,0,0,0,1.94-10.2v-23c0-3.33-.59-5.78-1.77-7.37s-3.41-2.39-6.66-2.39v-2.33q3.55.35,6.88.34a46.76,46.76,0,0,0,6.15-.39A31.19,31.19,0,0,0,274.38,205Z"/><path class="cls-3" d="M326.16,204.71a18.84,18.84,0,0,1,6.77,1.11,12.63,12.63,0,0,1,4.76,3.11,11.83,11.83,0,0,1,2.89,5.76,42.42,42.42,0,0,1,.77,8.76v29.61q0,4.65,1.94,6.32t6.49,1.66v2.33c-1.26-.07-3.18-.17-5.77-.28s-5.1-.16-7.54-.16-4.82.05-7.15.16-4.08.21-5.27.28V261c2.67,0,4.55-.55,5.66-1.66s1.66-3.22,1.66-6.32V221a42.46,42.46,0,0,0-.44-6.32,8.21,8.21,0,0,0-2.22-4.66q-1.77-1.77-5.76-1.77a12.13,12.13,0,0,0-7.71,2.66,17.81,17.81,0,0,0-5.32,7.26A26.06,26.06,0,0,0,308,228.44v24.62q0,4.65,1.66,6.32t5.65,1.66v2.33c-1.18-.07-2.93-.17-5.26-.28s-4.71-.16-7.15-.16-5,.05-7.54.16-4.51.21-5.77.28V261q4.55,0,6.49-1.66t1.94-6.32V218.35c0-3.33-.6-5.78-1.78-7.37s-3.4-2.39-6.65-2.39v-2.33c2.36.23,4.66.34,6.87.34a46.81,46.81,0,0,0,6.16-.39A31.19,31.19,0,0,0,308,205v13.09q2.88-7.22,7.87-10.31A19.27,19.27,0,0,1,326.16,204.71Zm33.38,0a18.78,18.78,0,0,1,6.76,1.11,12.67,12.67,0,0,1,4.77,3.11,11.91,11.91,0,0,1,2.88,5.76,41.67,41.67,0,0,1,.78,8.76v29.61c0,3.1.64,5.21,1.94,6.32s3.45,1.66,6.49,1.66v2.33c-1.26-.07-3.18-.17-5.77-.28s-5.1-.16-7.54-.16-4.82.05-7.15.16-4.09.21-5.27.28V261q4,0,5.66-1.66c1.1-1.11,1.66-3.22,1.66-6.32V221a42.46,42.46,0,0,0-.44-6.32,8.21,8.21,0,0,0-2.22-4.66q-1.79-1.77-5.77-1.77a12.17,12.17,0,0,0-7.71,2.66,18,18,0,0,0-5.32,7.21,25.8,25.8,0,0,0-1.94,10.2L341,218q3-7.65,8.09-10.48A21.23,21.23,0,0,1,359.54,204.71Z"/><path class="cls-3" d="M102.53,150.57a9.9,9.9,0,0,1-1.61,1.26,6.75,6.75,0,0,1-1.71.75,4.3,4.3,0,0,1-1.7.12,3.21,3.21,0,0,1-1.55-.65l1.42-1.44a2.37,2.37,0,0,0,1.36.37,3.5,3.5,0,0,0,1.48-.42,6.37,6.37,0,0,0,1.45-1.07,5.76,5.76,0,0,0,1.08-1.38,3.29,3.29,0,0,0,.43-1.44,1.7,1.7,0,0,0-.43-1.22,1.44,1.44,0,0,0-1.23-.54,4.31,4.31,0,0,0-1.81.68c-1.09.65-1.63,1-2.71,1.67a7.76,7.76,0,0,1-1.76.87,3.34,3.34,0,0,1-1.64.15,2.73,2.73,0,0,1-1.47-.85,2.77,2.77,0,0,1-.81-1.9,4.91,4.91,0,0,1,.55-2.35,8.46,8.46,0,0,1,1.75-2.34,7.87,7.87,0,0,1,2.6-1.76,4.22,4.22,0,0,1,2.3-.25,2.87,2.87,0,0,1,1.66.95l-1.48,1.37a2.22,2.22,0,0,0-1.38-.62,2.88,2.88,0,0,0-1.44.35,6.11,6.11,0,0,0-1.39,1,4.39,4.39,0,0,0-1.39,2.24,1.86,1.86,0,0,0,.42,1.69,1.41,1.41,0,0,0,1.28.47,4.49,4.49,0,0,0,1.75-.74c1.06-.66,1.59-1,2.65-1.63a6.07,6.07,0,0,1,2.09-.89,3,3,0,0,1,1.61.12,3.12,3.12,0,0,1,1.2.88,3.06,3.06,0,0,1,.73,1.91,4.8,4.8,0,0,1-.53,2.28A8.7,8.7,0,0,1,102.53,150.57Z"/><path class="cls-3" d="M124.29,132.47l-7-10.84,1.61-1.1,6.92,10.92Z"/><path class="cls-3" d="M145.71,119.88c-2.19-4.71-3.28-7.07-5.46-11.77l1.64-.8c4.49,2.31,6.68,3.54,10.91,6.12L149,104.07l1.75-.74,4.73,12.1-1.45.61c-4.25-2.64-6.44-3.89-11-6.26,1.69,3.73,2.53,5.59,4.21,9.32C146.66,119.41,146.34,119.56,145.71,119.88Z"/><path class="cls-3" d="M181.73,107.16a6,6,0,0,1-3.23,0,5.21,5.21,0,0,1-2.48-1.74,8.59,8.59,0,0,1-1.56-3.33,8.24,8.24,0,0,1-.2-3.68,5.05,5.05,0,0,1,1.49-2.72,6.51,6.51,0,0,1,3.09-1.56,6,6,0,0,1,2.79,0,4.88,4.88,0,0,1,2.16,1.1A4.18,4.18,0,0,1,185,97l-1.9.4a3.49,3.49,0,0,0-.87-1.23,3,3,0,0,0-1.35-.72,3.63,3.63,0,0,0-1.79,0,4.07,4.07,0,0,0-2,1.06,3.44,3.44,0,0,0-.93,2,7.87,7.87,0,0,0,.26,3,6.42,6.42,0,0,0,1.9,3.64,3.41,3.41,0,0,0,3.07.57,3.55,3.55,0,0,0,1.53-.75,3.37,3.37,0,0,0,.89-1.26,4,4,0,0,0,.29-1.5l1.85-.38a5.51,5.51,0,0,1-.16,1.66,4.76,4.76,0,0,1-.72,1.55,4.59,4.59,0,0,1-1.32,1.27A6.16,6.16,0,0,1,181.73,107.16Z"/><path class="cls-3" d="M208,103c-.35-5.2-.53-7.8-.87-13,3.65-.26,5.47-.34,9.13-.41,0,.59,0,.88,0,1.47-2.89.06-4.33.11-7.21.29l.24,4.25c2.54-.16,3.81-.21,6.35-.27l0,1.46c-2.52.06-3.78.11-6.3.27.1,1.73.15,2.6.24,4.34,2.81-.17,4.22-.22,7-.26l0,1.48C213.22,102.68,211.48,102.76,208,103Z"/><path class="cls-3" d="M262.8,108.19c1-4,1.51-6,2.52-10.06l-2.7-.69.25-1.06a9.67,9.67,0,0,0,2,.33,1.89,1.89,0,0,0,1.12-.24,1.44,1.44,0,0,0,.54-.76l1.29.35c-1.32,5-2,7.56-3.29,12.6Z"/><path class="cls-3" d="M289.66,118.05a5.78,5.78,0,0,1-1.79-1.26,4.7,4.7,0,0,1-1.08-1.74,3.66,3.66,0,0,1-.08-2l1.61.69a2.66,2.66,0,0,0,.36,1.74,3.18,3.18,0,0,0,1.47,1.27,3.75,3.75,0,0,0,2.16.35,3.52,3.52,0,0,0,2-1.13,8.42,8.42,0,0,0,1.64-2.78,3.13,3.13,0,0,1-1.2.75,3.85,3.85,0,0,1-1.49.19,4.42,4.42,0,0,1-1.61-.42,6.1,6.1,0,0,1-2.06-1.48,4.15,4.15,0,0,1-1-2,4.1,4.1,0,0,1,.29-2.31,4.23,4.23,0,0,1,1.41-1.9,4,4,0,0,1,2.2-.74,5.8,5.8,0,0,1,2.7.6,5.5,5.5,0,0,1,2.39,2,5.13,5.13,0,0,1,.82,2.87,8.21,8.21,0,0,1-.87,3.45,9.54,9.54,0,0,1-2.16,3.08,5.06,5.06,0,0,1-2.66,1.31A5.37,5.37,0,0,1,289.66,118.05Zm2.68-5.56a3.43,3.43,0,0,0,1.5.34,3.18,3.18,0,0,0,1.42-.31,1.83,1.83,0,0,0,.9-.9,3.91,3.91,0,0,0,.39-1.78,3,3,0,0,0-.53-1.59,3.31,3.31,0,0,0-1.38-1.12,3.16,3.16,0,0,0-1.59-.31,2.67,2.67,0,0,0-1.38.53,3,3,0,0,0-1,1.29,2.9,2.9,0,0,0-.09,2.23A3.06,3.06,0,0,0,292.34,112.49Z"/><path class="cls-3" d="M317.24,134a5.53,5.53,0,0,1-1.92-2.3,5.41,5.41,0,0,1-.36-2.93,8.33,8.33,0,0,1,1.27-3.31,8.78,8.78,0,0,1,2.48-2.69,4.9,4.9,0,0,1,2.93-.89,5.61,5.61,0,0,1,3.12,1.16,6.3,6.3,0,0,1,1.67,1.71,4.65,4.65,0,0,1,.78,2,3.49,3.49,0,0,1-.35,2l-1.45-1.08a2.93,2.93,0,0,0-.06-1.85,3.54,3.54,0,0,0-1.33-1.62,3.26,3.26,0,0,0-4.27.11,8.33,8.33,0,0,0-1.88,2.42,3.1,3.1,0,0,1,1.31-.49,3.9,3.9,0,0,1,1.51.12,4.81,4.81,0,0,1,1.5.72A6.13,6.13,0,0,1,324,129a4.16,4.16,0,0,1,.57,2.18,4,4,0,0,1-.77,2.15,4,4,0,0,1-4.1,1.74A5.89,5.89,0,0,1,317.24,134Zm.75-1.15a3.19,3.19,0,0,0,1.48.6,2.7,2.7,0,0,0,1.46-.22,2.89,2.89,0,0,0,1.2-1,2.94,2.94,0,0,0,.57-1.46,2.36,2.36,0,0,0-.31-1.43,4,4,0,0,0-1.2-1.28,3.57,3.57,0,0,0-1.45-.61,3.1,3.1,0,0,0-1.46,0,1.76,1.76,0,0,0-1,.75,3.77,3.77,0,0,0-.63,1.69,3,3,0,0,0,.26,1.63A3.25,3.25,0,0,0,318,132.88Z"/><path class="cls-3" d="M340,153.11l7-7.42c-.85-.86-1.27-1.28-2.13-2.12l.72-.8a11.28,11.28,0,0,0,1.68,1.42,2.06,2.06,0,0,0,1.14.42,1.26,1.26,0,0,0,.85-.37l1,1-8.94,9.22Z"/><text class="cls-1" transform="translate(30.98 97.26) rotate(-90)">0.5x</text><polyline class="cls-2" points="219.83 89.36 40.3 89.36 40.3 73.04 219.83 73.04"/><text class="cls-1" transform="translate(30.98 130.38) rotate(-90)">2x</text><polyline class="cls-2" points="98.41 152.85 40.3 152.85 40.3 89.36 219.83 89.36"/><polyline class="cls-2" points="89.27 152.85 89.27 23.98 350.39 23.98 350.39 152.85"/><text class="cls-1" transform="translate(209.76 14.65)">8x</text><g id="Fish"><path class="cls-3" d="M232.76,166.11c-1.95,1.22-4.14,2.77-5.52,3.75a14.32,14.32,0,0,1-3.56-2.8C227,166.77,230,166.44,232.76,166.11Z"/><path class="cls-3" d="M210,168.07a23.2,23.2,0,0,1-3.72,2.89,37.25,37.25,0,0,1-4.52-2.47c.81,0,1.64-.06,2.45-.12C206.21,168.28,208.13,168.19,210,168.07Z"/><path class="cls-3" d="M228.08,147.72a4.52,4.52,0,0,1-1.08,1.1,168.77,168.77,0,0,0-17.1-1.63c1.58-2.32,5.7-6.16,8.58-8.87C219.68,140.79,223.2,146.92,228.08,147.72Z"/><path class="cls-3" d="M275,158.45a.74.74,0,0,1-.33-.77.77.77,0,0,1,.66-.57c2.81-.36,5.36-3.42,6.92-5.73-2.88,1.19-10,2.43-20.77,2.2a270.72,270.72,0,0,1-29.93-2.65c-1.47-.21-2.91-.38-4.37-.59a.66.66,0,0,1-.42-.06,171.11,171.11,0,0,0-18.1-1.67h-.12c-1.83-.05-3.69-.05-5.57,0-18.52.39-43.93,5.83-48.42,10.25,4,4.52,13.06,7.22,27,8.06,1-3.84-1.62-9.63-5.36-11.8a.73.73,0,0,1-.27-1,.75.75,0,0,1,1-.27c4.25,2.47,7.07,8.71,6.11,13.16,4.82.27,10.22.3,16.12.12h.09c1.59-.06,3.21-.12,4.88-.2,18.7-.87,30-2.41,38.27-3.51a145.26,145.26,0,0,1,18.12-1.49h1c9.65.15,20.08,3.78,23.61,5.35C283.62,164.89,278.7,161,275,158.45Zm-108.61,1.1a1.76,1.76,0,1,1,1.74-1.76A1.76,1.76,0,0,1,166.38,159.55Z"/></g><text class="cls-1" transform="translate(209.94 47.29)">4x</text><polyline class="cls-2" points="154.54 158.83 154.56 56.63 285.12 56.63 285.12 167.24"/><text class="cls-1" transform="translate(14.65 162.47) rotate(-90)">1x</text><polyline class="cls-2" points="205.87 170.96 23.98 170.96 23.98 138.32 218.48 138.32"/><text class="cls-1" transform="translate(31.69 309.42) rotate(-90)">0.5x</text><polyline class="cls-2" points="220.54 301.52 41.02 301.52 41.02 285.2 79.67 285.2"/></g></g></svg>