<svg xmlns="http://www.w3.org/2000/svg" viewBox="0 0 255.12 34.14"><defs><style>.cls-1{fill:#941b0c;}</style></defs><g id="Layer_2" data-name="Layer 2"><g id="Minimum_Size" data-name="Minimum Size"><g id="Fish"><path class="cls-1" d="M62.71,22.28c-1.56,1-3.32,2.21-4.42,3A11.31,11.31,0,0,1,55.43,23C58.12,22.8,60.52,22.54,62.71,22.28Z"/><path class="cls-1" d="M44.45,23.85a18.76,18.76,0,0,1-3,2.32,30.69,30.69,0,0,1-3.62-2c.65,0,1.32,0,2-.09C41.43,24,43,24,44.45,23.85Z"/><path class="cls-1" d="M59,7.54a4,4,0,0,1-.86.88A132.58,132.58,0,0,0,44.38,7.11C45.65,5.25,49,2.17,51.26,0,52.22,2,55.05,6.89,59,7.54Z"/><path class="cls-1" d="M96.56,16.13a.59.59,0,0,1-.26-.62.62.62,0,0,1,.53-.45c2.25-.28,4.3-2.74,5.55-4.59-2.31.95-8,1.95-16.66,1.76a217.41,217.41,0,0,1-24-2.12l-3.5-.48a.49.49,0,0,1-.34-.05A136.23,136.23,0,0,0,43.38,8.25h-.1c-1.46-.05-3-.05-4.46,0C24,8.54,3.6,12.89,0,16.44c3.22,3.62,10.47,5.79,21.64,6.46.77-3.07-1.29-7.72-4.3-9.46a.58.58,0,0,1-.21-.81.59.59,0,0,1,.81-.21c3.41,2,5.67,7,4.9,10.55,3.87.21,8.19.24,12.93.09h.07c1.27,0,2.57-.09,3.91-.16,15-.69,24-1.93,30.68-2.81A116.22,116.22,0,0,1,85,18.9h.79a56,56,0,0,1,18.93,4.28C103.48,21.3,99.54,18.16,96.56,16.13ZM9.49,17a1.41,1.41,0,1,1,1.4-1.4A1.41,1.41,0,0,1,9.49,17Z"/></g><path class="cls-1" d="M129.07,34.14a20.59,20.59,0,0,1-4.6-.5A8.46,8.46,0,0,1,121,32.05a3.4,3.4,0,0,1-1.31-2.74A3.58,3.58,0,0,1,121,26.55a8.59,8.59,0,0,1,3.49-1.74l.28.73a2.92,2.92,0,0,0-1.61,1.29,4,4,0,0,0-.6,2.16,3.54,3.54,0,0,0,2,3.24,10,10,0,0,0,5.08,1.13,15.74,15.74,0,0,0,4-.53,7.32,7.32,0,0,0,3.26-1.77,4.33,4.33,0,0,0,1.29-3.26A4.24,4.24,0,0,0,137,24.88c-.72-.66-2.14-1-4.25-1h-3.41a17.68,17.68,0,0,1-2.85-.23,4.54,4.54,0,0,1-2.25-1,2.81,2.81,0,0,1-.88-2.26,4.51,4.51,0,0,1,1.29-3,14,14,0,0,1,4.74-3l.55.42a20.57,20.57,0,0,0-2.71,1.68,2.43,2.43,0,0,0-1.15,2c0,1,.73,1.47,2.21,1.47h5.74a11,11,0,0,1,3.57.55,5.77,5.77,0,0,1,2.64,1.75,4.65,4.65,0,0,1,1,3.12A7.88,7.88,0,0,1,140,29.91,9.62,9.62,0,0,1,135.86,33,17.33,17.33,0,0,1,129.07,34.14Zm.18-18.85a10.58,10.58,0,0,1-4.1-.76,6.2,6.2,0,0,1-2.9-2.37,7.43,7.43,0,0,1-1-4.14,7.42,7.42,0,0,1,1-4.13,6.2,6.2,0,0,1,2.9-2.37,11.47,11.47,0,0,1,8.21,0,6.2,6.2,0,0,1,2.88,2.37,7.42,7.42,0,0,1,1,4.13,7.43,7.43,0,0,1-1,4.14,6.2,6.2,0,0,1-2.88,2.37A10.49,10.49,0,0,1,129.25,15.29Zm0-.83A3.18,3.18,0,0,0,132,13.08c.66-.92,1-2.6,1-5.06s-.33-4.13-1-5a3.38,3.38,0,0,0-5.45,0q-1,1.38-1,5c0,2.46.34,4.14,1,5.06A3.21,3.21,0,0,0,129.25,14.46Zm6.62-9.88L135,4.25a6.68,6.68,0,0,1,2.21-2.76A5.33,5.33,0,0,1,140.51.3a2.73,2.73,0,0,1,1.93.67,2.56,2.56,0,0,1,.74,2,2.36,2.36,0,0,1-.76,2,2.54,2.54,0,0,1-1.54.57,2,2,0,0,1-1.29-.48,2.11,2.11,0,0,1-.69-1.54A5.87,5.87,0,0,1,139.55.8l.59.14a8.35,8.35,0,0,0-2.75,1.54A8.36,8.36,0,0,0,135.87,4.58Z"/><path class="cls-1" d="M151.37,25.41a7.1,7.1,0,0,1-3.27-.71,4.93,4.93,0,0,1-2.09-2,6,6,0,0,1-.71-3,5.48,5.48,0,0,1,.94-3.32,7.23,7.23,0,0,1,2.41-2.07A20,20,0,0,1,151.76,13l3.1-1a9.59,9.59,0,0,0,2.42-1.12,2,2,0,0,0,.94-1.71V6.32a6,6,0,0,0-.58-2.94A2.86,2.86,0,0,0,156.1,2a6.36,6.36,0,0,0-2.16-.34,10.66,10.66,0,0,0-2.46.32,3.66,3.66,0,0,0-2.09,1.33,2.8,2.8,0,0,1,1.52.92,2.76,2.76,0,0,1,.64,1.89A2.34,2.34,0,0,1,150.81,8a2.7,2.7,0,0,1-1.88.66,2.27,2.27,0,0,1-2-.85,3.18,3.18,0,0,1-.62-1.91,3,3,0,0,1,.6-1.93,7.59,7.59,0,0,1,1.52-1.38,10,10,0,0,1,2.74-1.26A12.31,12.31,0,0,1,155,.76a10.14,10.14,0,0,1,3.22.44,5.82,5.82,0,0,1,2.21,1.26A5.25,5.25,0,0,1,162,5.15a16.7,16.7,0,0,1,.37,3.79V21.73a3,3,0,0,0,.34,1.66,1.23,1.23,0,0,0,1.08.5,2.2,2.2,0,0,0,1-.23,6.87,6.87,0,0,0,1.1-.73l.51.78a16.2,16.2,0,0,1-1.84,1.22,4.9,4.9,0,0,1-2.35.48A4.75,4.75,0,0,1,160,25a2.93,2.93,0,0,1-1.31-1.36,5,5,0,0,1-.44-2.27,8.63,8.63,0,0,1-3,3.08A7.56,7.56,0,0,1,151.37,25.41ZM153,23.57a5,5,0,0,0,2.83-.87,8.3,8.3,0,0,0,2.37-2.63v-9a4.27,4.27,0,0,1-1.61,1.31c-.71.35-1.47.71-2.3,1.06a16.66,16.66,0,0,0-2.37,1.24,6.11,6.11,0,0,0-1.86,1.86,5.5,5.5,0,0,0-.74,3,4.26,4.26,0,0,0,1,2.95A3.45,3.45,0,0,0,153,23.57Z"/><path class="cls-1" d="M182.5.76a4.65,4.65,0,0,1,2.19.5,4.16,4.16,0,0,1,1.47,1.31,3.29,3.29,0,0,1,.53,1.82,3.07,3.07,0,0,1-.72,2,2.31,2.31,0,0,1-1.91.88,2.58,2.58,0,0,1-1.7-.62,2.2,2.2,0,0,1-.73-1.77,2.4,2.4,0,0,1,.48-1.5,4.19,4.19,0,0,1,1.08-1,1.12,1.12,0,0,0-1-.46,4.48,4.48,0,0,0-2.62.85,7.59,7.59,0,0,0-2,2.19,12.26,12.26,0,0,0-1.29,2.83,9.66,9.66,0,0,0-.46,2.78v9.75c0,1.5.44,2.51,1.31,3a7.09,7.09,0,0,0,3.57.76v1l-3-.12c-1.29,0-2.65-.07-4.1-.07-1,0-2.07,0-3.1.07l-2.32.12v-1a4.16,4.16,0,0,0,2.69-.69,3.39,3.39,0,0,0,.8-2.62V6.41A5.14,5.14,0,0,0,171,3.36a3.25,3.25,0,0,0-2.76-1v-1c1,.09,1.93.14,2.85.14a19,19,0,0,0,2.55-.16A13.64,13.64,0,0,0,175.83.9V6.64A12.94,12.94,0,0,1,177.28,4a8.94,8.94,0,0,1,2.28-2.27A5,5,0,0,1,182.5.76Z"/><path class="cls-1" d="M210,.9V20.12a5.06,5.06,0,0,0,.76,3.06,3.27,3.27,0,0,0,2.74,1v1c-.95-.09-1.9-.14-2.85-.14a23.4,23.4,0,0,0-2.56.14,9.46,9.46,0,0,0-2.23.51V20.21a8.11,8.11,0,0,1-3.24,4.26,8.23,8.23,0,0,1-4.3,1.26,7.68,7.68,0,0,1-2.8-.46,5.32,5.32,0,0,1-2-1.29,4.88,4.88,0,0,1-1.2-2.39A17.64,17.64,0,0,1,192,18V6.41a5.13,5.13,0,0,0-.74-3.05,3.24,3.24,0,0,0-2.75-1v-1c1,.09,1.93.14,2.85.14a19,19,0,0,0,2.55-.16A13.87,13.87,0,0,0,196.16.9V19a17.68,17.68,0,0,0,.18,2.62,3.4,3.4,0,0,0,.92,1.93,3.29,3.29,0,0,0,2.39.74,5.05,5.05,0,0,0,3.2-1.1,7.48,7.48,0,0,0,2.21-3,10.83,10.83,0,0,0,.8-4.24V6.41a5.14,5.14,0,0,0-.73-3.05,3.25,3.25,0,0,0-2.76-1v-1c1,.09,1.93.14,2.85.14a19,19,0,0,0,2.55-.16A13.64,13.64,0,0,0,210,.9Z"/><path class="cls-1" d="M231.48.76a7.68,7.68,0,0,1,2.8.46,5.09,5.09,0,0,1,2,1.29,5,5,0,0,1,1.2,2.39,17.64,17.64,0,0,1,.32,3.63V20.81a3.39,3.39,0,0,0,.8,2.62,4.17,4.17,0,0,0,2.7.69v1l-2.4-.12c-1.07,0-2.11-.07-3.12-.07s-2,0-3,.07l-2.18.12v-1a3.24,3.24,0,0,0,2.34-.69,3.73,3.73,0,0,0,.69-2.62V7.52a17.58,17.58,0,0,0-.18-2.62A3.4,3.4,0,0,0,232.54,3a3.29,3.29,0,0,0-2.39-.74,5.05,5.05,0,0,0-3.2,1.1,7.38,7.38,0,0,0-2.21,3,10.77,10.77,0,0,0-.8,4.25V20.81a3.73,3.73,0,0,0,.69,2.62,3.24,3.24,0,0,0,2.34.69v1L224.79,25c-1,0-2-.07-3-.07s-2,0-3.13.07l-2.39.12v-1a4.12,4.12,0,0,0,2.69-.69,3.35,3.35,0,0,0,.81-2.62V6.41a5.13,5.13,0,0,0-.74-3.05,3.25,3.25,0,0,0-2.76-1v-1c1,.09,1.93.14,2.85.14a19.23,19.23,0,0,0,2.56-.16A13.87,13.87,0,0,0,223.94.9V6.32a8.46,8.46,0,0,1,3.26-4.27A8,8,0,0,1,231.48.76Zm13.84,0a7.74,7.74,0,0,1,2.81.46,5.24,5.24,0,0,1,2,1.29A4.87,4.87,0,0,1,251.3,4.9a17.64,17.64,0,0,1,.32,3.63V20.81a3.35,3.35,0,0,0,.81,2.62,4.12,4.12,0,0,0,2.69.69v1L252.73,25c-1.08,0-2.12-.07-3.13-.07s-2,0-3,.07l-2.18.12v-1a3.24,3.24,0,0,0,2.34-.69,3.73,3.73,0,0,0,.69-2.62V7.52a17.58,17.58,0,0,0-.18-2.62A3.34,3.34,0,0,0,246.38,3,3.29,3.29,0,0,0,244,2.23a5.07,5.07,0,0,0-3.2,1.1,7.58,7.58,0,0,0-2.21,3,10.81,10.81,0,0,0-.8,4.23l-.14-4.27A8.05,8.05,0,0,1,241,1.93,8.83,8.83,0,0,1,245.32.76Z"/></g></g></svg>