<svg xmlns="http://www.w3.org/2000/svg" viewBox="0 0 173.87 104.11"><defs><style>.cls-1{fill:#941b0c;}</style></defs><g id="Layer_2" data-name="Layer 2"><g id="Wrong_Use_Cases" data-name="Wrong Use Cases"><path class="cls-1" d="M21.51,33.54a3.86,3.86,0,0,0,1.56-.95c.73-.71.84-1.47.38-2s-1-.47-2,0c-1.18.59-2.15.79-2.82.1s-.55-2.11.59-3.22a4.15,4.15,0,0,1,1.53-1l.27.73a3.62,3.62,0,0,0-1.33.83c-.8.78-.71,1.49-.39,1.83s1,.34,2-.16c1.27-.61,2.13-.65,2.79.11s.65,2.06-.63,3.33a4.47,4.47,0,0,1-1.68,1.07C21.71,34,21.64,33.83,21.51,33.54Z"/><path class="cls-1" d="M32,17.09l3.74,5.75-.78.55c-1.51-2.29-2.27-3.43-3.79-5.71Z"/><path class="cls-1" d="M46.48,16.46l-2.95-6.22,1-.49c1.48.83,2.2,1.26,3.62,2.14a14.2,14.2,0,0,1,2.08,1.52l0,0c-.43-.82-.78-1.58-1.19-2.57L47.92,8.16l.86-.38c1,2.56,1.55,3.83,2.59,6.39l-.85.37c-1.38-.92-2.08-1.36-3.5-2.23a24.65,24.65,0,0,1-2.23-1.48l0,0c.42.76.79,1.5,1.27,2.54s.74,1.6,1.24,2.67Z"/><path class="cls-1" d="M67.59,8.69a4.85,4.85,0,0,1-1.74.74,3.31,3.31,0,0,1-4.29-2.49,3.58,3.58,0,0,1,2.91-4.51,4.09,4.09,0,0,1,1.82-.1c0,.31-.05.46-.08.76a3.79,3.79,0,0,0-1.55.06,2.68,2.68,0,0,0-2.14,3.49,2.57,2.57,0,0,0,3.34,2A3.87,3.87,0,0,0,67.26,8C67.4,8.3,67.46,8.43,67.59,8.69Z"/><path class="cls-1" d="M82.58,3.68c-1.13,0-1.69.09-2.82.17.07,1,.11,1.5.18,2.49,1.22-.09,1.84-.13,3.06-.18l0,.75c-1.58.07-2.36.12-3.94.25C78.86,4.41,78.75,3,78.52.27,80.15.13,81,.07,82.59,0l0,.75c-1.23.05-1.84.09-3.07.18l.16,2.19c1.13-.09,1.7-.13,2.84-.18Z"/><path class="cls-1" d="M110.11,3.9h0l-1.36.31c0-.29,0-.43,0-.72l1.72-.38.82.21c-.65,2.59-1,3.88-1.61,6.47l-.87-.22C109.29,7.3,109.56,6.17,110.11,3.9Z"/><path class="cls-1" d="M122.7,13.67a4.37,4.37,0,0,0,.71.28A2.74,2.74,0,0,0,125,14a2.84,2.84,0,0,0,1.57-1.21l0,0a2.17,2.17,0,0,1-1.81-.05,2.09,2.09,0,0,1-1.16-2.74,2.3,2.3,0,0,1,3.2-1.16c1.38.63,1.76,2.06,1,3.6a4,4,0,0,1-2.39,2.3,3.72,3.72,0,0,1-2.19,0,5.92,5.92,0,0,1-.81-.3Zm1.78-3.4a1.37,1.37,0,0,0,.71,1.87,1.61,1.61,0,0,0,1.56,0,.53.53,0,0,0,.22-.26c.46-1,.4-2-.55-2.47A1.43,1.43,0,0,0,124.48,10.27Z"/><path class="cls-1" d="M143,19.15a4.91,4.91,0,0,0-.65-.42,2.71,2.71,0,0,0-3.42.48l0,0a2.2,2.2,0,0,1,1.89.38,2.12,2.12,0,0,1,.61,3.07,2.25,2.25,0,0,1-3.25.53,2.64,2.64,0,0,1-.59-3.81,3.73,3.73,0,0,1,2.63-1.83,4.1,4.1,0,0,1,2.52.58,5,5,0,0,1,.64.39Zm-2.38,3A1.45,1.45,0,0,0,140.2,20a1.61,1.61,0,0,0-1.62-.12.64.64,0,0,0-.3.27,1.73,1.73,0,0,0,.28,2.49A1.38,1.38,0,0,0,140.59,22.13Z"/><path class="cls-1" d="M154.83,29.63h0c-.55-.21-.83-.32-1.38-.51l.31-.65,1.75.66.64.65-4.58,4.72-.68-.69Z"/><g id="Fish"><path class="cls-1" d="M93.7,40.68c-1,.65-2.2,1.48-2.94,2a7.48,7.48,0,0,1-1.9-1.49C90.65,41,92.25,40.86,93.7,40.68Z"/><path class="cls-1" d="M81.57,41.73a12.13,12.13,0,0,1-2,1.54A19.8,19.8,0,0,1,77.18,42c.43,0,.87,0,1.3-.06Z"/><path class="cls-1" d="M91.21,30.89a2.46,2.46,0,0,1-.58.58,89.54,89.54,0,0,0-9.11-.87,41,41,0,0,1,4.57-4.72C86.73,27.19,88.61,30.46,91.21,30.89Z"/><path class="cls-1" d="M116.2,36.6a.38.38,0,0,1-.18-.41.4.4,0,0,1,.35-.3c1.5-.19,2.86-1.82,3.69-3.06-1.53.64-5.3,1.3-11.07,1.18A145.66,145.66,0,0,1,93.05,32.6l-2.33-.32a.32.32,0,0,1-.22,0,91.24,91.24,0,0,0-9.65-.89h-.06c-1,0-2,0-3,0-9.87.2-23.4,3.1-25.8,5.46,2.14,2.4,7,3.84,14.39,4.29a6.51,6.51,0,0,0-2.86-6.29.38.38,0,0,1-.14-.54.39.39,0,0,1,.54-.14,7.27,7.27,0,0,1,3.25,7c2.57.15,5.45.16,8.59.07h0l2.6-.11c10-.46,16-1.29,20.39-1.87a77.08,77.08,0,0,1,9.65-.79H109a37.07,37.07,0,0,1,12.58,2.85C120.8,40,118.18,38,116.2,36.6Zm-57.87.59a.94.94,0,1,1,.93-.94A.95.95,0,0,1,58.33,37.19Z"/></g><path d="M12,104.11a26,26,0,0,1-5.9-.65,10.66,10.66,0,0,1-4.46-2A4.35,4.35,0,0,1,0,97.91a4.58,4.58,0,0,1,1.65-3.54,11,11,0,0,1,4.49-2.25l.35.95a3.7,3.7,0,0,0-2.06,1.65,5.19,5.19,0,0,0-.77,2.78,4.56,4.56,0,0,0,2.51,4.16,13,13,0,0,0,6.52,1.45,20.11,20.11,0,0,0,5.2-.68,9.42,9.42,0,0,0,4.19-2.28A5.57,5.57,0,0,0,23.74,96a5.4,5.4,0,0,0-1.47-3.74Q20.89,90.95,16.81,91H12.44a21.87,21.87,0,0,1-3.66-.3,5.84,5.84,0,0,1-2.89-1.24,3.56,3.56,0,0,1-1.12-2.89,5.79,5.79,0,0,1,1.65-3.87,18.09,18.09,0,0,1,6.08-3.81l.71.54a25.94,25.94,0,0,0-3.48,2.15A3.15,3.15,0,0,0,8.25,84.1c0,1.26.95,1.89,2.84,1.89h7.38A14.26,14.26,0,0,1,23,86.7a7.5,7.5,0,0,1,3.4,2.24,6,6,0,0,1,1.3,4A10.14,10.14,0,0,1,26,98.68a12.35,12.35,0,0,1-5.29,3.92A22,22,0,0,1,12,104.11Zm.23-24.2a13.69,13.69,0,0,1-5.26-1,8,8,0,0,1-3.72-3,9.53,9.53,0,0,1-1.36-5.31,9.56,9.56,0,0,1,1.36-5.32,8.07,8.07,0,0,1,3.72-3,13.69,13.69,0,0,1,5.26-1,13.58,13.58,0,0,1,5.28,1,8,8,0,0,1,3.69,3,9.48,9.48,0,0,1,1.36,5.32,9.45,9.45,0,0,1-1.36,5.31,7.93,7.93,0,0,1-3.69,3A13.58,13.58,0,0,1,12.27,79.91Zm0-1.07a4.09,4.09,0,0,0,3.51-1.77q1.28-1.77,1.27-6.49t-1.27-6.5a4.09,4.09,0,0,0-3.51-1.77,4.12,4.12,0,0,0-3.49,1.77c-.86,1.18-1.3,3.35-1.3,6.5s.44,5.31,1.3,6.49A4.12,4.12,0,0,0,12.27,78.84Zm8.5-12.69-1.06-.41a8.61,8.61,0,0,1,2.83-3.55,6.84,6.84,0,0,1,4.19-1.53,3.55,3.55,0,0,1,2.48.86,3.28,3.28,0,0,1,.95,2.56,3,3,0,0,1-1,2.57,3.21,3.21,0,0,1-2,.74,2.59,2.59,0,0,1-1.65-.62,2.68,2.68,0,0,1-.88-2,7.42,7.42,0,0,1,.82-3.48l.77.18a10.78,10.78,0,0,0-3.54,2A10.92,10.92,0,0,0,20.77,66.15Z"/><path d="M40.67,92.9a9.06,9.06,0,0,1-4.2-.92,6.22,6.22,0,0,1-2.68-2.57,7.78,7.78,0,0,1-.92-3.83,7.09,7.09,0,0,1,1.21-4.26,9.07,9.07,0,0,1,3.1-2.65,24.35,24.35,0,0,1,4-1.68l4-1.3a12.47,12.47,0,0,0,3.1-1.45,2.53,2.53,0,0,0,1.21-2.19V68.39a7.77,7.77,0,0,0-.73-3.77,3.76,3.76,0,0,0-2-1.75A8.36,8.36,0,0,0,44,62.43a13.64,13.64,0,0,0-3.16.41,4.71,4.71,0,0,0-2.68,1.72,3.49,3.49,0,0,1,1.95,1.18,3.53,3.53,0,0,1,.82,2.42A3,3,0,0,1,40,70.49a3.48,3.48,0,0,1-2.42.86A2.9,2.9,0,0,1,35,70.25a4,4,0,0,1-.8-2.45A3.83,3.83,0,0,1,35,65.32a9.37,9.37,0,0,1,2-1.77,12.77,12.77,0,0,1,3.51-1.62,16.28,16.28,0,0,1,4.87-.68,13.48,13.48,0,0,1,4.13.56,7.56,7.56,0,0,1,2.84,1.62,6.73,6.73,0,0,1,2,3.46,22.14,22.14,0,0,1,.47,4.87V88.17a3.93,3.93,0,0,0,.44,2.13,1.58,1.58,0,0,0,1.39.65,2.73,2.73,0,0,0,1.24-.3,9,9,0,0,0,1.42-.94l.65,1a20.56,20.56,0,0,1-2.37,1.57,6.25,6.25,0,0,1-3,.62,6.09,6.09,0,0,1-2.83-.59A3.82,3.82,0,0,1,50,90.57a6.62,6.62,0,0,1-.57-2.93,11.07,11.07,0,0,1-3.8,4A9.75,9.75,0,0,1,40.67,92.9Zm2.12-2.36a6.4,6.4,0,0,0,3.63-1.13,10.24,10.24,0,0,0,3-3.36V74.48a5.39,5.39,0,0,1-2.06,1.68c-.91.45-1.89.9-2.95,1.36a21,21,0,0,0-3.05,1.59A7.79,7.79,0,0,0,39,81.5a7,7,0,0,0-.94,3.84,5.45,5.45,0,0,0,1.27,3.78A4.41,4.41,0,0,0,42.79,90.54Z"/><path d="M80.64,61.25a5.85,5.85,0,0,1,2.8.65,5,5,0,0,1,1.89,1.68A4.18,4.18,0,0,1,86,65.91a4,4,0,0,1-.91,2.6,3,3,0,0,1-2.45,1.12,3.3,3.3,0,0,1-2.19-.79,2.81,2.81,0,0,1-.94-2.28,3,3,0,0,1,.62-1.92,5.1,5.1,0,0,1,1.38-1.26,1.39,1.39,0,0,0-1.24-.6,5.65,5.65,0,0,0-3.36,1.1,9.71,9.71,0,0,0-2.6,2.8,15.24,15.24,0,0,0-1.65,3.63,12,12,0,0,0-.59,3.57V86.4q0,2.89,1.68,3.87a9.14,9.14,0,0,0,4.58,1v1.24l-3.84-.14c-1.65-.06-3.41-.09-5.26-.09-1.34,0-2.66,0-4,.09l-3,.14V91.24a5.31,5.31,0,0,0,3.45-.88c.69-.59,1-1.71,1-3.37V68.51a6.56,6.56,0,0,0-.94-3.92c-.63-.85-1.81-1.27-3.54-1.27V62.08c1.26.11,2.48.17,3.66.17a24.55,24.55,0,0,0,3.27-.2,17.41,17.41,0,0,0,2.87-.62v7.38a15.85,15.85,0,0,1,1.86-3.46,11.42,11.42,0,0,1,2.92-2.92A6.49,6.49,0,0,1,80.64,61.25Z"/><path d="M116,61.43V86.11a6.41,6.41,0,0,0,1,3.92c.65.85,1.82,1.27,3.51,1.27v1.24c-1.22-.12-2.44-.17-3.66-.17a28.59,28.59,0,0,0-3.27.17,12.85,12.85,0,0,0-2.87.65v-7A10.12,10.12,0,0,1,101,93.31a10.06,10.06,0,0,1-3.6-.59,6.66,6.66,0,0,1-2.54-1.65A6.34,6.34,0,0,1,93.27,88a22.73,22.73,0,0,1-.41-4.67V68.51a6.56,6.56,0,0,0-.94-3.92c-.63-.85-1.82-1.27-3.55-1.27V62.08c1.26.11,2.48.17,3.66.17a24.7,24.7,0,0,0,3.28-.2,17.29,17.29,0,0,0,2.86-.62v23.2A22,22,0,0,0,98.41,88a4.35,4.35,0,0,0,1.18,2.48,4.21,4.21,0,0,0,3.07.94A6.46,6.46,0,0,0,106.77,90a9.49,9.49,0,0,0,2.83-3.83,13.74,13.74,0,0,0,1-5.44V68.51a6.56,6.56,0,0,0-.94-3.92c-.63-.85-1.81-1.27-3.54-1.27V62.08c1.25.11,2.48.17,3.66.17a24.55,24.55,0,0,0,3.27-.2A17.41,17.41,0,0,0,116,61.43Z"/><path d="M143.52,61.25a10.06,10.06,0,0,1,3.6.59,6.74,6.74,0,0,1,2.54,1.65,6.34,6.34,0,0,1,1.54,3.07,22.73,22.73,0,0,1,.41,4.67V87c0,1.66.34,2.78,1,3.37a5.33,5.33,0,0,0,3.46.88v1.24L153,92.34q-2.07-.09-4-.09t-3.81.09l-2.8.14V91.24a4.16,4.16,0,0,0,3-.88c.59-.59.89-1.71.89-3.37V69.93a22,22,0,0,0-.24-3.37,4.35,4.35,0,0,0-1.18-2.48,4.23,4.23,0,0,0-3.07-.94,6.44,6.44,0,0,0-4.11,1.42,9.46,9.46,0,0,0-2.83,3.86,13.94,13.94,0,0,0-1,5.46V87c0,1.66.29,2.78.88,3.37a4.18,4.18,0,0,0,3,.88v1.24l-2.8-.14q-1.86-.09-3.81-.09c-1.3,0-2.64,0-4,.09l-3.07.14V91.24a5.31,5.31,0,0,0,3.45-.88c.69-.59,1-1.71,1-3.37V68.51a6.56,6.56,0,0,0-.94-3.92c-.63-.85-1.81-1.27-3.54-1.27V62.08c1.25.11,2.48.17,3.66.17a24.55,24.55,0,0,0,3.27-.2,17.41,17.41,0,0,0,2.87-.62v7A11,11,0,0,1,138,62.9,10.27,10.27,0,0,1,143.52,61.25Zm17.77,0a10.06,10.06,0,0,1,3.6.59,6.66,6.66,0,0,1,2.54,1.65A6.34,6.34,0,0,1,169,66.56a22.73,22.73,0,0,1,.41,4.67V87c0,1.66.35,2.78,1,3.37a5.33,5.33,0,0,0,3.46.88v1.24l-3.07-.14q-2.07-.09-4-.09c-1.3,0-2.56,0-3.8.09l-2.81.14V91.24a4.16,4.16,0,0,0,3-.88c.59-.59.89-1.71.89-3.37V69.93a22,22,0,0,0-.24-3.37,4.35,4.35,0,0,0-1.18-2.48,4.21,4.21,0,0,0-3.07-.94,6.41,6.41,0,0,0-4.1,1.42,9.51,9.51,0,0,0-2.84,3.83,13.74,13.74,0,0,0-1,5.44l-.18-5.5a10.31,10.31,0,0,1,4.31-5.57A11.26,11.26,0,0,1,161.29,61.25Z"/></g></g></svg>